M48
;Layer_Color=9474304
;FILE_FORMAT=2:3
INCH,LZ
;TYPE=PLATED
T1F00S00C0.016
T2F00S00C0.020
T3F00S00C0.039
T5F00S00C0.051
T6F00S00C0.063
%
T01
X03409Y02701
X03462Y02735
X03504Y02762
X03302Y02973
X03941Y02735
X04233Y02785
X03065Y02815
X0299Y02879
X02962Y02993
X03093Y03072
X03122Y03084
X02865Y02812
X02805Y0279
X02678Y02788
X02634Y02779
X02555Y02945
X0244
X02385Y0296
X02355Y0298
X02493Y0301
X02685Y0299
X02885Y03444
X03086Y03491
X03087Y03341
X02996Y03619
X03035Y03791
X03016Y03919
X0303Y04154
X02769Y03772
X02342Y03462
X02317Y03439
X02354Y03339
X02258Y03271
X03416Y03372
X03554Y0342
X0365Y03416
X03669Y03479
X03705Y03479
X03746Y03425
X03794
X03775Y03404
X03808Y03485
X03879Y03418
X03878Y03313
X03855Y03141
X0361Y03232
X03561Y03262
X03531Y03246
X035Y03219
X03557Y03187
X03551Y03313
X03645Y03315
X03875Y03613
X03143Y03655
T02
X02624Y03165
X02735Y03345
X02775Y03608
X0262Y03725
X02621Y0376
X0273Y0391
X02622Y04109
X03515Y03738
X03708Y03624
X0379Y03585
X03944Y03301
X04009Y03864
X03297Y03392
T03
X03395Y02926
X03495
X03595
X03695
X03795
Y03026
X03695
X03595
X03495
X03395
X034Y03969
X035
X036
X037
X038
Y04069
X037
X036
X035
X034
T05
X03982Y0271
X02497
T06
X04205Y02915
Y04222
M30
