G04 Layer_Physical_Order=2*
G04 Layer_Color=16711680*
%FSLAX23Y23*%
%MOIN*%
G70*
G01*
G75*
%ADD10R,0.189X0.344*%
%ADD11C,0.051*%
%ADD12C,0.071*%
%ADD13P,0.068X8X22.5*%
%ADD14O,0.102X0.059*%
%ADD15C,0.063*%
%ADD23C,0.010*%
%ADD24C,0.016*%
%ADD25C,0.024*%
%ADD26C,0.020*%
G36*
X4290Y2410D02*
X4100D01*
Y2650D01*
X2380D01*
Y2410D01*
X2185D01*
Y3630D01*
X2345Y3790D01*
Y4205D01*
X3855D01*
X4020Y4370D01*
X4290D01*
Y2410D01*
D02*
G37*
%LPC*%
G36*
X2985Y4188D02*
X2785D01*
Y3924D01*
X2741D01*
X2737Y3927D01*
X2730Y3928D01*
X2723Y3927D01*
X2717Y3923D01*
X2713Y3917D01*
X2712Y3910D01*
X2713Y3903D01*
X2717Y3897D01*
X2723Y3893D01*
X2730Y3892D01*
X2737Y3893D01*
X2741Y3896D01*
X2785D01*
Y3833D01*
X2680D01*
X2674Y3832D01*
X2670Y3829D01*
X2619Y3778D01*
X2614Y3777D01*
X2608Y3773D01*
X2604Y3767D01*
X2603Y3760D01*
X2604Y3753D01*
X2608Y3747D01*
X2608Y3742D01*
X2605Y3739D01*
X2565D01*
Y3811D01*
X2365D01*
Y3454D01*
X2365Y3454D01*
X2365Y3454D01*
X2360Y3452D01*
X2360Y3452D01*
X2359Y3453D01*
X2357Y3457D01*
X2358Y3462D01*
X2357Y3468D01*
X2353Y3473D01*
X2348Y3477D01*
X2342Y3478D01*
X2336Y3477D01*
X2331Y3473D01*
X2330Y3473D01*
X2249D01*
X2245Y3472D01*
X2241Y3470D01*
X2203Y3432D01*
X2201Y3428D01*
X2200Y3424D01*
Y2814D01*
X2201Y2810D01*
X2203Y2806D01*
X2344Y2665D01*
X2348Y2663D01*
X2352Y2662D01*
X4163D01*
X4167Y2663D01*
X4171Y2665D01*
X4267Y2761D01*
X4269Y2765D01*
X4270Y2769D01*
Y2977D01*
X4269Y2981D01*
X4267Y2985D01*
X4103Y3149D01*
X4099Y3151D01*
X4095Y3152D01*
X3867D01*
X3866Y3152D01*
X3861Y3156D01*
X3860Y3156D01*
X3859Y3161D01*
X3871Y3173D01*
X4032D01*
X4036Y3174D01*
X4040Y3176D01*
X4072Y3208D01*
X4074Y3212D01*
X4075Y3216D01*
Y4100D01*
X4074Y4104D01*
X4072Y4108D01*
X4040Y4140D01*
X4036Y4142D01*
X4032Y4143D01*
X3763D01*
X3759Y4142D01*
X3755Y4140D01*
X3721Y4106D01*
X3711Y4110D01*
X3700Y4111D01*
X3689Y4110D01*
X3679Y4105D01*
X3671Y4099D01*
X3664Y4090D01*
X3660Y4080D01*
X3658Y4069D01*
X3660Y4058D01*
X3664Y4048D01*
X3671Y4040D01*
X3679Y4033D01*
X3689Y4029D01*
X3700Y4027D01*
X3711Y4029D01*
X3721Y4033D01*
X3730Y4040D01*
X3736Y4048D01*
X3738Y4051D01*
X3743Y4050D01*
Y4027D01*
X3721Y4006D01*
X3711Y4010D01*
X3700Y4011D01*
X3689Y4010D01*
X3679Y4005D01*
X3671Y3999D01*
X3664Y3990D01*
X3660Y3980D01*
X3659Y3973D01*
X3654Y3971D01*
X3648Y3977D01*
X3644Y3980D01*
X3640Y3980D01*
X3636Y3990D01*
X3630Y3999D01*
X3621Y4005D01*
X3611Y4010D01*
X3600Y4011D01*
X3589Y4010D01*
X3580Y4006D01*
X3554Y4031D01*
X3551Y4033D01*
X3547Y4034D01*
X3530D01*
X3528Y4039D01*
X3530Y4040D01*
X3536Y4048D01*
X3540Y4058D01*
X3542Y4069D01*
X3540Y4080D01*
X3536Y4090D01*
X3530Y4099D01*
X3521Y4105D01*
X3511Y4110D01*
X3500Y4111D01*
X3489Y4110D01*
X3479Y4105D01*
X3471Y4099D01*
X3464Y4090D01*
X3460Y4080D01*
X3458Y4069D01*
X3460Y4058D01*
X3464Y4048D01*
X3471Y4040D01*
X3472Y4039D01*
X3470Y4034D01*
X3428D01*
X3426Y4039D01*
X3438Y4050D01*
Y4088D01*
X3419Y4107D01*
X3381D01*
X3363Y4088D01*
Y4050D01*
X3375Y4039D01*
X3373Y4034D01*
X3166D01*
X3046Y4154D01*
X3046Y4154D01*
X3045Y4160D01*
X3041Y4165D01*
X3036Y4169D01*
X3030Y4170D01*
X3024Y4169D01*
X3019Y4165D01*
X3015Y4160D01*
X3014Y4154D01*
X3015Y4148D01*
X3019Y4143D01*
X3024Y4139D01*
X3030Y4138D01*
X3030Y4138D01*
X3153Y4015D01*
X3157Y4012D01*
X3161Y4012D01*
X3381D01*
X3382Y4007D01*
X3379Y4005D01*
X3371Y3999D01*
X3364Y3990D01*
X3360Y3980D01*
X3358Y3969D01*
X3360Y3958D01*
X3364Y3948D01*
X3371Y3940D01*
X3379Y3933D01*
X3389Y3929D01*
X3400Y3927D01*
X3411Y3929D01*
X3421Y3933D01*
X3430Y3940D01*
X3436Y3948D01*
X3440Y3958D01*
X3442Y3969D01*
X3440Y3980D01*
X3436Y3990D01*
X3430Y3999D01*
X3421Y4005D01*
X3418Y4007D01*
X3419Y4012D01*
X3481D01*
X3482Y4007D01*
X3479Y4005D01*
X3471Y3999D01*
X3464Y3990D01*
X3460Y3980D01*
X3458Y3969D01*
X3460Y3958D01*
X3464Y3948D01*
X3471Y3940D01*
X3479Y3933D01*
X3489Y3929D01*
X3500Y3927D01*
X3511Y3929D01*
X3521Y3933D01*
X3530Y3940D01*
X3536Y3948D01*
X3540Y3958D01*
X3542Y3969D01*
X3540Y3980D01*
X3536Y3990D01*
X3530Y3999D01*
X3521Y4005D01*
X3518Y4007D01*
X3519Y4012D01*
X3542D01*
X3564Y3990D01*
X3560Y3980D01*
X3558Y3969D01*
X3560Y3958D01*
X3564Y3948D01*
X3571Y3940D01*
X3579Y3933D01*
X3589Y3929D01*
X3600Y3927D01*
X3611Y3929D01*
X3621Y3933D01*
X3630Y3940D01*
X3633Y3944D01*
X3638Y3942D01*
Y3933D01*
X3639Y3929D01*
X3641Y3925D01*
X3651Y3915D01*
X3655Y3912D01*
X3659Y3912D01*
X3728D01*
X3732Y3912D01*
X3736Y3915D01*
X3755Y3934D01*
X3757Y3937D01*
X3758Y3941D01*
X3760Y3942D01*
X3763Y3943D01*
X3768Y3937D01*
X3777Y3930D01*
X3788Y3925D01*
X3795Y3924D01*
Y3969D01*
X3800D01*
Y3974D01*
X3845D01*
X3844Y3981D01*
X3840Y3992D01*
X3834Y3999D01*
X3837Y4004D01*
X3914D01*
X4021Y3898D01*
Y3883D01*
X4017Y3881D01*
X4016Y3881D01*
X4009Y3882D01*
X4002Y3881D01*
X3996Y3877D01*
X3992Y3871D01*
X3991Y3866D01*
X3849Y3724D01*
X3533D01*
X3530Y3729D01*
X3532Y3731D01*
X3533Y3738D01*
X3532Y3745D01*
X3528Y3751D01*
X3522Y3755D01*
X3517Y3756D01*
X3369Y3904D01*
X3364Y3907D01*
X3359Y3908D01*
X3039D01*
X3036Y3913D01*
X3036Y3914D01*
X2997D01*
X2997Y3913D01*
X2994Y3908D01*
X2985D01*
Y4188D01*
D02*
G37*
G36*
X3600Y4111D02*
X3589Y4110D01*
X3579Y4105D01*
X3571Y4099D01*
X3564Y4090D01*
X3560Y4080D01*
X3558Y4069D01*
X3560Y4058D01*
X3564Y4048D01*
X3571Y4040D01*
X3579Y4033D01*
X3589Y4029D01*
X3600Y4027D01*
X3611Y4029D01*
X3621Y4033D01*
X3630Y4040D01*
X3636Y4048D01*
X3640Y4058D01*
X3642Y4069D01*
X3640Y4080D01*
X3636Y4090D01*
X3630Y4099D01*
X3621Y4105D01*
X3611Y4110D01*
X3600Y4111D01*
D02*
G37*
G36*
X3011Y3938D02*
X3009Y3938D01*
X3002Y3933D01*
X2998Y3927D01*
X2997Y3924D01*
X3011D01*
Y3938D01*
D02*
G37*
G36*
X3021D02*
Y3924D01*
X3036D01*
X3035Y3927D01*
X3031Y3933D01*
X3024Y3938D01*
X3021Y3938D01*
D02*
G37*
G36*
X3845Y3964D02*
X3805D01*
Y3924D01*
X3812Y3925D01*
X3823Y3930D01*
X3833Y3937D01*
X3840Y3946D01*
X3844Y3957D01*
X3845Y3964D01*
D02*
G37*
G36*
X4236Y4300D02*
X4180D01*
Y4265D01*
X4196D01*
X4207Y4266D01*
X4216Y4270D01*
X4225Y4277D01*
X4231Y4285D01*
X4235Y4295D01*
X4236Y4300D01*
D02*
G37*
G36*
X4170Y4345D02*
X4154D01*
X4143Y4343D01*
X4134Y4339D01*
X4126Y4333D01*
X4119Y4325D01*
X4115Y4315D01*
X4115Y4310D01*
X4170D01*
Y4345D01*
D02*
G37*
G36*
X4196D02*
X4180D01*
Y4310D01*
X4236D01*
X4235Y4315D01*
X4231Y4325D01*
X4225Y4333D01*
X4216Y4339D01*
X4207Y4343D01*
X4196Y4345D01*
D02*
G37*
G36*
X4170Y4300D02*
X4115D01*
X4115Y4295D01*
X4119Y4285D01*
X4126Y4277D01*
X4134Y4270D01*
X4143Y4266D01*
X4154Y4265D01*
X4170D01*
Y4300D01*
D02*
G37*
G36*
X2565Y4188D02*
X2365D01*
Y3832D01*
X2565D01*
Y4095D01*
X2611D01*
X2615Y4092D01*
X2622Y4091D01*
X2629Y4092D01*
X2635Y4096D01*
X2639Y4102D01*
X2640Y4109D01*
X2639Y4116D01*
X2635Y4122D01*
X2629Y4126D01*
X2622Y4127D01*
X2615Y4126D01*
X2611Y4123D01*
X2565D01*
Y4188D01*
D02*
G37*
G36*
X4205Y4259D02*
X4195Y4258D01*
X4186Y4254D01*
X4178Y4248D01*
X4172Y4241D01*
X4168Y4231D01*
X4167Y4222D01*
X4168Y4212D01*
X4172Y4203D01*
X4178Y4195D01*
X4186Y4189D01*
X4195Y4185D01*
X4205Y4184D01*
X4215Y4185D01*
X4224Y4189D01*
X4232Y4195D01*
X4238Y4203D01*
X4242Y4212D01*
X4243Y4222D01*
X4242Y4231D01*
X4238Y4241D01*
X4232Y4248D01*
X4224Y4254D01*
X4215Y4258D01*
X4205Y4259D01*
D02*
G37*
%LPD*%
G36*
X3483Y3221D02*
X3483Y3218D01*
X3365Y3100D01*
X3349D01*
X3345Y3099D01*
X3341Y3096D01*
X3286Y3041D01*
X3055D01*
X3053Y3046D01*
X3073Y3067D01*
X3079Y3065D01*
X3082Y3061D01*
X3087Y3057D01*
X3093Y3056D01*
X3094Y3056D01*
X3095Y3055D01*
X3098Y3053D01*
X3102Y3052D01*
X3134D01*
X3139Y3053D01*
X3142Y3055D01*
X3244Y3157D01*
X3407D01*
X3411Y3158D01*
X3415Y3160D01*
X3478Y3223D01*
X3483Y3221D01*
D02*
G37*
G36*
X3786Y3219D02*
X3634Y3067D01*
X3632Y3063D01*
X3631Y3059D01*
Y3055D01*
X3626Y3054D01*
X3625Y3056D01*
X3616Y3062D01*
X3606Y3066D01*
Y3118D01*
X3711Y3224D01*
X3784D01*
X3786Y3219D01*
D02*
G37*
G36*
X3592Y3232D02*
X3594Y3231D01*
X3595Y3226D01*
X3599Y3220D01*
X3599Y3220D01*
Y3178D01*
X3541Y3120D01*
X3538Y3116D01*
X3538Y3112D01*
Y3045D01*
X3533Y3044D01*
X3531Y3047D01*
X3525Y3056D01*
X3516Y3062D01*
X3506Y3066D01*
X3495Y3068D01*
X3484Y3066D01*
X3474Y3062D01*
X3466Y3056D01*
X3459Y3047D01*
X3455Y3037D01*
X3453Y3026D01*
X3455Y3015D01*
X3459Y3005D01*
X3466Y2996D01*
X3472Y2991D01*
X3471Y2986D01*
X3420D01*
X3418Y2991D01*
X3425Y2996D01*
X3431Y3005D01*
X3435Y3015D01*
X3437Y3026D01*
X3436Y3031D01*
Y3043D01*
X3565Y3172D01*
X3566Y3174D01*
X3568Y3176D01*
X3572Y3181D01*
X3573Y3187D01*
X3572Y3193D01*
X3568Y3198D01*
X3564Y3201D01*
X3562Y3207D01*
X3589Y3233D01*
X3592Y3232D01*
D02*
G37*
G36*
X2250Y3134D02*
X2329Y3054D01*
X2328Y3050D01*
X2268D01*
X2245Y3073D01*
Y3133D01*
X2250Y3134D01*
X2250Y3134D01*
D02*
G37*
G36*
X3821Y3203D02*
X3810Y3192D01*
X3808Y3188D01*
X3807Y3184D01*
Y3154D01*
X3716Y3062D01*
X3706Y3066D01*
X3695Y3068D01*
X3684Y3066D01*
X3674Y3062D01*
X3666Y3056D01*
X3659Y3047D01*
X3658Y3045D01*
X3653Y3046D01*
Y3054D01*
X3807Y3208D01*
X3819D01*
X3821Y3203D01*
D02*
G37*
G36*
X4248Y2972D02*
Y2800D01*
X4243Y2797D01*
X4239Y2800D01*
X4233Y2801D01*
X4232Y2801D01*
X4231Y2802D01*
X4230Y2802D01*
X4227Y2807D01*
X4231Y2812D01*
X4235Y2821D01*
X4236Y2827D01*
X4115D01*
X4115Y2821D01*
X4119Y2812D01*
X4123Y2807D01*
X4120Y2802D01*
X3844D01*
X3838Y2808D01*
X3835Y2810D01*
X3830Y2811D01*
X3826Y2810D01*
X3823Y2808D01*
X3816Y2801D01*
X3085D01*
X3083Y2806D01*
X3084Y2807D01*
X3084Y2810D01*
X3046D01*
X3046Y2807D01*
X3047Y2806D01*
X3045Y2801D01*
X2887D01*
X2884Y2806D01*
X2884Y2807D01*
X2846D01*
X2846Y2806D01*
X2843Y2801D01*
X2817D01*
X2816Y2801D01*
X2811Y2805D01*
X2805Y2806D01*
X2799Y2805D01*
X2794Y2801D01*
X2790Y2796D01*
X2789Y2790D01*
X2790Y2784D01*
X2794Y2779D01*
X2794Y2778D01*
X2793Y2773D01*
X2709D01*
X2694Y2788D01*
X2694Y2788D01*
X2693Y2794D01*
X2689Y2799D01*
X2684Y2803D01*
X2678Y2804D01*
X2672Y2803D01*
X2667Y2799D01*
X2663Y2794D01*
X2662Y2788D01*
X2663Y2782D01*
X2667Y2777D01*
X2672Y2773D01*
X2678Y2772D01*
X2678Y2772D01*
X2696Y2754D01*
X2700Y2752D01*
X2704Y2751D01*
X3448D01*
X3449Y2748D01*
X3450Y2746D01*
X3447Y2741D01*
X3446Y2735D01*
X3447Y2729D01*
X3451Y2724D01*
X3456Y2720D01*
X3462Y2719D01*
X3468Y2720D01*
X3473Y2724D01*
X3474Y2724D01*
X3929D01*
X3930Y2724D01*
X3935Y2720D01*
X3941Y2719D01*
X3947Y2720D01*
X3948Y2720D01*
X3951Y2717D01*
X3951Y2710D01*
X3952Y2702D01*
X3955Y2694D01*
X3959Y2689D01*
X3956Y2684D01*
X3421D01*
X3420Y2689D01*
X3420Y2690D01*
X3424Y2695D01*
X3425Y2701D01*
X3424Y2707D01*
X3420Y2712D01*
X3415Y2716D01*
X3409Y2717D01*
X3403Y2716D01*
X3398Y2712D01*
X3397Y2712D01*
X2649D01*
X2436Y2924D01*
X2439Y2929D01*
X2440Y2929D01*
X2446Y2930D01*
X2451Y2934D01*
X2455Y2939D01*
X2456Y2945D01*
X2456Y2945D01*
X2466Y2955D01*
X2537D01*
X2540Y2950D01*
X2539Y2945D01*
X2540Y2939D01*
X2544Y2934D01*
X2549Y2930D01*
X2555Y2929D01*
X2561Y2930D01*
X2566Y2934D01*
X2570Y2939D01*
X2635D01*
X2734Y2840D01*
X2738Y2837D01*
X2742Y2836D01*
X2860D01*
X2860Y2836D01*
X2870D01*
X2870Y2836D01*
X3052D01*
X3054Y2831D01*
X3051Y2829D01*
X3046Y2823D01*
X3046Y2820D01*
X3084D01*
X3084Y2823D01*
X3079Y2829D01*
X3076Y2831D01*
X3078Y2836D01*
X3294D01*
X3307Y2824D01*
X3310Y2822D01*
X3314Y2821D01*
X3607D01*
X3612Y2822D01*
X3615Y2824D01*
X3664Y2873D01*
X3695D01*
X3699Y2874D01*
X3703Y2876D01*
X3705Y2880D01*
X3706Y2884D01*
Y2886D01*
X3716Y2890D01*
X3725Y2896D01*
X3731Y2905D01*
X3735Y2915D01*
X3737Y2926D01*
X3735Y2937D01*
X3731Y2947D01*
X3753Y2968D01*
X3755Y2972D01*
X3756Y2976D01*
Y2994D01*
X3761Y2996D01*
X3763Y2994D01*
X3772Y2986D01*
X3783Y2982D01*
X3790Y2981D01*
Y3026D01*
Y3071D01*
X3789Y3071D01*
X3787Y3076D01*
X3839Y3128D01*
X3844Y3130D01*
X3849Y3126D01*
X3855Y3125D01*
X3861Y3126D01*
X3866Y3130D01*
X3867Y3130D01*
X4090D01*
X4248Y2972D01*
D02*
G37*
G36*
X3988Y3278D02*
Y3273D01*
X3960Y3246D01*
X3707D01*
X3703Y3245D01*
X3699Y3243D01*
X3626Y3169D01*
X3621Y3172D01*
X3621Y3173D01*
Y3220D01*
X3621Y3220D01*
X3625Y3226D01*
X3626Y3232D01*
X3625Y3238D01*
X3621Y3243D01*
X3616Y3247D01*
X3611Y3248D01*
X3609Y3250D01*
X3608Y3253D01*
X3613Y3257D01*
X3955D01*
X3960Y3258D01*
X3963Y3261D01*
X3983Y3280D01*
X3988Y3278D01*
D02*
G37*
G36*
X3055Y3377D02*
X3056Y3373D01*
X3019Y3336D01*
X3017Y3332D01*
X3016Y3328D01*
Y3113D01*
X2990Y3087D01*
X2985Y3089D01*
Y3378D01*
X3054D01*
X3055Y3377D01*
D02*
G37*
G36*
X3068Y3352D02*
X3070Y3349D01*
X3071Y3346D01*
X3070Y3341D01*
X3072Y3335D01*
X3075Y3330D01*
X3080Y3326D01*
X3087Y3325D01*
X3093Y3326D01*
X3098Y3330D01*
X3098Y3330D01*
X3149D01*
X3153Y3326D01*
X3157Y3323D01*
X3161Y3323D01*
X3246D01*
X3248Y3318D01*
X3043Y3113D01*
X3038Y3115D01*
Y3323D01*
X3067Y3352D01*
X3068Y3352D01*
D02*
G37*
G36*
X3265Y3014D02*
X3256Y3004D01*
X3048D01*
X3046Y3007D01*
X3046Y3009D01*
X3056Y3019D01*
X3263D01*
X3265Y3014D01*
D02*
G37*
G36*
X2982Y2893D02*
X2979Y2890D01*
X2975Y2885D01*
X2974Y2879D01*
X2975Y2873D01*
X2979Y2868D01*
X2984Y2864D01*
X2985Y2864D01*
X2985Y2859D01*
X2747D01*
X2713Y2893D01*
X2715Y2898D01*
X2981D01*
X2982Y2893D01*
D02*
G37*
G36*
X3294Y2864D02*
X3292Y2859D01*
X2995D01*
X2995Y2864D01*
X2996Y2864D01*
X3001Y2868D01*
X3002Y2868D01*
X3290D01*
X3294Y2864D01*
D02*
G37*
G36*
X3831Y2783D02*
X3835Y2781D01*
X3839Y2780D01*
X4218D01*
X4218Y2779D01*
X4222Y2774D01*
X4227Y2770D01*
X4233Y2769D01*
X4237Y2770D01*
X4239Y2765D01*
X4158Y2684D01*
X4008D01*
X4006Y2689D01*
X4010Y2694D01*
X4013Y2702D01*
X4014Y2710D01*
X4013Y2718D01*
X4010Y2726D01*
X4005Y2733D01*
X3998Y2738D01*
X3991Y2741D01*
X3982Y2742D01*
X3974Y2741D01*
X3966Y2738D01*
X3962Y2734D01*
X3961Y2734D01*
X3957Y2737D01*
X3956Y2741D01*
X3952Y2746D01*
X3947Y2750D01*
X3941Y2751D01*
X3935Y2750D01*
X3930Y2746D01*
X3929Y2746D01*
X3518D01*
X3517Y2749D01*
X3516Y2751D01*
X3519Y2756D01*
X3520Y2762D01*
X3519Y2768D01*
X3515Y2773D01*
X3515Y2774D01*
X3516Y2779D01*
X3820D01*
X3825Y2780D01*
X3828Y2782D01*
X3830Y2784D01*
X3831Y2783D01*
D02*
G37*
G36*
X3489Y2774D02*
X3488Y2773D01*
X2823D01*
X2820Y2778D01*
X2821Y2779D01*
X3486D01*
X3489Y2774D01*
D02*
G37*
G36*
X3352Y2867D02*
X3350Y2862D01*
X3328D01*
X3303Y2887D01*
X3299Y2889D01*
X3295Y2890D01*
X3002D01*
X2999Y2893D01*
X3000Y2898D01*
X3321D01*
X3352Y2867D01*
D02*
G37*
G36*
X2947Y3000D02*
X2947Y2999D01*
X2945Y2993D01*
X2946Y2988D01*
X2943Y2983D01*
X2730D01*
X2715Y2998D01*
X2711Y3000D01*
X2711Y3000D01*
X2711Y3005D01*
X2945D01*
X2947Y3000D01*
D02*
G37*
G36*
X2253Y3026D02*
X2253Y3026D01*
X2257Y3022D01*
X2263Y3021D01*
X2263Y3021D01*
X2476D01*
X2479Y3017D01*
X2478Y3016D01*
X2477Y3010D01*
X2478Y3004D01*
X2482Y2999D01*
X2482Y2998D01*
X2481Y2993D01*
X2364D01*
X2361Y2995D01*
X2355Y2996D01*
X2349Y2995D01*
X2344Y2991D01*
X2340Y2986D01*
X2339Y2980D01*
X2340Y2974D01*
X2344Y2969D01*
X2349Y2965D01*
X2355Y2964D01*
X2361Y2965D01*
X2366Y2968D01*
X2367Y2968D01*
X2369Y2966D01*
X2370Y2965D01*
X2369Y2960D01*
X2370Y2954D01*
X2374Y2949D01*
X2379Y2945D01*
X2385Y2944D01*
X2385Y2944D01*
X2636Y2693D01*
X2640Y2691D01*
X2644Y2690D01*
X3393D01*
X3394Y2689D01*
X3391Y2684D01*
X2523D01*
X2521Y2689D01*
X2525Y2694D01*
X2528Y2702D01*
X2529Y2710D01*
X2528Y2718D01*
X2525Y2726D01*
X2520Y2733D01*
X2513Y2738D01*
X2506Y2741D01*
X2497Y2742D01*
X2489Y2741D01*
X2481Y2738D01*
X2475Y2733D01*
X2470Y2726D01*
X2467Y2718D01*
X2466Y2710D01*
X2467Y2702D01*
X2470Y2694D01*
X2474Y2689D01*
X2471Y2684D01*
X2357D01*
X2222Y2819D01*
Y3049D01*
X2227Y3051D01*
X2253Y3026D01*
D02*
G37*
G36*
X3316Y2925D02*
X3314Y2920D01*
X2708D01*
X2698Y2930D01*
X2700Y2935D01*
X3306D01*
X3316Y2925D01*
D02*
G37*
G36*
X3566Y2996D02*
X3574Y2990D01*
X3584Y2986D01*
X3595Y2984D01*
X3606Y2986D01*
X3616Y2990D01*
X3625Y2996D01*
X3626Y2998D01*
X3631Y2997D01*
Y2955D01*
X3626Y2954D01*
X3625Y2956D01*
X3616Y2962D01*
X3606Y2966D01*
X3595Y2968D01*
X3584Y2966D01*
X3574Y2962D01*
X3566Y2956D01*
X3559Y2947D01*
X3555Y2937D01*
X3553Y2926D01*
X3555Y2915D01*
X3559Y2905D01*
X3532Y2879D01*
X3470D01*
X3468Y2883D01*
X3475Y2890D01*
X3484Y2886D01*
X3495Y2884D01*
X3506Y2886D01*
X3516Y2890D01*
X3525Y2896D01*
X3531Y2905D01*
X3535Y2915D01*
X3537Y2926D01*
X3535Y2937D01*
X3531Y2947D01*
X3525Y2956D01*
X3520Y2959D01*
X3520Y2962D01*
X3521Y2965D01*
X3524Y2967D01*
X3557Y3000D01*
X3557Y3000D01*
X3563Y3000D01*
X3566Y2996D01*
D02*
G37*
G36*
X3693Y3639D02*
X3692Y3638D01*
X3162D01*
X3159Y3643D01*
X3159Y3644D01*
X3690D01*
X3693Y3639D01*
D02*
G37*
G36*
X3022Y3800D02*
X3020Y3797D01*
X3019Y3791D01*
X3020Y3785D01*
X3024Y3780D01*
X3029Y3776D01*
X3035Y3775D01*
X3041Y3776D01*
X3046Y3780D01*
X3047Y3780D01*
X3057D01*
X3166Y3671D01*
X3164Y3666D01*
X3155D01*
X3154Y3666D01*
X3149Y3670D01*
X3143Y3671D01*
X3137Y3670D01*
X3132Y3666D01*
X3128Y3661D01*
X3127Y3655D01*
X3128Y3649D01*
X3132Y3644D01*
X3132Y3643D01*
X3130Y3638D01*
X3095D01*
X3051Y3683D01*
X3047Y3686D01*
X3041Y3687D01*
X2985D01*
Y3805D01*
X3019D01*
X3022Y3800D01*
D02*
G37*
G36*
X2993Y3604D02*
X3013Y3583D01*
X3017Y3581D01*
X3021Y3580D01*
X3588D01*
X3642Y3527D01*
X3640Y3524D01*
X3639Y3522D01*
X3635Y3523D01*
X3065D01*
X3061Y3522D01*
X3057Y3520D01*
X2992Y3455D01*
X2985D01*
Y3602D01*
X2988Y3603D01*
X2990Y3604D01*
X2993Y3604D01*
D02*
G37*
G36*
X3080Y3614D02*
X3084Y3611D01*
X3090Y3610D01*
X3697D01*
X3701Y3608D01*
X3708Y3606D01*
X3715Y3608D01*
X3721Y3611D01*
X3725Y3617D01*
X3726Y3624D01*
X3725Y3631D01*
X3721Y3637D01*
X3718Y3639D01*
X3720Y3644D01*
X3756D01*
X3792Y3608D01*
X3790Y3603D01*
X3783Y3602D01*
X3777Y3598D01*
X3773Y3592D01*
X3772Y3585D01*
X3773Y3578D01*
X3776Y3574D01*
Y3574D01*
X3742Y3540D01*
X3739Y3535D01*
X3738Y3530D01*
Y3477D01*
X3670Y3409D01*
X3665Y3412D01*
X3666Y3416D01*
X3665Y3422D01*
X3661Y3427D01*
X3656Y3431D01*
X3650Y3432D01*
X3644Y3431D01*
X3639Y3427D01*
X3638Y3427D01*
X3570Y3496D01*
X3572Y3501D01*
X3630D01*
X3652Y3479D01*
X3652Y3479D01*
X3654Y3472D01*
X3657Y3467D01*
X3662Y3464D01*
X3669Y3462D01*
X3675Y3464D01*
X3680Y3467D01*
X3683Y3472D01*
X3684Y3477D01*
X3689D01*
X3690Y3473D01*
X3694Y3468D01*
X3699Y3464D01*
X3705Y3463D01*
X3711Y3464D01*
X3716Y3468D01*
X3720Y3473D01*
X3721Y3479D01*
X3720Y3485D01*
X3716Y3490D01*
X3711Y3494D01*
X3705Y3495D01*
X3705Y3495D01*
X3601Y3599D01*
X3597Y3601D01*
X3593Y3602D01*
X3026D01*
X3012Y3616D01*
X3012Y3619D01*
X3011Y3625D01*
X3007Y3630D01*
X3002Y3634D01*
X2996Y3635D01*
X2990Y3634D01*
X2988Y3635D01*
X2985Y3636D01*
Y3659D01*
X3035D01*
X3080Y3614D01*
D02*
G37*
G36*
X3972Y3402D02*
Y3301D01*
X3966Y3295D01*
X3961Y3298D01*
X3962Y3301D01*
X3961Y3308D01*
X3957Y3314D01*
X3951Y3318D01*
X3944Y3319D01*
X3937Y3318D01*
X3931Y3314D01*
X3927Y3308D01*
X3926Y3303D01*
X3926Y3303D01*
X3895D01*
X3893Y3308D01*
X3894Y3313D01*
X3894Y3313D01*
X3908Y3327D01*
X3910Y3331D01*
X3911Y3335D01*
Y3432D01*
X3910Y3436D01*
X3908Y3440D01*
X3900Y3448D01*
X3896Y3450D01*
X3892Y3451D01*
X3866D01*
X3862Y3450D01*
X3858Y3448D01*
X3840Y3430D01*
X3834Y3431D01*
X3833Y3433D01*
X3801Y3465D01*
X3804Y3470D01*
X3808Y3469D01*
X3814Y3470D01*
X3819Y3474D01*
X3820Y3474D01*
X3899D01*
X3972Y3402D01*
D02*
G37*
G36*
X4053Y4095D02*
Y3936D01*
X4048Y3934D01*
X3866Y4116D01*
X3868Y4121D01*
X4027D01*
X4053Y4095D01*
D02*
G37*
G36*
X3919Y4032D02*
X3917Y4027D01*
X3819D01*
X3818Y4032D01*
X3821Y4033D01*
X3830Y4040D01*
X3836Y4048D01*
X3840Y4058D01*
X3842Y4069D01*
X3840Y4080D01*
X3836Y4090D01*
X3830Y4099D01*
X3828Y4100D01*
X3830Y4104D01*
X3846D01*
X3919Y4032D01*
D02*
G37*
G36*
X2785Y3786D02*
X2783Y3785D01*
X2780Y3784D01*
X2775Y3787D01*
X2769Y3788D01*
X2763Y3787D01*
X2758Y3783D01*
X2754Y3778D01*
X2753Y3772D01*
X2754Y3766D01*
X2758Y3761D01*
X2758Y3760D01*
Y3651D01*
X2570Y3463D01*
X2565Y3465D01*
Y3711D01*
X2609D01*
X2613Y3708D01*
X2620Y3707D01*
X2627Y3708D01*
X2633Y3712D01*
X2637Y3718D01*
X2638Y3725D01*
X2637Y3732D01*
X2633Y3738D01*
X2631Y3739D01*
Y3745D01*
X2634Y3747D01*
X2638Y3753D01*
X2639Y3758D01*
X2686Y3805D01*
X2785D01*
Y3786D01*
D02*
G37*
G36*
X4017Y3847D02*
X4021Y3845D01*
Y3826D01*
X3839Y3645D01*
X3837Y3642D01*
X3836Y3637D01*
Y3630D01*
X3831Y3628D01*
X3779Y3680D01*
X3776Y3682D01*
X3771Y3683D01*
X3185D01*
X3070Y3799D01*
X3068Y3800D01*
X3070Y3805D01*
X3281D01*
X3386Y3700D01*
X3391Y3697D01*
X3396Y3696D01*
X3855D01*
X3860Y3697D01*
X3865Y3700D01*
X4011Y3846D01*
X4016Y3847D01*
X4017Y3847D01*
D02*
G37*
G36*
X3497Y3736D02*
X3498Y3731D01*
X3500Y3729D01*
X3497Y3724D01*
X3402D01*
X3297Y3829D01*
X3292Y3832D01*
X3287Y3833D01*
X2985D01*
Y3880D01*
X3353D01*
X3497Y3736D01*
D02*
G37*
G36*
X3988Y3440D02*
Y3424D01*
X3983Y3422D01*
X3912Y3493D01*
X3908Y3495D01*
X3904Y3496D01*
X3820D01*
X3819Y3496D01*
X3814Y3500D01*
X3808Y3501D01*
X3805Y3500D01*
X3802Y3505D01*
X3839Y3542D01*
X3842Y3546D01*
X3842Y3550D01*
Y3578D01*
X3847Y3580D01*
X3988Y3440D01*
D02*
G37*
G36*
X2303Y3446D02*
X2302Y3445D01*
X2301Y3439D01*
X2302Y3433D01*
X2306Y3428D01*
X2311Y3424D01*
X2317Y3423D01*
X2323Y3424D01*
X2328Y3428D01*
X2329Y3428D01*
X2365D01*
Y3393D01*
X2330D01*
X2325Y3392D01*
X2320Y3389D01*
X2227Y3296D01*
X2222Y3297D01*
Y3419D01*
X2254Y3451D01*
X2300D01*
X2303Y3446D01*
D02*
G37*
G36*
X3555Y3247D02*
X3561Y3246D01*
X3563Y3246D01*
X3566Y3242D01*
X3408Y3084D01*
X3387D01*
X3385Y3088D01*
X3500Y3203D01*
X3500Y3203D01*
X3506Y3204D01*
X3511Y3208D01*
X3515Y3213D01*
X3516Y3219D01*
X3515Y3225D01*
X3512Y3230D01*
X3513Y3232D01*
X3514Y3235D01*
X3519D01*
X3520Y3235D01*
X3525Y3231D01*
X3531Y3230D01*
X3537Y3231D01*
X3542Y3235D01*
X3546Y3240D01*
X3547Y3246D01*
X3547Y3246D01*
X3552Y3249D01*
X3555Y3247D01*
D02*
G37*
G36*
X2365Y3356D02*
X2362Y3355D01*
X2360Y3354D01*
X2354Y3355D01*
X2348Y3354D01*
X2343Y3350D01*
X2339Y3345D01*
X2338Y3339D01*
X2339Y3333D01*
X2343Y3328D01*
X2348Y3324D01*
X2348Y3324D01*
Y3074D01*
X2343Y3072D01*
X2269Y3146D01*
Y3259D01*
X2269Y3260D01*
X2273Y3265D01*
X2274Y3271D01*
X2273Y3277D01*
X2269Y3282D01*
X2264Y3286D01*
X2264Y3286D01*
X2262Y3291D01*
X2336Y3365D01*
X2365D01*
Y3356D01*
D02*
G37*
G36*
X2758Y3612D02*
X2757Y3608D01*
X2758Y3601D01*
X2762Y3595D01*
X2768Y3591D01*
X2775Y3589D01*
X2780Y3590D01*
X2785Y3587D01*
Y3454D01*
X2868D01*
X2869Y3453D01*
X2870Y3449D01*
X2869Y3444D01*
X2870Y3438D01*
X2870Y3437D01*
X2868Y3433D01*
X2785D01*
Y3359D01*
X2746D01*
X2742Y3362D01*
X2735Y3363D01*
X2728Y3362D01*
X2722Y3358D01*
X2718Y3352D01*
X2717Y3345D01*
X2718Y3338D01*
X2722Y3332D01*
X2728Y3328D01*
X2735Y3327D01*
X2742Y3328D01*
X2746Y3331D01*
X2785D01*
Y3083D01*
X2565D01*
Y3151D01*
X2613D01*
X2617Y3148D01*
X2624Y3147D01*
X2631Y3148D01*
X2637Y3152D01*
X2641Y3158D01*
X2642Y3165D01*
X2641Y3172D01*
X2637Y3178D01*
X2631Y3182D01*
X2624Y3183D01*
X2617Y3182D01*
X2613Y3179D01*
X2565D01*
Y3428D01*
X2566Y3429D01*
X2570Y3431D01*
X2753Y3614D01*
X2758Y3612D01*
D02*
G37*
G36*
X3402Y3379D02*
X3401Y3378D01*
X3400Y3372D01*
X3401Y3366D01*
X3401Y3365D01*
X3398Y3361D01*
X3285D01*
X3273Y3373D01*
X3274Y3377D01*
X3275Y3378D01*
X3286D01*
X3290Y3375D01*
X3297Y3374D01*
X3304Y3375D01*
X3310Y3379D01*
X3313Y3384D01*
X3399D01*
X3402Y3379D01*
D02*
G37*
G36*
X3071Y3495D02*
X3070Y3491D01*
X3071Y3485D01*
X3075Y3480D01*
X3080Y3476D01*
X3086Y3475D01*
X3092Y3476D01*
X3097Y3480D01*
X3098Y3480D01*
X3554D01*
X3572Y3462D01*
X3570Y3458D01*
X3542D01*
X3537Y3457D01*
X3532Y3454D01*
X3490Y3412D01*
X2985D01*
Y3433D01*
X2997D01*
X3001Y3434D01*
X3005Y3436D01*
X3066Y3497D01*
X3071Y3495D01*
D02*
G37*
G36*
X3423Y3254D02*
X3366Y3197D01*
X3210D01*
X3208Y3202D01*
X3265Y3258D01*
X3418D01*
X3421Y3259D01*
X3423Y3254D01*
D02*
G37*
G36*
X3889Y3400D02*
Y3340D01*
X3878Y3329D01*
X3878Y3329D01*
X3872Y3328D01*
X3867Y3324D01*
X3863Y3319D01*
X3862Y3313D01*
X3863Y3308D01*
X3861Y3303D01*
X3662D01*
X3659Y3308D01*
X3660Y3309D01*
X3661Y3315D01*
X3660Y3321D01*
X3656Y3326D01*
X3656Y3327D01*
Y3333D01*
X3656Y3334D01*
X3661Y3339D01*
X3811D01*
X3815Y3339D01*
X3819Y3342D01*
X3879Y3402D01*
X3879Y3402D01*
X3884Y3403D01*
X3889Y3400D01*
D02*
G37*
G36*
X4037Y3804D02*
Y3231D01*
X4020Y3214D01*
X4000D01*
X3998Y3219D01*
X4023Y3243D01*
X4025Y3247D01*
X4026Y3251D01*
Y3473D01*
X4025Y3477D01*
X4023Y3481D01*
X3891Y3613D01*
X3891Y3613D01*
X3890Y3619D01*
X3886Y3624D01*
X3881Y3628D01*
X3875Y3629D01*
X3869Y3628D01*
X3864Y3624D01*
X3863Y3624D01*
X3858Y3626D01*
Y3633D01*
X4032Y3806D01*
X4037Y3804D01*
D02*
G37*
%LPC*%
G36*
X2639Y2798D02*
Y2784D01*
X2653D01*
X2653Y2787D01*
X2648Y2793D01*
X2642Y2798D01*
X2639Y2798D01*
D02*
G37*
G36*
X2629D02*
X2626Y2798D01*
X2620Y2793D01*
X2615Y2787D01*
X2615Y2784D01*
X2629D01*
Y2798D01*
D02*
G37*
G36*
Y2774D02*
X2615D01*
X2615Y2771D01*
X2620Y2765D01*
X2626Y2760D01*
X2629Y2760D01*
Y2774D01*
D02*
G37*
G36*
X2653D02*
X2639D01*
Y2760D01*
X2642Y2760D01*
X2648Y2765D01*
X2653Y2771D01*
X2653Y2774D01*
D02*
G37*
G36*
X2860Y2831D02*
X2857Y2831D01*
X2851Y2826D01*
X2846Y2820D01*
X2846Y2817D01*
X2860D01*
Y2831D01*
D02*
G37*
G36*
X3795Y2968D02*
X3784Y2966D01*
X3774Y2962D01*
X3766Y2956D01*
X3759Y2947D01*
X3755Y2937D01*
X3753Y2926D01*
X3755Y2915D01*
X3759Y2905D01*
X3766Y2896D01*
X3774Y2890D01*
X3784Y2886D01*
X3795Y2884D01*
X3806Y2886D01*
X3816Y2890D01*
X3825Y2896D01*
X3831Y2905D01*
X3835Y2915D01*
X3837Y2926D01*
X3835Y2937D01*
X3831Y2947D01*
X3825Y2956D01*
X3816Y2962D01*
X3806Y2966D01*
X3795Y2968D01*
D02*
G37*
G36*
X3840Y3021D02*
X3800D01*
Y2981D01*
X3807Y2982D01*
X3818Y2986D01*
X3828Y2994D01*
X3835Y3003D01*
X3839Y3014D01*
X3840Y3021D01*
D02*
G37*
G36*
X3800Y3071D02*
Y3031D01*
X3840D01*
X3839Y3038D01*
X3835Y3049D01*
X3828Y3058D01*
X3818Y3066D01*
X3807Y3070D01*
X3800Y3071D01*
D02*
G37*
G36*
X4205Y2953D02*
X4195Y2952D01*
X4186Y2948D01*
X4178Y2942D01*
X4172Y2934D01*
X4168Y2925D01*
X4167Y2915D01*
X4168Y2905D01*
X4172Y2896D01*
X4178Y2888D01*
X4186Y2882D01*
X4195Y2878D01*
X4205Y2877D01*
X4215Y2878D01*
X4224Y2882D01*
X4232Y2888D01*
X4238Y2896D01*
X4242Y2905D01*
X4243Y2915D01*
X4242Y2925D01*
X4238Y2934D01*
X4232Y2942D01*
X4224Y2948D01*
X4215Y2952D01*
X4205Y2953D01*
D02*
G37*
G36*
X2870Y2831D02*
Y2817D01*
X2884D01*
X2884Y2820D01*
X2879Y2826D01*
X2873Y2831D01*
X2870Y2831D01*
D02*
G37*
G36*
X4170Y2872D02*
X4154D01*
X4143Y2870D01*
X4134Y2866D01*
X4126Y2860D01*
X4119Y2852D01*
X4115Y2842D01*
X4115Y2837D01*
X4170D01*
Y2872D01*
D02*
G37*
G36*
X4196D02*
X4180D01*
Y2837D01*
X4236D01*
X4235Y2842D01*
X4231Y2852D01*
X4225Y2860D01*
X4216Y2866D01*
X4207Y2870D01*
X4196Y2872D01*
D02*
G37*
%LPD*%
D10*
X2885Y4010D02*
D03*
X2465D02*
D03*
X2885Y3632D02*
D03*
X2465D02*
D03*
X2885Y3255D02*
D03*
X2465D02*
D03*
D11*
X2497Y2710D02*
D03*
X3982D02*
D03*
D12*
X3795Y3026D02*
D03*
Y2926D02*
D03*
X3695Y3026D02*
D03*
Y2926D02*
D03*
X3595Y3026D02*
D03*
Y2926D02*
D03*
X3495Y3026D02*
D03*
Y2926D02*
D03*
X3395Y3026D02*
D03*
X3800Y3969D02*
D03*
Y4069D02*
D03*
X3700Y3969D02*
D03*
Y4069D02*
D03*
X3600Y3969D02*
D03*
Y4069D02*
D03*
X3500Y3969D02*
D03*
Y4069D02*
D03*
X3400Y3969D02*
D03*
D13*
X3395Y2926D02*
D03*
X3400Y4069D02*
D03*
D14*
X4175Y4305D02*
D03*
Y2832D02*
D03*
D15*
X4205Y2915D02*
D03*
Y4222D02*
D03*
D23*
X3989Y2832D02*
X4175D01*
X3016Y3919D02*
X3633D01*
X3645Y3907D01*
X3780D01*
X3800Y3927D01*
Y3969D01*
X3506Y3372D02*
X3554Y3420D01*
X3746Y3392D02*
Y3425D01*
Y3392D02*
X3763Y3375D01*
X3801D01*
X3866Y3440D01*
X3892D01*
X3900Y3432D01*
Y3335D02*
Y3432D01*
X3878Y3313D02*
X3900Y3335D01*
X3035Y3791D02*
X3062D01*
X3181Y3672D01*
X3771D01*
X3831Y3612D01*
Y3550D02*
Y3612D01*
X3787Y3506D02*
X3831Y3550D01*
X3787Y3463D02*
Y3506D01*
Y3463D02*
X3826Y3425D01*
X3794D02*
X3826D01*
X3086Y3491D02*
X3559D01*
X3634Y3416D01*
X3650D01*
X2885Y3444D02*
X2997D01*
X3065Y3512D01*
X3635D01*
X3669Y3479D01*
X3161Y3334D02*
X3645D01*
X3154Y3341D02*
X3161Y3334D01*
X3087Y3341D02*
X3154D01*
X3360Y2926D02*
X3395D01*
X3313Y2973D02*
X3360Y2926D01*
X3302Y2973D02*
X3313D01*
X3462Y2735D02*
X3941D01*
X3689Y3372D02*
X3742Y3425D01*
X3746D01*
X3547Y4023D02*
X3600Y3969D01*
X3161Y4023D02*
X3547D01*
X3030Y4154D02*
X3161Y4023D01*
X3695Y3026D02*
X3818Y3149D01*
Y3184D01*
X3837Y3203D01*
X4024D01*
X4048Y3226D01*
Y3919D01*
X3851Y4116D02*
X4048Y3919D01*
X3773Y4116D02*
X3851D01*
X3754Y4096D02*
X3773Y4116D01*
X3754Y4023D02*
Y4096D01*
X3700Y3969D02*
X3754Y4023D01*
X2493Y3010D02*
X2500Y3017D01*
X3038D01*
X3051Y3030D01*
X3291D01*
X3349Y3088D01*
X3369D01*
X3500Y3219D01*
X3556Y3267D02*
X3561Y3262D01*
X3452Y3267D02*
X3556D01*
X3371Y3186D02*
X3452Y3267D01*
X3199Y3186D02*
X3371D01*
X3122Y3109D02*
X3199Y3186D01*
X3122Y3084D02*
Y3109D01*
X3875Y3613D02*
X4015Y3473D01*
Y3251D02*
Y3473D01*
X3983Y3219D02*
X4015Y3251D01*
X3802Y3219D02*
X3983D01*
X3642Y3059D02*
X3802Y3219D01*
X3642Y2904D02*
Y3059D01*
X3659Y2884D02*
X3695D01*
Y2926D01*
X3595Y3026D02*
Y3123D01*
X3707Y3235D01*
X3965D01*
X3999Y3269D01*
Y3444D01*
X3847Y3596D02*
X3999Y3444D01*
X3847Y3596D02*
Y3637D01*
X4032Y3822D01*
Y3903D01*
X3919Y4016D02*
X4032Y3903D01*
X3776Y4016D02*
X3919D01*
X3747Y3987D02*
X3776Y4016D01*
X3747Y3942D02*
Y3987D01*
X3728Y3923D02*
X3747Y3942D01*
X3659Y3923D02*
X3728D01*
X3649Y3933D02*
X3659Y3923D01*
X3649Y3933D02*
Y3960D01*
X3640Y3969D02*
X3649Y3960D01*
X3600Y3969D02*
X3640D01*
X2769Y3646D02*
Y3772D01*
X2562Y3439D02*
X2769Y3646D01*
X2317Y3439D02*
X2562D01*
X2704Y2762D02*
X3504D01*
X2678Y2788D02*
X2704Y2762D01*
X3695Y2926D02*
X3745Y2976D01*
Y3050D01*
X3834Y3139D01*
Y3152D01*
X3866Y3184D01*
X4032D01*
X4064Y3216D01*
Y4100D01*
X4032Y4132D02*
X4064Y4100D01*
X3763Y4132D02*
X4032D01*
X3700Y4069D02*
X3763Y4132D01*
X3557Y3180D02*
Y3187D01*
X3425Y3048D02*
X3557Y3180D01*
X3395Y3026D02*
X3425D01*
X2962Y2993D02*
X3260D01*
X3278Y3011D01*
X3303D01*
X3365Y3072D01*
X3412D01*
X3608Y3269D01*
X3983Y3296D02*
Y3406D01*
X3904Y3485D02*
X3983Y3406D01*
X3808Y3485D02*
X3904D01*
X3593Y3591D02*
X3705Y3479D01*
X3021Y3591D02*
X3593D01*
X2996Y3616D02*
X3021Y3591D01*
X2996Y3616D02*
Y3619D01*
X3610Y3173D02*
Y3232D01*
X3549Y3112D02*
X3610Y3173D01*
X3549Y3008D02*
Y3112D01*
X3516Y2975D02*
X3549Y3008D01*
X3354Y2975D02*
X3516D01*
X3334Y2995D02*
X3354Y2975D01*
X3292Y2995D02*
X3334D01*
X3795Y3026D02*
X3842Y2979D01*
X3811Y3350D02*
X3879Y3418D01*
X3280Y3350D02*
X3811D01*
X3264Y3366D02*
X3280Y3350D01*
X3065Y3366D02*
X3264D01*
X3027Y3328D02*
X3065Y3366D01*
X3027Y3108D02*
Y3328D01*
X2991Y3072D02*
X3027Y3108D01*
X2360Y3072D02*
X2991D01*
X2360D02*
Y3333D01*
X2354Y3339D02*
X2360Y3333D01*
X3855Y3141D02*
X4095D01*
X4259Y2977D01*
Y2769D02*
Y2977D01*
X4163Y2673D02*
X4259Y2769D01*
X2352Y2673D02*
X4163D01*
X2211Y2814D02*
X2352Y2673D01*
X2211Y2814D02*
Y3424D01*
X2249Y3462D01*
X2342D01*
X3259Y3313D02*
X3551D01*
X3002Y3056D02*
X3259Y3313D01*
X2344Y3056D02*
X3002D01*
X2258Y3142D02*
X2344Y3056D01*
X2258Y3142D02*
Y3271D01*
X3485Y3246D02*
X3531D01*
X3407Y3168D02*
X3485Y3246D01*
X3239Y3168D02*
X3407D01*
X3134Y3063D02*
X3239Y3168D01*
X3102Y3063D02*
X3134D01*
X3094Y3072D02*
X3102Y3063D01*
X3093Y3072D02*
X3094D01*
X3771Y3408D02*
X3775Y3404D01*
X3771Y3408D02*
Y3518D01*
X3815Y3562D01*
Y3601D01*
X3761Y3655D02*
X3815Y3601D01*
X3143Y3655D02*
X3761D01*
X3416Y3372D02*
X3506D01*
X3689D01*
X3841Y2815D02*
X3841Y2832D01*
X3842Y2979D01*
X3989Y2832D01*
X3841D02*
X3989D01*
X3955Y3269D02*
X3983Y3296D01*
X3608Y3269D02*
X3955D01*
X3645Y3334D02*
X3645Y3334D01*
X3645Y3315D02*
Y3334D01*
X3270Y2972D02*
X3292Y2995D01*
X2685Y2990D02*
X2707D01*
X2725Y2972D01*
X3270D01*
X2640Y2950D02*
X2742Y2848D01*
X2560Y2950D02*
X2640D01*
X2357Y2982D02*
X2653D01*
X2461Y2966D02*
X2647D01*
X2440Y2945D02*
X2461Y2966D01*
X2647D02*
X2704Y2909D01*
X2355Y2980D02*
X2357Y2982D01*
X2653D02*
X2689Y2946D01*
X2555Y2945D02*
X2560Y2950D01*
X2385Y2960D02*
X2644Y2701D01*
X3409D01*
X2689Y2946D02*
X3311D01*
X2794Y2812D02*
X2865D01*
X2704Y2909D02*
X3325D01*
X2990Y2879D02*
X3295D01*
X3826Y2832D02*
X3841D01*
X2794Y2812D02*
X2798Y2816D01*
X3811D02*
X3826Y2832D01*
X3311Y2946D02*
X3373Y2884D01*
X3453D01*
X3495Y2926D01*
X3325Y2909D02*
X3367Y2868D01*
X3537D01*
X3595Y2926D01*
X3295Y2879D02*
X3323Y2851D01*
X3589D01*
X3642Y2904D01*
X2742Y2848D02*
X3299D01*
X3314Y2832D01*
X3607D01*
X3659Y2884D01*
X2634Y2779D02*
X2667Y2812D01*
X2794D01*
X3820Y2790D02*
X3830Y2800D01*
X2805Y2790D02*
X3820D01*
X3065Y2815D02*
X3066Y2816D01*
X3840D02*
X3841Y2815D01*
X3066Y2816D02*
X3840D01*
X4227Y2791D02*
X4233Y2785D01*
X3830Y2800D02*
X3839Y2791D01*
X4227D01*
X3425Y3026D02*
Y3048D01*
X2798Y2816D02*
X3811D01*
D24*
X2885Y3255D02*
Y3297D01*
Y3632D02*
Y3673D01*
X3041D02*
X3090Y3624D01*
X3708D01*
X2465Y4010D02*
Y4109D01*
Y3165D02*
Y3255D01*
X2885Y3608D02*
Y3632D01*
X3855Y3710D02*
X4009Y3864D01*
X3396Y3710D02*
X3855D01*
X3287Y3819D02*
X3396Y3710D01*
X2680Y3819D02*
X3287D01*
X2621Y3760D02*
X2680Y3819D01*
X2465Y3632D02*
Y3704D01*
X3418Y3272D02*
X3434Y3288D01*
X3259Y3272D02*
X3418D01*
X3022Y3036D02*
X3259Y3272D01*
X2263Y3036D02*
X3022D01*
X2231Y3067D02*
X2263Y3036D01*
X2231Y3067D02*
Y3279D01*
X2330Y3379D01*
X2465Y3255D02*
Y3379D01*
X3359Y3894D02*
X3515Y3738D01*
X2885Y3894D02*
Y4010D01*
X3496Y3398D02*
X3542Y3444D01*
X3578D01*
X3629Y3392D01*
X3673D01*
X3752Y3471D01*
Y3530D01*
X3790Y3568D01*
Y3585D01*
X2885Y3297D02*
Y3392D01*
Y3398D01*
X3931Y3288D02*
X3944Y3301D01*
X3434Y3288D02*
X3931D01*
X2837Y3345D02*
X2885Y3297D01*
X2735Y3345D02*
X2837D01*
X2465Y3704D02*
X2486Y3725D01*
X2620D01*
X2815Y3940D02*
X2885Y4010D01*
X2730Y3910D02*
X2845D01*
X2465Y4109D02*
X2622D01*
X2465Y3165D02*
X2624D01*
X2330Y3379D02*
X2465D01*
X2815Y3940D02*
X2845Y3910D01*
X2885Y3894D02*
X3359D01*
X2775Y3608D02*
X2885D01*
Y3673D02*
X3041D01*
X2885Y3392D02*
X3297D01*
X2885Y3398D02*
X3496D01*
D25*
X3708Y3624D02*
D03*
X3297Y3392D02*
D03*
X3790Y3585D02*
D03*
X2622Y4109D02*
D03*
X2624Y3165D02*
D03*
X2775Y3608D02*
D03*
X4009Y3864D02*
D03*
X2621Y3760D02*
D03*
X3944Y3301D02*
D03*
X3515Y3738D02*
D03*
X2735Y3345D02*
D03*
X2620Y3725D02*
D03*
X2730Y3910D02*
D03*
D26*
X3554Y3420D02*
D03*
X3794Y3425D02*
D03*
X3086Y3491D02*
D03*
X3650Y3416D02*
D03*
X3669Y3479D02*
D03*
X3416Y3372D02*
D03*
X3746Y3425D02*
D03*
X3875Y3613D02*
D03*
X3808Y3485D02*
D03*
X3705Y3479D02*
D03*
X2996Y3619D02*
D03*
X3879Y3418D02*
D03*
X3775Y3404D02*
D03*
X3143Y3655D02*
D03*
X3016Y3919D02*
D03*
X3878Y3313D02*
D03*
X3035Y3791D02*
D03*
X2885Y3444D02*
D03*
X3087Y3341D02*
D03*
X3302Y2973D02*
D03*
X3409Y2701D02*
D03*
X3941Y2735D02*
D03*
X3462D02*
D03*
X3030Y4154D02*
D03*
X2634Y2779D02*
D03*
X2865Y2812D02*
D03*
X2493Y3010D02*
D03*
X3500Y3219D02*
D03*
X3561Y3262D02*
D03*
X3122Y3084D02*
D03*
X2769Y3772D02*
D03*
X2317Y3439D02*
D03*
X4233Y2785D02*
D03*
X3504Y2762D02*
D03*
X2678Y2788D02*
D03*
X3557Y3187D02*
D03*
X2962Y2993D02*
D03*
X3610Y3232D02*
D03*
X2354Y3339D02*
D03*
X3855Y3141D02*
D03*
X2342Y3462D02*
D03*
X3551Y3313D02*
D03*
X2258Y3271D02*
D03*
X3531Y3246D02*
D03*
X3093Y3072D02*
D03*
X3645Y3315D02*
D03*
X2355Y2980D02*
D03*
X2385Y2960D02*
D03*
X2440Y2945D02*
D03*
X2555D02*
D03*
X2685Y2990D02*
D03*
X2990Y2879D02*
D03*
X3065Y2815D02*
D03*
X2805Y2790D02*
D03*
M02*
