G04 Layer_Color=32896*
%FSLAX23Y23*%
%MOIN*%
G70*
G01*
G75*
%ADD23C,0.010*%
%ADD31C,0.008*%
%ADD32C,0.006*%
%ADD48R,1.199X0.075*%
%ADD49R,1.199X0.141*%
%ADD50R,1.199X0.084*%
%ADD51R,0.097X0.075*%
%ADD52R,0.097X0.141*%
%ADD53R,0.097X0.084*%
%ADD54R,0.346X0.066*%
%ADD55R,0.342X0.075*%
%ADD56R,0.098X0.075*%
G36*
X2700Y3785D02*
X2695D01*
X2694Y3785D01*
X2694Y3785D01*
X2694Y3785D01*
X2693Y3785D01*
X2693Y3785D01*
X2693Y3785D01*
X2693Y3785D01*
X2692Y3785D01*
X2692Y3784D01*
X2692Y3784D01*
X2692Y3784D01*
X2692Y3784D01*
X2692Y3784D01*
X2692Y3784D01*
X2692D01*
X2691Y3784D01*
X2691Y3784D01*
X2691Y3784D01*
X2691Y3783D01*
X2691Y3783D01*
X2691Y3783D01*
X2690Y3782D01*
X2690Y3782D01*
X2690Y3782D01*
X2690Y3782D01*
Y3782D01*
Y3782D01*
Y3782D01*
X2690Y3781D01*
X2690Y3781D01*
X2690Y3781D01*
X2691Y3780D01*
X2691Y3780D01*
X2691Y3780D01*
X2691Y3779D01*
X2691Y3779D01*
X2692Y3779D01*
X2692Y3779D01*
X2692Y3779D01*
X2692Y3779D01*
X2692Y3779D01*
X2692Y3779D01*
X2693Y3778D01*
X2693Y3778D01*
X2694Y3778D01*
X2694Y3778D01*
X2695Y3778D01*
X2695Y3778D01*
X2695D01*
X2695Y3778D01*
X2696D01*
X2696Y3778D01*
X2697Y3778D01*
X2697Y3778D01*
X2697Y3778D01*
X2698Y3778D01*
X2698D01*
X2698Y3778D01*
X2698D01*
X2698Y3778D01*
X2699Y3778D01*
X2699Y3778D01*
X2699Y3778D01*
X2700Y3778D01*
X2700Y3779D01*
X2700Y3779D01*
X2700D01*
Y3775D01*
X2700Y3775D01*
X2699Y3775D01*
X2699Y3775D01*
X2699D01*
X2699Y3775D01*
X2699D01*
X2699Y3775D01*
X2698Y3775D01*
X2698D01*
X2698Y3775D01*
X2698Y3775D01*
X2698D01*
X2697Y3775D01*
X2697Y3775D01*
X2697D01*
X2697Y3775D01*
X2697D01*
X2696Y3775D01*
X2696D01*
X2696Y3775D01*
X2696D01*
X2695Y3775D01*
X2694Y3775D01*
X2694Y3775D01*
X2693Y3775D01*
X2693Y3775D01*
X2693Y3775D01*
X2693Y3775D01*
X2692Y3775D01*
X2692Y3775D01*
X2692Y3775D01*
X2692Y3775D01*
X2692Y3775D01*
X2692D01*
X2691Y3775D01*
X2691Y3776D01*
X2690Y3776D01*
X2690Y3776D01*
X2689Y3776D01*
X2689Y3776D01*
X2689Y3776D01*
X2689Y3776D01*
X2689Y3776D01*
X2689Y3776D01*
X2689Y3777D01*
X2689D01*
X2688Y3777D01*
X2688Y3777D01*
X2688Y3778D01*
X2687Y3778D01*
X2687Y3778D01*
X2687Y3779D01*
X2687Y3779D01*
X2687Y3779D01*
X2687Y3779D01*
Y3779D01*
X2687Y3779D01*
X2686Y3780D01*
X2686Y3780D01*
X2686Y3781D01*
X2686Y3781D01*
X2686Y3781D01*
X2686Y3781D01*
X2686Y3782D01*
Y3782D01*
Y3782D01*
Y3782D01*
Y3782D01*
X2686Y3783D01*
X2686Y3783D01*
X2686Y3784D01*
X2686Y3784D01*
X2686Y3784D01*
X2687Y3784D01*
X2687Y3784D01*
X2687Y3785D01*
X2687Y3785D01*
X2687Y3785D01*
X2687Y3785D01*
X2687Y3785D01*
Y3785D01*
X2687Y3785D01*
X2687Y3786D01*
X2688Y3786D01*
X2688Y3786D01*
X2688Y3787D01*
X2688Y3787D01*
X2688Y3787D01*
X2689Y3787D01*
X2689Y3787D01*
X2689D01*
X2689Y3787D01*
X2689Y3787D01*
X2690Y3788D01*
X2690Y3788D01*
X2691Y3788D01*
X2691Y3788D01*
X2691Y3788D01*
X2691Y3788D01*
X2691D01*
X2691Y3788D01*
X2691D01*
X2692Y3788D01*
X2692Y3788D01*
X2693Y3788D01*
X2693Y3788D01*
X2694Y3788D01*
X2694D01*
X2694Y3788D01*
X2696D01*
Y3793D01*
X2687D01*
Y3796D01*
X2700D01*
Y3785D01*
D02*
G37*
G36*
X2678Y3775D02*
X2672D01*
X2666Y3796D01*
X2670D01*
X2674Y3784D01*
X2675Y3779D01*
X2676Y3784D01*
X2680Y3796D01*
X2684D01*
X2678Y3775D01*
D02*
G37*
G36*
X2738Y3112D02*
X2738D01*
X2738Y3112D01*
X2738D01*
X2738Y3112D01*
X2738D01*
X2739Y3112D01*
X2739Y3112D01*
X2739Y3112D01*
X2740Y3112D01*
X2740Y3112D01*
X2740Y3112D01*
X2740D01*
X2740Y3111D01*
X2741Y3111D01*
X2741Y3111D01*
X2741Y3111D01*
X2741Y3111D01*
X2741Y3111D01*
X2741D01*
X2742Y3111D01*
X2742Y3111D01*
X2742Y3111D01*
X2742Y3111D01*
X2742Y3111D01*
X2743Y3111D01*
X2743Y3111D01*
Y3107D01*
X2742Y3108D01*
X2742Y3108D01*
X2741Y3108D01*
X2741Y3108D01*
X2740Y3108D01*
X2740Y3108D01*
X2740Y3108D01*
X2740Y3108D01*
X2740Y3108D01*
X2740D01*
X2740Y3108D01*
X2739Y3108D01*
X2739Y3108D01*
X2738Y3108D01*
X2738D01*
X2738Y3108D01*
X2737D01*
X2737Y3108D01*
X2736Y3108D01*
X2736Y3108D01*
X2736Y3108D01*
X2735Y3108D01*
X2735Y3108D01*
X2735Y3108D01*
X2735Y3108D01*
X2735Y3107D01*
X2734Y3107D01*
X2734Y3107D01*
X2734Y3106D01*
X2734Y3106D01*
X2734Y3106D01*
X2734Y3106D01*
Y3106D01*
Y3106D01*
Y3106D01*
X2734Y3105D01*
X2734Y3105D01*
X2734Y3105D01*
X2734Y3105D01*
X2734Y3105D01*
X2734Y3105D01*
Y3104D01*
X2734Y3104D01*
X2734Y3104D01*
X2735Y3104D01*
X2735Y3104D01*
X2735Y3104D01*
X2735Y3104D01*
X2735Y3104D01*
X2735Y3103D01*
X2735Y3103D01*
X2735Y3103D01*
X2736Y3103D01*
X2736Y3103D01*
X2736Y3103D01*
X2736Y3103D01*
X2736Y3103D01*
X2736Y3103D01*
X2737Y3103D01*
X2737Y3103D01*
X2737Y3103D01*
X2738Y3103D01*
X2738D01*
X2738Y3103D01*
X2741D01*
Y3100D01*
X2738D01*
X2737Y3099D01*
X2737Y3099D01*
X2737Y3099D01*
X2736Y3099D01*
X2736Y3099D01*
X2736Y3099D01*
X2736Y3099D01*
X2736Y3099D01*
X2735Y3099D01*
X2735Y3099D01*
X2735Y3099D01*
X2735Y3099D01*
X2734Y3099D01*
X2734Y3099D01*
X2734Y3099D01*
X2734Y3099D01*
X2734Y3098D01*
X2734Y3098D01*
X2734Y3098D01*
X2733Y3098D01*
X2733Y3098D01*
X2733Y3098D01*
X2733Y3098D01*
X2733Y3097D01*
X2733Y3097D01*
X2733Y3097D01*
X2733Y3097D01*
X2733Y3097D01*
X2733Y3097D01*
Y3096D01*
Y3096D01*
X2733Y3096D01*
X2733Y3096D01*
X2733Y3096D01*
X2733Y3095D01*
X2733Y3095D01*
X2733Y3095D01*
X2733Y3095D01*
X2733Y3095D01*
X2733Y3095D01*
X2734Y3095D01*
X2734Y3094D01*
X2734Y3094D01*
X2734Y3094D01*
X2734Y3094D01*
X2734Y3094D01*
X2734Y3094D01*
X2734Y3094D01*
X2735Y3094D01*
X2735Y3094D01*
X2735Y3093D01*
X2735Y3093D01*
X2736Y3093D01*
X2736Y3093D01*
X2736Y3093D01*
X2736D01*
X2736Y3093D01*
X2737Y3093D01*
X2737Y3093D01*
X2737Y3093D01*
X2738D01*
X2738Y3093D01*
X2739D01*
X2739Y3093D01*
X2740Y3093D01*
X2740Y3093D01*
X2740D01*
X2740Y3093D01*
X2741D01*
X2741Y3093D01*
X2741D01*
X2741Y3093D01*
X2742Y3093D01*
X2742Y3093D01*
X2742Y3093D01*
X2743Y3093D01*
X2743Y3093D01*
X2743Y3093D01*
X2743D01*
Y3090D01*
X2743Y3090D01*
X2742Y3090D01*
X2742Y3090D01*
X2742D01*
X2742Y3090D01*
X2742D01*
X2742Y3090D01*
X2742Y3090D01*
X2741D01*
X2741Y3090D01*
X2741D01*
X2740Y3090D01*
X2740Y3090D01*
X2740D01*
X2740Y3090D01*
X2740D01*
X2739Y3090D01*
X2739D01*
X2739Y3090D01*
X2739D01*
X2738Y3090D01*
X2737Y3090D01*
X2737Y3090D01*
X2736Y3090D01*
X2736Y3090D01*
X2736Y3090D01*
X2735Y3090D01*
X2735Y3090D01*
X2735Y3090D01*
X2735Y3090D01*
X2735Y3090D01*
X2734Y3090D01*
X2734Y3090D01*
X2734Y3090D01*
X2734D01*
X2734Y3090D01*
X2733Y3091D01*
X2732Y3091D01*
X2732Y3091D01*
X2732Y3091D01*
X2732Y3091D01*
X2731Y3091D01*
X2731Y3091D01*
X2731Y3091D01*
X2731Y3091D01*
X2731Y3092D01*
X2731D01*
X2731Y3092D01*
X2730Y3092D01*
X2730Y3093D01*
X2730Y3093D01*
X2730Y3093D01*
X2729Y3093D01*
X2729Y3094D01*
X2729Y3094D01*
X2729Y3094D01*
Y3094D01*
X2729Y3094D01*
X2729Y3095D01*
X2729Y3095D01*
X2729Y3096D01*
X2729Y3096D01*
Y3096D01*
X2729Y3096D01*
Y3096D01*
Y3096D01*
Y3096D01*
Y3097D01*
X2729Y3097D01*
X2729Y3097D01*
X2729Y3098D01*
X2729Y3098D01*
X2729Y3098D01*
X2729Y3098D01*
X2729Y3098D01*
X2729Y3098D01*
X2729Y3099D01*
X2729Y3099D01*
X2729Y3099D01*
X2730Y3099D01*
X2730Y3100D01*
X2730Y3100D01*
X2730Y3100D01*
X2730Y3100D01*
X2730Y3100D01*
X2730Y3100D01*
X2731Y3100D01*
X2731Y3101D01*
X2731Y3101D01*
X2731Y3101D01*
X2731Y3101D01*
X2731Y3101D01*
X2732Y3101D01*
X2732Y3101D01*
X2732Y3101D01*
X2733Y3101D01*
X2733Y3101D01*
X2733Y3101D01*
X2733Y3101D01*
X2733D01*
X2733Y3102D01*
X2732Y3102D01*
X2732Y3102D01*
X2731Y3103D01*
X2731Y3103D01*
X2731Y3103D01*
X2731Y3103D01*
X2731Y3103D01*
X2731Y3103D01*
Y3103D01*
X2730Y3104D01*
X2730Y3104D01*
X2730Y3105D01*
X2730Y3105D01*
X2730Y3105D01*
X2730Y3106D01*
X2730Y3106D01*
Y3106D01*
X2730Y3106D01*
Y3106D01*
Y3106D01*
Y3106D01*
X2730Y3107D01*
X2730Y3107D01*
X2730Y3108D01*
X2730Y3108D01*
X2730Y3108D01*
X2730Y3108D01*
X2730Y3109D01*
X2730Y3109D01*
X2731Y3109D01*
X2731Y3109D01*
X2731Y3110D01*
X2731Y3110D01*
X2731Y3110D01*
X2732Y3110D01*
X2732Y3110D01*
X2732Y3110D01*
X2732Y3111D01*
X2732Y3111D01*
X2733Y3111D01*
X2733Y3111D01*
X2734Y3111D01*
X2734Y3111D01*
X2734Y3111D01*
X2734Y3111D01*
X2734Y3111D01*
X2734D01*
X2734Y3111D01*
X2735Y3112D01*
X2736Y3112D01*
X2736Y3112D01*
X2736Y3112D01*
X2737D01*
X2737Y3112D01*
X2738D01*
X2738Y3112D01*
D02*
G37*
G36*
X2775D02*
X2775D01*
X2775Y3112D01*
X2775D01*
X2775Y3112D01*
X2775D01*
X2776Y3112D01*
X2776Y3112D01*
X2776Y3112D01*
X2776Y3112D01*
X2777Y3112D01*
X2777Y3112D01*
X2777D01*
X2777Y3111D01*
X2777Y3111D01*
X2778Y3111D01*
X2778Y3111D01*
X2778Y3111D01*
X2778Y3111D01*
X2778D01*
X2779Y3111D01*
X2779Y3111D01*
X2779Y3111D01*
X2779Y3111D01*
X2779Y3111D01*
X2779Y3111D01*
X2779Y3111D01*
Y3107D01*
X2779Y3108D01*
X2778Y3108D01*
X2778Y3108D01*
X2778Y3108D01*
X2777Y3108D01*
X2777Y3108D01*
X2777Y3108D01*
X2777Y3108D01*
X2777Y3108D01*
X2777D01*
X2776Y3108D01*
X2776Y3108D01*
X2776Y3108D01*
X2775Y3108D01*
X2775D01*
X2775Y3108D01*
X2774D01*
X2774Y3108D01*
X2773Y3108D01*
X2773Y3108D01*
X2772Y3108D01*
X2772Y3108D01*
X2772Y3108D01*
X2772Y3108D01*
X2772Y3108D01*
X2771Y3107D01*
X2771Y3107D01*
X2771Y3107D01*
X2771Y3106D01*
X2771Y3106D01*
X2771Y3106D01*
X2771Y3106D01*
Y3106D01*
Y3106D01*
Y3106D01*
X2771Y3105D01*
X2771Y3105D01*
X2771Y3105D01*
X2771Y3105D01*
X2771Y3105D01*
X2771Y3105D01*
Y3104D01*
X2771Y3104D01*
X2771Y3104D01*
X2771Y3104D01*
X2771Y3104D01*
X2772Y3104D01*
X2772Y3104D01*
X2772Y3104D01*
X2772Y3103D01*
X2772Y3103D01*
X2772Y3103D01*
X2772Y3103D01*
X2773Y3103D01*
X2773Y3103D01*
X2773Y3103D01*
X2773Y3103D01*
X2773Y3103D01*
X2773Y3103D01*
X2774Y3103D01*
X2774Y3103D01*
X2775Y3103D01*
X2775D01*
X2775Y3103D01*
X2777D01*
Y3100D01*
X2775D01*
X2774Y3099D01*
X2774Y3099D01*
X2773Y3099D01*
X2773Y3099D01*
X2773Y3099D01*
X2773Y3099D01*
X2773Y3099D01*
X2772Y3099D01*
X2772Y3099D01*
X2772Y3099D01*
X2772Y3099D01*
X2771Y3099D01*
X2771Y3099D01*
X2771Y3099D01*
X2771Y3099D01*
X2771Y3099D01*
X2771Y3098D01*
X2770Y3098D01*
X2770Y3098D01*
X2770Y3098D01*
X2770Y3098D01*
X2770Y3098D01*
X2770Y3098D01*
X2770Y3097D01*
X2770Y3097D01*
X2770Y3097D01*
X2770Y3097D01*
X2770Y3097D01*
X2770Y3097D01*
Y3096D01*
Y3096D01*
X2770Y3096D01*
X2770Y3096D01*
X2770Y3096D01*
X2770Y3095D01*
X2770Y3095D01*
X2770Y3095D01*
X2770Y3095D01*
X2770Y3095D01*
X2770Y3095D01*
X2770Y3095D01*
X2771Y3094D01*
X2771Y3094D01*
X2771Y3094D01*
X2771Y3094D01*
X2771Y3094D01*
X2771Y3094D01*
X2771Y3094D01*
X2772Y3094D01*
X2772Y3094D01*
X2772Y3093D01*
X2772Y3093D01*
X2773Y3093D01*
X2773Y3093D01*
X2773Y3093D01*
X2773D01*
X2773Y3093D01*
X2773Y3093D01*
X2774Y3093D01*
X2774Y3093D01*
X2775D01*
X2775Y3093D01*
X2776D01*
X2776Y3093D01*
X2776Y3093D01*
X2777Y3093D01*
X2777D01*
X2777Y3093D01*
X2777D01*
X2778Y3093D01*
X2778D01*
X2778Y3093D01*
X2779Y3093D01*
X2779Y3093D01*
X2779Y3093D01*
X2780Y3093D01*
X2780Y3093D01*
X2780Y3093D01*
X2780D01*
Y3090D01*
X2780Y3090D01*
X2779Y3090D01*
X2779Y3090D01*
X2779D01*
X2779Y3090D01*
X2779D01*
X2779Y3090D01*
X2778Y3090D01*
X2778D01*
X2778Y3090D01*
X2778D01*
X2777Y3090D01*
X2777Y3090D01*
X2777D01*
X2777Y3090D01*
X2777D01*
X2776Y3090D01*
X2776D01*
X2776Y3090D01*
X2775D01*
X2774Y3090D01*
X2774Y3090D01*
X2774Y3090D01*
X2773Y3090D01*
X2773Y3090D01*
X2773Y3090D01*
X2772Y3090D01*
X2772Y3090D01*
X2772Y3090D01*
X2772Y3090D01*
X2771Y3090D01*
X2771Y3090D01*
X2771Y3090D01*
X2771Y3090D01*
X2771D01*
X2770Y3090D01*
X2770Y3091D01*
X2769Y3091D01*
X2769Y3091D01*
X2769Y3091D01*
X2768Y3091D01*
X2768Y3091D01*
X2768Y3091D01*
X2768Y3091D01*
X2768Y3091D01*
X2768Y3092D01*
X2768D01*
X2768Y3092D01*
X2767Y3092D01*
X2767Y3093D01*
X2767Y3093D01*
X2766Y3093D01*
X2766Y3093D01*
X2766Y3094D01*
X2766Y3094D01*
X2766Y3094D01*
Y3094D01*
X2766Y3094D01*
X2766Y3095D01*
X2766Y3095D01*
X2766Y3096D01*
X2766Y3096D01*
Y3096D01*
X2766Y3096D01*
Y3096D01*
Y3096D01*
Y3096D01*
Y3097D01*
X2766Y3097D01*
X2766Y3097D01*
X2766Y3098D01*
X2766Y3098D01*
X2766Y3098D01*
X2766Y3098D01*
X2766Y3098D01*
X2766Y3098D01*
X2766Y3099D01*
X2766Y3099D01*
X2766Y3099D01*
X2766Y3099D01*
X2767Y3100D01*
X2767Y3100D01*
X2767Y3100D01*
X2767Y3100D01*
X2767Y3100D01*
X2767Y3100D01*
X2768Y3100D01*
X2768Y3101D01*
X2768Y3101D01*
X2768Y3101D01*
X2768Y3101D01*
X2768Y3101D01*
X2769Y3101D01*
X2769Y3101D01*
X2769Y3101D01*
X2769Y3101D01*
X2770Y3101D01*
X2770Y3101D01*
X2770Y3101D01*
X2770D01*
X2770Y3102D01*
X2769Y3102D01*
X2769Y3102D01*
X2768Y3103D01*
X2768Y3103D01*
X2768Y3103D01*
X2768Y3103D01*
X2768Y3103D01*
X2768Y3103D01*
Y3103D01*
X2767Y3104D01*
X2767Y3104D01*
X2767Y3105D01*
X2767Y3105D01*
X2767Y3105D01*
X2767Y3106D01*
X2767Y3106D01*
Y3106D01*
X2767Y3106D01*
Y3106D01*
Y3106D01*
Y3106D01*
X2767Y3107D01*
X2767Y3107D01*
X2767Y3108D01*
X2767Y3108D01*
X2767Y3108D01*
X2767Y3108D01*
X2767Y3109D01*
X2767Y3109D01*
X2767Y3109D01*
X2768Y3109D01*
X2768Y3110D01*
X2768Y3110D01*
X2768Y3110D01*
X2768Y3110D01*
X2769Y3110D01*
X2769Y3110D01*
X2769Y3111D01*
X2769Y3111D01*
X2770Y3111D01*
X2770Y3111D01*
X2770Y3111D01*
X2771Y3111D01*
X2771Y3111D01*
X2771Y3111D01*
X2771Y3111D01*
X2771D01*
X2771Y3111D01*
X2772Y3112D01*
X2772Y3112D01*
X2773Y3112D01*
X2773Y3112D01*
X2773D01*
X2774Y3112D01*
X2774D01*
X2775Y3112D01*
D02*
G37*
G36*
X4193Y3364D02*
X3726D01*
Y3439D01*
X4193D01*
Y3364D01*
D02*
G37*
G36*
Y3449D02*
X3730D01*
Y3515D01*
X4193D01*
Y3449D01*
D02*
G37*
G36*
Y3515D02*
X3482D01*
Y3590D01*
X4193D01*
Y3515D01*
D02*
G37*
G36*
Y3600D02*
X3384D01*
Y3684D01*
X4193D01*
Y3600D01*
D02*
G37*
G36*
X2734Y3845D02*
X2728D01*
X2722Y3866D01*
X2726D01*
X2729Y3854D01*
X2731Y3849D01*
X2732Y3854D01*
X2735Y3866D01*
X2740D01*
X2734Y3845D01*
D02*
G37*
G36*
X3011Y3985D02*
X3014Y3988D01*
X3014Y3988D01*
X3014Y3989D01*
X3015Y3989D01*
X3015Y3989D01*
X3015Y3990D01*
X3016Y3990D01*
X3016Y3990D01*
X3016Y3990D01*
X3016D01*
X3016Y3990D01*
X3017Y3991D01*
X3017Y3991D01*
X3017Y3991D01*
X3018Y3991D01*
X3018Y3991D01*
X3018Y3991D01*
X3018Y3992D01*
X3018D01*
X3018Y3992D01*
X3019Y3992D01*
X3019Y3992D01*
X3019Y3992D01*
X3020Y3992D01*
X3020Y3992D01*
X3020Y3992D01*
X3020Y3992D01*
X3020Y3993D01*
X3020D01*
X3020Y3993D01*
X3021Y3993D01*
X3021Y3993D01*
X3022Y3993D01*
X3022Y3993D01*
X3022Y3993D01*
X3022D01*
X3023Y3993D01*
X3024Y3993D01*
X3024Y3993D01*
X3024Y3993D01*
X3025Y3993D01*
X3025Y3992D01*
X3025Y3992D01*
X3025Y3992D01*
X3025Y3992D01*
X3025Y3992D01*
X3025D01*
X3026Y3992D01*
X3026Y3992D01*
X3026Y3992D01*
X3027Y3991D01*
X3027Y3991D01*
X3027Y3991D01*
X3027Y3991D01*
X3027Y3991D01*
X3027Y3991D01*
X3028Y3990D01*
X3028Y3990D01*
X3028Y3990D01*
X3028Y3989D01*
X3028Y3989D01*
X3028Y3989D01*
X3028Y3989D01*
X3028Y3989D01*
Y3989D01*
X3028Y3988D01*
X3029Y3988D01*
X3029Y3987D01*
X3029Y3987D01*
X3029Y3986D01*
Y3986D01*
X3029Y3986D01*
Y3986D01*
Y3986D01*
Y3986D01*
Y3986D01*
X3029Y3985D01*
X3029Y3984D01*
X3028Y3984D01*
X3028Y3984D01*
X3028Y3983D01*
X3028Y3983D01*
X3028Y3983D01*
X3028Y3983D01*
X3028Y3982D01*
X3028Y3982D01*
X3028Y3982D01*
X3028Y3982D01*
Y3982D01*
X3028Y3981D01*
X3027Y3981D01*
X3027Y3980D01*
X3027Y3980D01*
X3026Y3980D01*
X3026Y3980D01*
X3026Y3979D01*
X3026Y3979D01*
X3026Y3979D01*
X3026Y3979D01*
X3026Y3979D01*
X3026Y3979D01*
X3023Y3981D01*
X3024Y3981D01*
X3024Y3982D01*
X3024Y3982D01*
X3024Y3982D01*
X3024Y3983D01*
X3025Y3983D01*
X3025Y3983D01*
X3025Y3983D01*
Y3983D01*
X3025Y3984D01*
X3025Y3984D01*
X3025Y3984D01*
X3025Y3985D01*
X3025Y3985D01*
X3025Y3985D01*
Y3985D01*
Y3985D01*
Y3985D01*
Y3985D01*
Y3986D01*
X3025Y3986D01*
X3025Y3986D01*
X3025Y3986D01*
X3025Y3987D01*
X3025Y3987D01*
X3025Y3987D01*
X3025Y3987D01*
X3025Y3987D01*
X3025Y3987D01*
X3025Y3987D01*
X3025Y3988D01*
X3024Y3988D01*
X3024Y3988D01*
X3024Y3988D01*
X3024Y3988D01*
X3024Y3988D01*
X3024Y3988D01*
X3024Y3988D01*
X3023Y3988D01*
X3023Y3988D01*
X3023D01*
X3023Y3988D01*
X3023Y3989D01*
X3023Y3989D01*
X3022Y3989D01*
X3022D01*
X3022Y3989D01*
X3021Y3989D01*
X3021Y3988D01*
X3021Y3988D01*
X3021Y3988D01*
X3021Y3988D01*
X3021D01*
X3020Y3988D01*
X3020Y3988D01*
X3020Y3988D01*
X3020Y3988D01*
X3020Y3988D01*
X3019Y3988D01*
X3019Y3988D01*
X3019Y3988D01*
X3019Y3988D01*
X3019Y3987D01*
X3018Y3987D01*
X3018Y3987D01*
X3018Y3987D01*
X3018Y3987D01*
X3017Y3986D01*
X3017Y3986D01*
X3017D01*
X3017Y3986D01*
X3017Y3986D01*
X3016Y3985D01*
X3016Y3985D01*
X3015Y3985D01*
X3015Y3985D01*
X3015Y3984D01*
X3015Y3984D01*
X3015Y3984D01*
X3015Y3984D01*
X3015Y3984D01*
X3010Y3979D01*
X3007D01*
Y3994D01*
X3011D01*
Y3985D01*
D02*
G37*
G36*
X3014Y4028D02*
X3015Y4028D01*
X3015Y4028D01*
X3015Y4027D01*
X3016Y4027D01*
X3016Y4027D01*
X3016Y4027D01*
X3016Y4027D01*
X3016Y4027D01*
X3017Y4026D01*
X3017Y4026D01*
X3017Y4026D01*
X3017Y4026D01*
X3017Y4026D01*
X3017Y4025D01*
X3017Y4025D01*
Y4025D01*
X3017Y4026D01*
X3017Y4026D01*
X3017Y4026D01*
X3018Y4027D01*
X3018Y4027D01*
X3018Y4027D01*
X3018Y4027D01*
X3018Y4027D01*
X3018Y4027D01*
X3018Y4028D01*
X3018Y4028D01*
X3018Y4028D01*
X3019Y4028D01*
X3019Y4029D01*
X3019Y4029D01*
X3019Y4029D01*
X3019Y4029D01*
X3019Y4029D01*
X3020Y4029D01*
X3020Y4029D01*
X3020Y4029D01*
X3020Y4030D01*
X3020Y4030D01*
X3020Y4030D01*
X3021Y4030D01*
X3021Y4030D01*
X3021Y4030D01*
X3022Y4030D01*
X3022Y4030D01*
X3022Y4030D01*
X3022D01*
X3023Y4030D01*
X3024Y4030D01*
X3024Y4030D01*
X3024Y4030D01*
X3025Y4030D01*
X3025Y4030D01*
X3025Y4029D01*
X3025Y4029D01*
X3025Y4029D01*
X3025Y4029D01*
X3025D01*
X3026Y4029D01*
X3026Y4029D01*
X3026Y4029D01*
X3027Y4028D01*
X3027Y4028D01*
X3027Y4028D01*
X3027Y4028D01*
X3027Y4028D01*
Y4028D01*
X3027Y4027D01*
X3028Y4027D01*
X3028Y4027D01*
X3028Y4026D01*
X3028Y4026D01*
X3028Y4026D01*
X3028Y4026D01*
X3028Y4026D01*
Y4025D01*
X3028Y4025D01*
Y4025D01*
X3028Y4025D01*
X3028Y4024D01*
X3028Y4024D01*
X3028Y4023D01*
X3028Y4023D01*
Y4023D01*
X3028Y4023D01*
Y4022D01*
Y4022D01*
Y4022D01*
Y4022D01*
Y4022D01*
Y4016D01*
X3007D01*
Y4020D01*
X3016D01*
Y4021D01*
X3016Y4021D01*
X3016Y4021D01*
X3016Y4022D01*
X3016Y4022D01*
X3016Y4022D01*
X3015Y4022D01*
X3015Y4022D01*
X3015Y4023D01*
X3015Y4023D01*
X3015Y4023D01*
X3015Y4023D01*
X3014Y4023D01*
X3014Y4024D01*
X3014Y4024D01*
X3014Y4024D01*
X3014Y4024D01*
X3014D01*
X3007Y4027D01*
Y4031D01*
X3014Y4028D01*
D02*
G37*
G36*
X3020Y4013D02*
X3020Y4013D01*
X3021Y4013D01*
X3021Y4013D01*
X3021Y4013D01*
X3021Y4013D01*
X3022Y4012D01*
X3022Y4012D01*
X3022Y4012D01*
X3022Y4012D01*
X3022Y4012D01*
X3023Y4012D01*
X3023Y4012D01*
X3023Y4012D01*
X3023D01*
X3023Y4012D01*
X3023Y4012D01*
X3023Y4011D01*
X3023Y4011D01*
X3024Y4011D01*
X3024Y4011D01*
X3024Y4010D01*
X3024Y4010D01*
X3024Y4010D01*
X3024Y4010D01*
X3024Y4009D01*
Y4009D01*
Y4009D01*
Y4009D01*
X3024Y4009D01*
X3024Y4009D01*
X3024Y4009D01*
X3024Y4008D01*
X3024Y4008D01*
X3024Y4008D01*
Y4008D01*
X3024Y4008D01*
X3024Y4008D01*
X3024Y4008D01*
X3023Y4007D01*
X3023Y4007D01*
X3023Y4007D01*
X3023Y4007D01*
X3023Y4007D01*
X3023Y4007D01*
X3023Y4007D01*
X3023Y4007D01*
X3022Y4007D01*
X3022Y4007D01*
X3022Y4006D01*
X3022Y4006D01*
X3022Y4006D01*
X3021Y4006D01*
X3021Y4006D01*
X3021Y4006D01*
X3021Y4006D01*
X3022Y4006D01*
X3022Y4006D01*
X3022Y4005D01*
X3023Y4005D01*
X3023Y4005D01*
X3023Y4005D01*
X3023Y4005D01*
X3023Y4005D01*
X3023Y4005D01*
X3024Y4004D01*
X3024Y4004D01*
X3024Y4004D01*
X3024Y4003D01*
X3024Y4003D01*
Y4003D01*
Y4003D01*
Y4003D01*
Y4003D01*
X3024Y4002D01*
X3024Y4002D01*
X3024Y4002D01*
X3024Y4002D01*
X3024Y4002D01*
X3024Y4002D01*
Y4002D01*
X3024Y4001D01*
X3024Y4001D01*
X3023Y4001D01*
X3023Y4001D01*
X3023Y4001D01*
X3023Y4001D01*
X3023Y4001D01*
X3023Y4000D01*
X3023Y4000D01*
X3023Y4000D01*
X3022Y4000D01*
X3022Y4000D01*
X3022Y4000D01*
X3022Y4000D01*
X3022Y4000D01*
X3021Y4000D01*
X3021Y3999D01*
X3021Y3999D01*
X3021Y3999D01*
X3024Y3999D01*
Y3996D01*
X3007D01*
Y4000D01*
X3018D01*
X3018Y4000D01*
X3018Y4000D01*
X3019Y4000D01*
X3019Y4000D01*
X3020Y4001D01*
X3020Y4001D01*
X3020Y4001D01*
X3020Y4001D01*
X3020Y4001D01*
X3020Y4001D01*
X3021Y4001D01*
X3021Y4001D01*
X3021Y4002D01*
X3021Y4002D01*
X3021Y4002D01*
Y4002D01*
Y4002D01*
X3021Y4002D01*
X3021Y4002D01*
X3021Y4002D01*
X3021Y4002D01*
X3021Y4003D01*
X3020Y4003D01*
X3020Y4003D01*
X3020Y4003D01*
X3020D01*
X3020Y4003D01*
X3020Y4003D01*
X3020D01*
X3019Y4003D01*
X3019D01*
X3019Y4003D01*
X3019Y4003D01*
X3007D01*
Y4006D01*
X3018D01*
X3018Y4006D01*
X3018Y4007D01*
X3019Y4007D01*
X3019Y4007D01*
X3020Y4007D01*
X3020Y4007D01*
X3020Y4007D01*
X3020Y4007D01*
X3020Y4007D01*
X3020Y4008D01*
X3021Y4008D01*
X3021Y4008D01*
X3021Y4008D01*
X3021Y4008D01*
X3021Y4008D01*
Y4008D01*
Y4008D01*
X3021Y4009D01*
X3021Y4009D01*
X3021Y4009D01*
X3021Y4009D01*
X3021Y4009D01*
X3020Y4009D01*
X3020Y4009D01*
X3020Y4009D01*
X3020D01*
X3020Y4009D01*
X3020Y4009D01*
X3020D01*
X3019Y4009D01*
X3019D01*
X3019Y4009D01*
X3019Y4009D01*
X3007D01*
Y4013D01*
X3019D01*
X3020Y4013D01*
D02*
G37*
G36*
X2755Y3096D02*
X2755Y3096D01*
X2756Y3096D01*
X2756Y3096D01*
X2756Y3096D01*
X2756Y3096D01*
X2756Y3096D01*
X2756Y3096D01*
X2757Y3095D01*
X2757Y3095D01*
X2757Y3095D01*
X2757Y3095D01*
X2757Y3095D01*
X2757Y3095D01*
X2757Y3095D01*
X2757Y3094D01*
X2758Y3094D01*
X2758Y3094D01*
X2758Y3094D01*
X2758Y3094D01*
X2758Y3094D01*
X2758Y3094D01*
X2758Y3093D01*
X2758Y3093D01*
Y3093D01*
X2758Y3093D01*
Y3093D01*
Y3093D01*
X2758Y3093D01*
X2758Y3092D01*
X2758Y3092D01*
X2758Y3092D01*
X2758Y3092D01*
X2758Y3092D01*
X2758Y3092D01*
Y3092D01*
X2757Y3091D01*
X2757Y3091D01*
X2757Y3091D01*
X2757Y3091D01*
X2757Y3091D01*
X2757Y3091D01*
X2757Y3091D01*
X2757Y3090D01*
X2756Y3090D01*
X2756Y3090D01*
X2756Y3090D01*
X2756Y3090D01*
X2756Y3090D01*
X2756Y3090D01*
X2756Y3090D01*
X2755Y3090D01*
X2755Y3090D01*
X2755Y3090D01*
X2755Y3090D01*
X2755D01*
X2754Y3090D01*
X2754Y3090D01*
X2754Y3090D01*
X2754Y3090D01*
X2754Y3090D01*
X2754Y3090D01*
X2753Y3090D01*
X2753D01*
X2753Y3090D01*
X2753Y3090D01*
X2753Y3090D01*
X2753Y3090D01*
X2753Y3091D01*
X2752Y3091D01*
X2752Y3091D01*
X2752Y3091D01*
X2752Y3091D01*
X2752Y3091D01*
X2752Y3091D01*
X2752Y3092D01*
Y3092D01*
X2752Y3092D01*
X2752Y3092D01*
X2752Y3092D01*
X2752Y3092D01*
Y3093D01*
X2752Y3093D01*
Y3093D01*
Y3093D01*
Y3093D01*
X2752Y3093D01*
X2752Y3094D01*
X2752Y3094D01*
X2752Y3094D01*
X2752Y3094D01*
X2752Y3094D01*
X2752Y3094D01*
X2752Y3094D01*
X2752Y3094D01*
X2752Y3095D01*
X2752Y3095D01*
X2752Y3095D01*
X2752Y3095D01*
X2752Y3095D01*
X2752Y3095D01*
X2753Y3095D01*
X2753Y3096D01*
X2753Y3096D01*
X2753Y3096D01*
X2753Y3096D01*
X2753Y3096D01*
X2754Y3096D01*
X2754Y3096D01*
X2754Y3096D01*
X2754Y3096D01*
X2754D01*
X2755Y3096D01*
X2755D01*
X2755Y3096D01*
D02*
G37*
G36*
X2720Y3090D02*
X2715D01*
X2709Y3111D01*
X2713D01*
X2716Y3099D01*
X2718Y3094D01*
X2719Y3099D01*
X2722Y3111D01*
X2727D01*
X2720Y3090D01*
D02*
G37*
G36*
X2775Y3863D02*
X2774Y3860D01*
X2769Y3862D01*
Y3849D01*
X2774D01*
Y3845D01*
X2760D01*
Y3849D01*
X2765D01*
Y3867D01*
X2768D01*
X2775Y3863D01*
D02*
G37*
G36*
X2750Y3867D02*
X2751Y3867D01*
X2752Y3866D01*
X2752Y3866D01*
X2752Y3866D01*
X2752Y3866D01*
X2753Y3866D01*
X2753Y3866D01*
X2753Y3866D01*
X2753Y3866D01*
X2753Y3866D01*
X2753Y3866D01*
X2753D01*
X2754Y3866D01*
X2755Y3865D01*
X2755Y3865D01*
X2756Y3865D01*
X2756Y3864D01*
X2756Y3864D01*
X2756Y3864D01*
X2756Y3864D01*
X2756Y3864D01*
X2756Y3864D01*
X2756Y3864D01*
X2756Y3864D01*
X2754Y3861D01*
X2754Y3862D01*
X2754Y3862D01*
X2753Y3862D01*
X2753Y3862D01*
X2753Y3862D01*
X2752Y3863D01*
X2752Y3863D01*
X2752Y3863D01*
X2752D01*
X2752Y3863D01*
X2751Y3863D01*
X2751Y3863D01*
X2751Y3863D01*
X2750Y3863D01*
X2750Y3863D01*
X2750D01*
X2749Y3863D01*
X2749Y3863D01*
X2749Y3863D01*
X2749Y3863D01*
X2749Y3863D01*
X2749Y3863D01*
X2749Y3863D01*
X2748Y3863D01*
X2748Y3863D01*
X2748Y3863D01*
X2748Y3863D01*
X2748Y3862D01*
X2748Y3862D01*
X2748Y3862D01*
X2748Y3862D01*
X2747Y3862D01*
X2747Y3862D01*
X2747Y3862D01*
X2747Y3861D01*
X2747Y3861D01*
Y3861D01*
X2747Y3861D01*
X2747Y3861D01*
X2747Y3861D01*
X2747Y3860D01*
Y3860D01*
Y3860D01*
Y3860D01*
X2747Y3860D01*
X2747Y3859D01*
X2747Y3859D01*
X2747Y3859D01*
X2747Y3859D01*
X2747Y3859D01*
Y3859D01*
X2747Y3858D01*
X2747Y3858D01*
X2747Y3858D01*
X2747Y3858D01*
X2748Y3858D01*
X2748Y3857D01*
X2748Y3857D01*
X2748Y3857D01*
X2748Y3857D01*
X2748Y3857D01*
X2748Y3856D01*
X2749Y3856D01*
X2749Y3856D01*
X2749Y3856D01*
X2749Y3855D01*
X2749Y3855D01*
Y3855D01*
X2749Y3855D01*
X2750Y3855D01*
X2750Y3854D01*
X2750Y3854D01*
X2751Y3853D01*
X2751Y3853D01*
X2751Y3853D01*
X2751Y3853D01*
X2751Y3853D01*
X2751Y3853D01*
X2751Y3853D01*
X2756Y3848D01*
Y3845D01*
X2742D01*
Y3849D01*
X2751D01*
X2748Y3852D01*
X2747Y3852D01*
X2747Y3852D01*
X2747Y3853D01*
X2746Y3853D01*
X2746Y3853D01*
X2746Y3854D01*
X2746Y3854D01*
X2746Y3854D01*
Y3854D01*
X2745Y3854D01*
X2745Y3855D01*
X2745Y3855D01*
X2744Y3855D01*
X2744Y3856D01*
X2744Y3856D01*
X2744Y3856D01*
X2744Y3856D01*
Y3856D01*
X2744Y3856D01*
X2743Y3857D01*
X2743Y3857D01*
X2743Y3857D01*
X2743Y3858D01*
X2743Y3858D01*
X2743Y3858D01*
X2743Y3858D01*
X2743Y3858D01*
Y3858D01*
X2743Y3858D01*
X2743Y3859D01*
X2743Y3859D01*
X2743Y3860D01*
X2743Y3860D01*
X2743Y3860D01*
Y3860D01*
Y3860D01*
Y3860D01*
Y3860D01*
X2743Y3861D01*
X2743Y3862D01*
X2743Y3862D01*
X2743Y3862D01*
X2743Y3863D01*
X2743Y3863D01*
X2743Y3863D01*
X2743Y3863D01*
X2743Y3863D01*
X2743Y3863D01*
Y3863D01*
X2743Y3864D01*
X2744Y3864D01*
X2744Y3864D01*
X2744Y3865D01*
X2744Y3865D01*
X2744Y3865D01*
X2744Y3865D01*
X2745Y3865D01*
X2745Y3865D01*
X2745Y3866D01*
X2746Y3866D01*
X2746Y3866D01*
X2746Y3866D01*
X2746Y3866D01*
X2747Y3866D01*
X2747Y3866D01*
X2747Y3866D01*
X2747D01*
X2747Y3866D01*
X2748Y3867D01*
X2748Y3867D01*
X2749Y3867D01*
X2749Y3867D01*
X2749D01*
X2749Y3867D01*
X2750D01*
X2750Y3867D01*
D02*
G37*
%LPC*%
G36*
X3506Y3664D02*
X3494D01*
X3493Y3664D01*
X3493D01*
X3492Y3664D01*
X3492D01*
X3491Y3664D01*
X3490Y3663D01*
X3489Y3663D01*
X3488Y3663D01*
X3488D01*
X3488Y3663D01*
X3487Y3663D01*
X3487Y3663D01*
X3487Y3663D01*
X3486Y3662D01*
X3485Y3662D01*
X3485Y3662D01*
X3484Y3661D01*
X3483Y3661D01*
X3483Y3660D01*
X3483Y3660D01*
X3483Y3660D01*
X3482Y3660D01*
X3482Y3659D01*
X3482Y3658D01*
X3481Y3658D01*
X3481Y3657D01*
Y3657D01*
X3481Y3657D01*
X3481Y3657D01*
X3481Y3656D01*
X3480Y3656D01*
X3480Y3655D01*
X3480Y3654D01*
X3480Y3653D01*
X3480Y3652D01*
Y3652D01*
Y3652D01*
X3480Y3652D01*
X3480Y3651D01*
X3480Y3651D01*
X3480Y3650D01*
X3480Y3649D01*
X3481Y3649D01*
X3481Y3649D01*
X3481Y3648D01*
X3481Y3648D01*
X3481Y3648D01*
X3481Y3647D01*
X3482Y3647D01*
X3482Y3646D01*
X3482Y3645D01*
X3482Y3645D01*
X3483Y3645D01*
X3483Y3645D01*
X3483Y3645D01*
X3484Y3644D01*
X3484Y3644D01*
X3485Y3643D01*
X3485Y3643D01*
X3485Y3643D01*
X3486Y3643D01*
X3486Y3642D01*
X3486Y3642D01*
X3487Y3642D01*
X3488Y3642D01*
X3488Y3641D01*
X3489Y3641D01*
X3489Y3641D01*
X3489Y3641D01*
X3488Y3641D01*
X3488Y3641D01*
X3488Y3640D01*
X3487Y3640D01*
X3487Y3640D01*
X3486Y3639D01*
X3486Y3639D01*
X3486Y3639D01*
X3486Y3638D01*
X3485Y3638D01*
X3485Y3637D01*
X3484Y3637D01*
X3484Y3636D01*
X3484Y3635D01*
X3477Y3621D01*
X3483D01*
X3490Y3635D01*
X3490Y3635D01*
X3490Y3635D01*
X3490Y3635D01*
X3490Y3635D01*
X3490Y3636D01*
X3491Y3636D01*
X3491Y3637D01*
X3491Y3637D01*
X3491Y3637D01*
X3491Y3637D01*
X3491Y3638D01*
X3492Y3638D01*
X3492Y3638D01*
X3493Y3639D01*
X3493Y3639D01*
X3493Y3639D01*
X3493Y3639D01*
X3493Y3639D01*
X3493Y3639D01*
X3494Y3639D01*
X3494Y3639D01*
X3495Y3640D01*
X3495D01*
X3495Y3640D01*
X3495Y3640D01*
X3495Y3640D01*
X3496Y3640D01*
X3496Y3640D01*
X3497Y3640D01*
X3500D01*
Y3621D01*
X3506D01*
Y3664D01*
D02*
G37*
G36*
X3534D02*
X3526D01*
X3512Y3621D01*
X3518D01*
X3521Y3630D01*
X3539D01*
X3542Y3621D01*
X3548D01*
X3534Y3664D01*
D02*
G37*
G36*
X3578D02*
X3554D01*
Y3659D01*
X3573D01*
Y3646D01*
X3555D01*
Y3641D01*
X3573D01*
Y3626D01*
X3554D01*
Y3621D01*
X3578D01*
Y3664D01*
D02*
G37*
G36*
X3602Y3664D02*
X3601D01*
X3601Y3664D01*
X3600D01*
X3600Y3664D01*
X3599D01*
X3599Y3664D01*
X3599Y3664D01*
X3598Y3664D01*
X3598Y3664D01*
X3597Y3664D01*
X3597D01*
X3597Y3664D01*
X3597D01*
X3596Y3664D01*
X3596Y3664D01*
X3595Y3664D01*
X3594Y3663D01*
X3594D01*
X3594Y3663D01*
X3594Y3663D01*
X3594Y3663D01*
X3593Y3663D01*
X3593Y3663D01*
X3592Y3663D01*
Y3658D01*
X3592D01*
X3592Y3658D01*
X3592Y3658D01*
X3592Y3658D01*
X3593Y3658D01*
X3593Y3658D01*
X3594Y3658D01*
X3594Y3658D01*
X3595Y3658D01*
X3596Y3659D01*
X3597Y3659D01*
X3597D01*
X3597Y3659D01*
X3598D01*
X3598Y3659D01*
X3599Y3659D01*
X3599Y3659D01*
X3600Y3659D01*
X3601Y3659D01*
X3603D01*
X3603Y3659D01*
X3603D01*
X3604Y3659D01*
X3604Y3659D01*
X3605Y3659D01*
X3606Y3659D01*
X3607Y3659D01*
X3608Y3658D01*
X3609Y3658D01*
X3609Y3658D01*
X3609D01*
X3609Y3657D01*
X3610Y3657D01*
X3610Y3657D01*
X3611Y3656D01*
X3611Y3656D01*
X3611Y3655D01*
X3612Y3654D01*
X3612Y3654D01*
X3612Y3653D01*
Y3653D01*
Y3653D01*
X3612Y3652D01*
X3612Y3652D01*
X3612Y3652D01*
X3611Y3651D01*
X3611Y3651D01*
X3611Y3650D01*
X3611Y3650D01*
X3611Y3650D01*
X3610Y3650D01*
X3610Y3649D01*
X3610Y3649D01*
X3609Y3649D01*
X3609Y3648D01*
X3608Y3648D01*
X3608Y3648D01*
X3608Y3648D01*
X3608Y3647D01*
X3607Y3647D01*
X3607Y3647D01*
X3606Y3647D01*
X3605Y3646D01*
X3605Y3646D01*
X3605D01*
X3605Y3646D01*
X3604Y3646D01*
X3604Y3646D01*
X3603Y3646D01*
X3603Y3645D01*
X3602Y3645D01*
X3601Y3645D01*
X3601Y3644D01*
X3600D01*
X3600Y3644D01*
X3600Y3644D01*
X3600Y3644D01*
X3599Y3644D01*
X3599Y3644D01*
X3598Y3643D01*
X3596Y3643D01*
X3596D01*
X3596Y3642D01*
X3596Y3642D01*
X3596Y3642D01*
X3595Y3642D01*
X3595Y3641D01*
X3594Y3641D01*
X3593Y3641D01*
X3593Y3640D01*
X3593Y3640D01*
X3593Y3640D01*
X3592Y3640D01*
X3592Y3639D01*
X3592Y3639D01*
X3591Y3638D01*
X3591Y3638D01*
X3590Y3637D01*
X3590Y3637D01*
X3590Y3637D01*
X3590Y3636D01*
X3590Y3636D01*
X3590Y3635D01*
X3589Y3634D01*
X3589Y3633D01*
X3589Y3632D01*
Y3632D01*
Y3632D01*
Y3632D01*
Y3632D01*
X3589Y3632D01*
Y3631D01*
X3589Y3631D01*
X3590Y3630D01*
X3590Y3629D01*
X3590Y3628D01*
X3591Y3627D01*
Y3627D01*
X3591Y3627D01*
X3591Y3627D01*
X3591Y3627D01*
X3591Y3626D01*
X3591Y3626D01*
X3592Y3625D01*
X3593Y3624D01*
X3593Y3624D01*
X3594Y3623D01*
X3594D01*
X3594Y3623D01*
X3594Y3623D01*
X3594Y3623D01*
X3595Y3623D01*
X3595Y3623D01*
X3596Y3622D01*
X3596Y3622D01*
X3597Y3622D01*
X3598Y3621D01*
X3599Y3621D01*
X3599D01*
X3600Y3621D01*
X3600Y3621D01*
X3600Y3621D01*
X3600Y3621D01*
X3601Y3621D01*
X3601Y3621D01*
X3601Y3621D01*
X3602Y3621D01*
X3602Y3620D01*
X3604Y3620D01*
X3605Y3620D01*
X3606Y3620D01*
X3607D01*
X3607Y3620D01*
X3608D01*
X3608Y3620D01*
X3610Y3620D01*
X3610D01*
X3610Y3620D01*
X3610D01*
X3611Y3621D01*
X3611Y3621D01*
X3612Y3621D01*
X3613Y3621D01*
X3613D01*
X3613Y3621D01*
X3614Y3621D01*
X3614Y3621D01*
X3614Y3621D01*
X3615Y3621D01*
X3616Y3621D01*
X3616D01*
X3616Y3621D01*
X3616Y3621D01*
X3617Y3621D01*
X3617Y3621D01*
X3618Y3622D01*
X3618Y3622D01*
Y3627D01*
X3618D01*
X3618Y3627D01*
X3618Y3627D01*
X3618Y3627D01*
X3618Y3627D01*
X3617Y3627D01*
X3617Y3627D01*
X3616Y3627D01*
X3615Y3626D01*
X3614Y3626D01*
X3613Y3626D01*
X3613D01*
X3613Y3626D01*
X3612Y3626D01*
X3612Y3626D01*
X3612Y3626D01*
X3611Y3626D01*
X3611Y3626D01*
X3610Y3626D01*
X3610Y3626D01*
X3609Y3625D01*
X3607Y3625D01*
X3606Y3625D01*
X3605D01*
X3605Y3625D01*
X3604D01*
X3604Y3625D01*
X3603Y3626D01*
X3602Y3626D01*
X3601Y3626D01*
X3601D01*
X3601Y3626D01*
X3600Y3626D01*
X3600Y3626D01*
X3599Y3626D01*
X3599Y3627D01*
X3598Y3627D01*
X3598Y3627D01*
X3598Y3627D01*
X3598Y3627D01*
X3597Y3627D01*
X3597Y3628D01*
X3597Y3628D01*
X3597Y3628D01*
X3596Y3629D01*
X3596Y3629D01*
X3596Y3629D01*
X3596Y3629D01*
X3596Y3630D01*
X3596Y3630D01*
X3596Y3630D01*
X3596Y3631D01*
X3595Y3632D01*
X3595Y3632D01*
Y3632D01*
Y3632D01*
X3595Y3633D01*
X3596Y3633D01*
X3596Y3634D01*
X3596Y3634D01*
X3596Y3635D01*
X3596Y3635D01*
X3596Y3635D01*
X3597Y3635D01*
X3597Y3635D01*
X3597Y3636D01*
X3597Y3636D01*
X3598Y3637D01*
X3598Y3637D01*
X3599Y3637D01*
X3599Y3637D01*
X3599Y3637D01*
X3600Y3638D01*
X3600Y3638D01*
X3601Y3638D01*
X3601Y3638D01*
X3602Y3639D01*
X3603Y3639D01*
X3603Y3639D01*
X3603Y3639D01*
X3603Y3639D01*
X3604Y3640D01*
X3604Y3640D01*
X3605Y3640D01*
X3606Y3640D01*
X3607Y3641D01*
X3607D01*
X3607Y3641D01*
X3607Y3641D01*
X3607Y3641D01*
X3608Y3641D01*
X3609Y3641D01*
X3609Y3642D01*
X3611Y3643D01*
X3611Y3643D01*
X3611Y3643D01*
X3611Y3643D01*
X3612Y3643D01*
X3613Y3644D01*
X3613Y3644D01*
X3614Y3644D01*
X3614Y3645D01*
X3614Y3645D01*
X3615Y3645D01*
X3615Y3645D01*
X3615Y3646D01*
X3616Y3646D01*
X3616Y3647D01*
X3616Y3647D01*
X3617Y3648D01*
Y3648D01*
X3617Y3648D01*
X3617Y3648D01*
X3617Y3649D01*
X3617Y3649D01*
X3618Y3650D01*
X3618Y3651D01*
X3618Y3652D01*
X3618Y3652D01*
Y3652D01*
Y3653D01*
Y3653D01*
Y3653D01*
X3618Y3653D01*
X3618Y3654D01*
X3618Y3655D01*
X3617Y3655D01*
X3617Y3656D01*
X3617Y3657D01*
Y3657D01*
X3617Y3657D01*
X3617Y3657D01*
X3617Y3658D01*
X3616Y3658D01*
X3616Y3659D01*
X3615Y3659D01*
X3615Y3660D01*
X3614Y3661D01*
X3614D01*
X3614Y3661D01*
X3614Y3661D01*
X3613Y3661D01*
X3613Y3662D01*
X3612Y3662D01*
X3611Y3662D01*
X3610Y3663D01*
X3609Y3663D01*
X3609D01*
X3609Y3663D01*
X3609Y3663D01*
X3609Y3663D01*
X3608Y3664D01*
X3608Y3664D01*
X3608Y3664D01*
X3607Y3664D01*
X3607Y3664D01*
X3606Y3664D01*
X3605Y3664D01*
X3603Y3664D01*
X3602Y3664D01*
D02*
G37*
G36*
X3845Y3572D02*
X3840D01*
Y3559D01*
X3827D01*
Y3572D01*
X3823D01*
Y3540D01*
X3827D01*
Y3555D01*
X3840D01*
Y3540D01*
X3845D01*
Y3572D01*
D02*
G37*
G36*
X3899Y3664D02*
X3898D01*
X3898Y3664D01*
X3898D01*
X3897Y3664D01*
X3897Y3664D01*
X3896Y3664D01*
X3895Y3664D01*
X3894Y3664D01*
X3893Y3663D01*
X3891Y3663D01*
X3891D01*
X3891Y3663D01*
X3891Y3663D01*
X3891Y3663D01*
X3891Y3662D01*
X3890Y3662D01*
X3890Y3662D01*
X3889Y3661D01*
X3888Y3660D01*
X3887Y3659D01*
X3886Y3658D01*
X3886Y3658D01*
X3886Y3658D01*
X3886Y3658D01*
X3886Y3658D01*
X3886Y3658D01*
X3886Y3657D01*
X3885Y3657D01*
X3885Y3657D01*
X3885Y3656D01*
X3885Y3656D01*
X3884Y3654D01*
X3884Y3653D01*
X3883Y3652D01*
Y3652D01*
X3883Y3651D01*
X3883Y3651D01*
X3883Y3651D01*
X3883Y3650D01*
X3883Y3650D01*
X3883Y3650D01*
X3883Y3649D01*
X3883Y3648D01*
X3883Y3648D01*
X3882Y3647D01*
X3882Y3646D01*
X3882Y3644D01*
X3882Y3643D01*
Y3642D01*
Y3642D01*
Y3642D01*
Y3642D01*
X3882Y3641D01*
X3882Y3640D01*
X3882Y3640D01*
X3882Y3639D01*
X3883Y3638D01*
X3883Y3638D01*
X3883Y3636D01*
X3883Y3634D01*
X3884Y3633D01*
Y3633D01*
X3884Y3632D01*
X3884Y3632D01*
X3884Y3632D01*
X3884Y3632D01*
X3884Y3631D01*
X3884Y3631D01*
X3885Y3630D01*
X3885Y3629D01*
X3886Y3628D01*
X3887Y3627D01*
X3887Y3626D01*
X3887Y3626D01*
X3887Y3625D01*
X3888Y3625D01*
X3888Y3625D01*
X3888Y3625D01*
X3888Y3625D01*
X3889Y3624D01*
X3890Y3623D01*
X3891Y3623D01*
X3892Y3622D01*
X3893Y3622D01*
X3893D01*
X3893Y3622D01*
X3893Y3621D01*
X3893Y3621D01*
X3894Y3621D01*
X3894Y3621D01*
X3894Y3621D01*
X3895Y3621D01*
X3896Y3621D01*
X3897Y3620D01*
X3898Y3620D01*
X3899Y3620D01*
X3900D01*
X3900Y3620D01*
X3900D01*
X3901Y3620D01*
X3901Y3620D01*
X3902Y3620D01*
X3903Y3621D01*
X3904Y3621D01*
X3905Y3621D01*
X3906Y3622D01*
X3907D01*
X3907Y3622D01*
X3907Y3622D01*
X3907Y3622D01*
X3907Y3622D01*
X3908Y3622D01*
X3908Y3623D01*
X3909Y3623D01*
X3910Y3624D01*
X3911Y3625D01*
X3912Y3626D01*
Y3626D01*
X3912Y3626D01*
X3912Y3626D01*
X3912Y3627D01*
X3912Y3627D01*
X3912Y3627D01*
X3912Y3628D01*
X3913Y3628D01*
X3913Y3628D01*
X3913Y3629D01*
X3914Y3630D01*
X3914Y3631D01*
X3915Y3633D01*
Y3633D01*
X3915Y3633D01*
X3915Y3633D01*
X3915Y3634D01*
X3915Y3634D01*
X3915Y3634D01*
X3915Y3635D01*
X3915Y3636D01*
X3915Y3636D01*
X3915Y3637D01*
X3915Y3638D01*
X3915Y3638D01*
X3915Y3640D01*
X3916Y3642D01*
Y3642D01*
Y3642D01*
Y3643D01*
X3915Y3643D01*
Y3643D01*
X3915Y3644D01*
X3915Y3645D01*
X3915Y3645D01*
X3915Y3646D01*
X3915Y3647D01*
X3915Y3649D01*
X3915Y3650D01*
X3914Y3652D01*
Y3652D01*
X3914Y3652D01*
X3914Y3652D01*
X3914Y3653D01*
X3914Y3653D01*
X3914Y3653D01*
X3913Y3654D01*
X3913Y3654D01*
X3913Y3655D01*
X3912Y3657D01*
X3911Y3658D01*
X3911Y3659D01*
X3910Y3659D01*
X3910Y3659D01*
X3910Y3659D01*
X3910Y3659D01*
X3910Y3660D01*
X3910Y3660D01*
X3909Y3660D01*
X3908Y3661D01*
X3907Y3662D01*
X3906Y3662D01*
X3905Y3663D01*
X3905D01*
X3905Y3663D01*
X3905Y3663D01*
X3905Y3663D01*
X3904Y3663D01*
X3904Y3663D01*
X3904Y3664D01*
X3903Y3664D01*
X3902Y3664D01*
X3901Y3664D01*
X3900Y3664D01*
X3899Y3664D01*
D02*
G37*
G36*
X4120D02*
X4120D01*
X4119Y3664D01*
X4119D01*
X4119Y3664D01*
X4118Y3664D01*
X4118Y3664D01*
X4117Y3664D01*
X4115Y3664D01*
X4114Y3663D01*
X4113Y3663D01*
X4113D01*
X4113Y3663D01*
X4113Y3663D01*
X4112Y3663D01*
X4112Y3662D01*
X4112Y3662D01*
X4111Y3662D01*
X4110Y3661D01*
X4110Y3660D01*
X4109Y3659D01*
X4108Y3658D01*
X4108Y3658D01*
X4108Y3658D01*
X4108Y3658D01*
X4108Y3658D01*
X4107Y3658D01*
X4107Y3657D01*
X4107Y3657D01*
X4107Y3657D01*
X4106Y3656D01*
X4106Y3656D01*
X4106Y3654D01*
X4105Y3653D01*
X4105Y3652D01*
Y3652D01*
X4105Y3651D01*
X4105Y3651D01*
X4105Y3651D01*
X4105Y3650D01*
X4105Y3650D01*
X4104Y3650D01*
X4104Y3649D01*
X4104Y3648D01*
X4104Y3648D01*
X4104Y3647D01*
X4104Y3646D01*
X4104Y3644D01*
X4104Y3643D01*
Y3642D01*
Y3642D01*
Y3642D01*
Y3642D01*
X4104Y3641D01*
X4104Y3640D01*
X4104Y3640D01*
X4104Y3639D01*
X4104Y3638D01*
X4104Y3638D01*
X4104Y3636D01*
X4105Y3634D01*
X4105Y3633D01*
Y3633D01*
X4105Y3632D01*
X4105Y3632D01*
X4105Y3632D01*
X4106Y3632D01*
X4106Y3631D01*
X4106Y3631D01*
X4106Y3630D01*
X4107Y3629D01*
X4107Y3628D01*
X4108Y3627D01*
X4109Y3626D01*
X4109Y3626D01*
X4109Y3625D01*
X4109Y3625D01*
X4109Y3625D01*
X4110Y3625D01*
X4110Y3625D01*
X4110Y3624D01*
X4111Y3623D01*
X4112Y3623D01*
X4113Y3622D01*
X4114Y3622D01*
X4114D01*
X4114Y3622D01*
X4115Y3621D01*
X4115Y3621D01*
X4115Y3621D01*
X4115Y3621D01*
X4116Y3621D01*
X4116Y3621D01*
X4117Y3621D01*
X4118Y3620D01*
X4120Y3620D01*
X4121Y3620D01*
X4121D01*
X4122Y3620D01*
X4122D01*
X4122Y3620D01*
X4123Y3620D01*
X4123Y3620D01*
X4124Y3621D01*
X4126Y3621D01*
X4127Y3621D01*
X4128Y3622D01*
X4128D01*
X4128Y3622D01*
X4128Y3622D01*
X4129Y3622D01*
X4129Y3622D01*
X4129Y3622D01*
X4130Y3623D01*
X4131Y3623D01*
X4131Y3624D01*
X4132Y3625D01*
X4133Y3626D01*
Y3626D01*
X4133Y3626D01*
X4133Y3626D01*
X4133Y3627D01*
X4134Y3627D01*
X4134Y3627D01*
X4134Y3628D01*
X4134Y3628D01*
X4134Y3628D01*
X4135Y3629D01*
X4135Y3630D01*
X4136Y3631D01*
X4136Y3633D01*
Y3633D01*
X4136Y3633D01*
X4136Y3633D01*
X4136Y3634D01*
X4136Y3634D01*
X4136Y3634D01*
X4137Y3635D01*
X4137Y3636D01*
X4137Y3636D01*
X4137Y3637D01*
X4137Y3638D01*
X4137Y3638D01*
X4137Y3640D01*
X4137Y3642D01*
Y3642D01*
Y3642D01*
Y3643D01*
X4137Y3643D01*
Y3643D01*
X4137Y3644D01*
X4137Y3645D01*
X4137Y3645D01*
X4137Y3646D01*
X4137Y3647D01*
X4137Y3649D01*
X4136Y3650D01*
X4136Y3652D01*
Y3652D01*
X4136Y3652D01*
X4136Y3652D01*
X4136Y3653D01*
X4135Y3653D01*
X4135Y3653D01*
X4135Y3654D01*
X4135Y3654D01*
X4134Y3655D01*
X4134Y3657D01*
X4133Y3658D01*
X4132Y3659D01*
X4132Y3659D01*
X4132Y3659D01*
X4132Y3659D01*
X4132Y3659D01*
X4131Y3660D01*
X4131Y3660D01*
X4131Y3660D01*
X4130Y3661D01*
X4129Y3662D01*
X4128Y3662D01*
X4127Y3663D01*
X4127D01*
X4127Y3663D01*
X4126Y3663D01*
X4126Y3663D01*
X4126Y3663D01*
X4126Y3663D01*
X4125Y3664D01*
X4125Y3664D01*
X4124Y3664D01*
X4123Y3664D01*
X4121Y3664D01*
X4120Y3664D01*
D02*
G37*
G36*
X3971D02*
X3970D01*
X3970Y3664D01*
X3970D01*
X3969Y3664D01*
X3969D01*
X3968Y3664D01*
X3968Y3664D01*
X3968Y3664D01*
X3967Y3664D01*
X3966Y3664D01*
X3966D01*
X3966Y3664D01*
X3966D01*
X3965Y3664D01*
X3965Y3664D01*
X3965Y3664D01*
X3964Y3663D01*
X3964D01*
X3963Y3663D01*
X3963Y3663D01*
X3963Y3663D01*
X3963Y3663D01*
X3962Y3663D01*
X3961Y3663D01*
Y3658D01*
X3961D01*
X3961Y3658D01*
X3962Y3658D01*
X3962Y3658D01*
X3962Y3658D01*
X3962Y3658D01*
X3963Y3658D01*
X3964Y3658D01*
X3965Y3658D01*
X3965Y3659D01*
X3966Y3659D01*
X3967D01*
X3967Y3659D01*
X3967D01*
X3967Y3659D01*
X3968Y3659D01*
X3969Y3659D01*
X3970Y3659D01*
X3970Y3659D01*
X3972D01*
X3972Y3659D01*
X3973D01*
X3973Y3659D01*
X3974Y3659D01*
X3974Y3659D01*
X3975Y3659D01*
X3976Y3659D01*
X3978Y3658D01*
X3978Y3658D01*
X3979Y3658D01*
X3979D01*
X3979Y3657D01*
X3979Y3657D01*
X3979Y3657D01*
X3980Y3656D01*
X3980Y3656D01*
X3981Y3655D01*
X3981Y3654D01*
X3981Y3654D01*
X3981Y3653D01*
Y3653D01*
Y3653D01*
X3981Y3652D01*
X3981Y3652D01*
X3981Y3652D01*
X3981Y3651D01*
X3980Y3651D01*
X3980Y3650D01*
X3980Y3650D01*
X3980Y3650D01*
X3980Y3650D01*
X3979Y3649D01*
X3979Y3649D01*
X3979Y3649D01*
X3978Y3648D01*
X3977Y3648D01*
X3977Y3648D01*
X3977Y3648D01*
X3977Y3647D01*
X3976Y3647D01*
X3976Y3647D01*
X3975Y3647D01*
X3975Y3646D01*
X3974Y3646D01*
X3974D01*
X3974Y3646D01*
X3974Y3646D01*
X3973Y3646D01*
X3973Y3646D01*
X3972Y3645D01*
X3971Y3645D01*
X3971Y3645D01*
X3970Y3644D01*
X3970D01*
X3970Y3644D01*
X3969Y3644D01*
X3969Y3644D01*
X3968Y3644D01*
X3968Y3644D01*
X3967Y3643D01*
X3966Y3643D01*
X3966D01*
X3966Y3642D01*
X3965Y3642D01*
X3965Y3642D01*
X3964Y3642D01*
X3964Y3641D01*
X3963Y3641D01*
X3963Y3641D01*
X3962Y3640D01*
X3962Y3640D01*
X3962Y3640D01*
X3962Y3640D01*
X3961Y3639D01*
X3961Y3639D01*
X3960Y3638D01*
X3960Y3638D01*
X3960Y3637D01*
X3960Y3637D01*
X3959Y3637D01*
X3959Y3636D01*
X3959Y3636D01*
X3959Y3635D01*
X3959Y3634D01*
X3959Y3633D01*
X3959Y3632D01*
Y3632D01*
Y3632D01*
Y3632D01*
Y3632D01*
X3959Y3632D01*
Y3631D01*
X3959Y3631D01*
X3959Y3630D01*
X3959Y3629D01*
X3959Y3628D01*
X3960Y3627D01*
Y3627D01*
X3960Y3627D01*
X3960Y3627D01*
X3960Y3627D01*
X3960Y3626D01*
X3961Y3626D01*
X3961Y3625D01*
X3962Y3624D01*
X3963Y3624D01*
X3963Y3623D01*
X3963D01*
X3963Y3623D01*
X3964Y3623D01*
X3964Y3623D01*
X3964Y3623D01*
X3964Y3623D01*
X3965Y3622D01*
X3966Y3622D01*
X3967Y3622D01*
X3968Y3621D01*
X3969Y3621D01*
X3969D01*
X3969Y3621D01*
X3969Y3621D01*
X3969Y3621D01*
X3970Y3621D01*
X3970Y3621D01*
X3970Y3621D01*
X3971Y3621D01*
X3971Y3621D01*
X3972Y3620D01*
X3973Y3620D01*
X3974Y3620D01*
X3976Y3620D01*
X3976D01*
X3977Y3620D01*
X3977D01*
X3978Y3620D01*
X3979Y3620D01*
X3979D01*
X3979Y3620D01*
X3980D01*
X3980Y3621D01*
X3981Y3621D01*
X3981Y3621D01*
X3982Y3621D01*
X3982D01*
X3983Y3621D01*
X3983Y3621D01*
X3983Y3621D01*
X3984Y3621D01*
X3984Y3621D01*
X3985Y3621D01*
X3985D01*
X3985Y3621D01*
X3986Y3621D01*
X3986Y3621D01*
X3986Y3621D01*
X3987Y3622D01*
X3988Y3622D01*
Y3627D01*
X3988D01*
X3987Y3627D01*
X3987Y3627D01*
X3987Y3627D01*
X3987Y3627D01*
X3987Y3627D01*
X3986Y3627D01*
X3985Y3627D01*
X3984Y3626D01*
X3983Y3626D01*
X3982Y3626D01*
X3982D01*
X3982Y3626D01*
X3982Y3626D01*
X3981Y3626D01*
X3981Y3626D01*
X3981Y3626D01*
X3980Y3626D01*
X3980Y3626D01*
X3979Y3626D01*
X3978Y3625D01*
X3977Y3625D01*
X3975Y3625D01*
X3974D01*
X3974Y3625D01*
X3974D01*
X3973Y3625D01*
X3972Y3626D01*
X3971Y3626D01*
X3970Y3626D01*
X3970D01*
X3970Y3626D01*
X3970Y3626D01*
X3969Y3626D01*
X3969Y3626D01*
X3968Y3627D01*
X3968Y3627D01*
X3967Y3627D01*
X3967Y3627D01*
X3967Y3627D01*
X3967Y3627D01*
X3966Y3628D01*
X3966Y3628D01*
X3966Y3628D01*
X3966Y3629D01*
X3965Y3629D01*
X3965Y3629D01*
X3965Y3629D01*
X3965Y3630D01*
X3965Y3630D01*
X3965Y3630D01*
X3965Y3631D01*
X3965Y3632D01*
X3965Y3632D01*
Y3632D01*
Y3632D01*
X3965Y3633D01*
X3965Y3633D01*
X3965Y3634D01*
X3965Y3634D01*
X3965Y3635D01*
X3966Y3635D01*
X3966Y3635D01*
X3966Y3635D01*
X3966Y3635D01*
X3966Y3636D01*
X3967Y3636D01*
X3967Y3637D01*
X3968Y3637D01*
X3968Y3637D01*
X3968Y3637D01*
X3968Y3637D01*
X3969Y3638D01*
X3969Y3638D01*
X3970Y3638D01*
X3970Y3638D01*
X3971Y3639D01*
X3972Y3639D01*
X3972Y3639D01*
X3972Y3639D01*
X3973Y3639D01*
X3973Y3640D01*
X3974Y3640D01*
X3974Y3640D01*
X3975Y3640D01*
X3976Y3641D01*
X3976D01*
X3976Y3641D01*
X3976Y3641D01*
X3977Y3641D01*
X3977Y3641D01*
X3978Y3641D01*
X3979Y3642D01*
X3980Y3643D01*
X3980Y3643D01*
X3980Y3643D01*
X3981Y3643D01*
X3981Y3643D01*
X3982Y3644D01*
X3982Y3644D01*
X3983Y3644D01*
X3984Y3645D01*
X3984Y3645D01*
X3984Y3645D01*
X3984Y3645D01*
X3985Y3646D01*
X3985Y3646D01*
X3985Y3647D01*
X3986Y3647D01*
X3986Y3648D01*
Y3648D01*
X3986Y3648D01*
X3986Y3648D01*
X3986Y3649D01*
X3987Y3649D01*
X3987Y3650D01*
X3987Y3651D01*
X3987Y3652D01*
X3987Y3652D01*
Y3652D01*
Y3653D01*
Y3653D01*
Y3653D01*
X3987Y3653D01*
X3987Y3654D01*
X3987Y3655D01*
X3987Y3655D01*
X3986Y3656D01*
X3986Y3657D01*
Y3657D01*
X3986Y3657D01*
X3986Y3657D01*
X3986Y3658D01*
X3985Y3658D01*
X3985Y3659D01*
X3985Y3659D01*
X3984Y3660D01*
X3983Y3661D01*
X3983D01*
X3983Y3661D01*
X3983Y3661D01*
X3983Y3661D01*
X3982Y3662D01*
X3981Y3662D01*
X3980Y3662D01*
X3980Y3663D01*
X3978Y3663D01*
X3978D01*
X3978Y3663D01*
X3978Y3663D01*
X3978Y3663D01*
X3978Y3664D01*
X3977Y3664D01*
X3977Y3664D01*
X3976Y3664D01*
X3976Y3664D01*
X3975Y3664D01*
X3974Y3664D01*
X3973Y3664D01*
X3971Y3664D01*
D02*
G37*
G36*
X4062Y3664D02*
X4050D01*
X4050Y3664D01*
X4049Y3664D01*
X4048Y3664D01*
X4047Y3663D01*
X4046Y3663D01*
X4045Y3663D01*
X4044Y3663D01*
X4042Y3662D01*
X4041Y3662D01*
X4040Y3662D01*
X4039Y3661D01*
X4038Y3660D01*
X4036Y3659D01*
X4036Y3659D01*
X4035Y3658D01*
X4035Y3658D01*
X4035Y3658D01*
X4035Y3658D01*
X4034Y3657D01*
X4034Y3656D01*
X4034Y3656D01*
X4033Y3655D01*
X4033Y3654D01*
X4032Y3652D01*
X4032Y3651D01*
X4031Y3650D01*
X4031Y3648D01*
X4031Y3646D01*
X4031Y3645D01*
X4031Y3643D01*
Y3643D01*
Y3643D01*
Y3642D01*
Y3642D01*
Y3642D01*
X4031Y3642D01*
Y3641D01*
X4031Y3640D01*
X4031Y3639D01*
X4031Y3638D01*
X4031Y3637D01*
Y3637D01*
Y3637D01*
X4031Y3637D01*
X4031Y3636D01*
X4031Y3636D01*
X4031Y3636D01*
X4031Y3635D01*
X4032Y3634D01*
X4032Y3633D01*
X4032Y3632D01*
X4033Y3632D01*
Y3632D01*
X4033Y3631D01*
X4033Y3631D01*
X4033Y3631D01*
X4033Y3631D01*
X4033Y3630D01*
X4034Y3629D01*
X4034Y3629D01*
X4035Y3628D01*
X4035Y3627D01*
X4035Y3627D01*
X4036Y3627D01*
X4036Y3626D01*
X4036Y3626D01*
X4037Y3625D01*
X4038Y3625D01*
X4039Y3624D01*
X4039Y3624D01*
X4040D01*
X4040Y3624D01*
X4040Y3624D01*
X4040Y3624D01*
X4040Y3623D01*
X4040Y3623D01*
X4041Y3623D01*
X4042Y3623D01*
X4043Y3622D01*
X4044Y3622D01*
X4045Y3622D01*
X4045D01*
X4045Y3622D01*
X4045Y3622D01*
X4046Y3621D01*
X4046Y3621D01*
X4046Y3621D01*
X4047Y3621D01*
X4047Y3621D01*
X4048Y3621D01*
X4048Y3621D01*
X4050Y3621D01*
X4051Y3621D01*
X4052Y3621D01*
X4062D01*
Y3664D01*
D02*
G37*
G36*
X3951D02*
X3920D01*
Y3659D01*
X3933D01*
Y3621D01*
X3939D01*
Y3659D01*
X3951D01*
Y3664D01*
D02*
G37*
G36*
X4094D02*
X4088D01*
Y3626D01*
X4070D01*
Y3621D01*
X4094D01*
Y3664D01*
D02*
G37*
G36*
X3452Y3664D02*
X3451D01*
X3451Y3664D01*
X3450D01*
X3449Y3664D01*
X3449Y3664D01*
X3448Y3664D01*
X3447Y3664D01*
X3447D01*
X3446Y3664D01*
X3446D01*
X3446Y3664D01*
X3446Y3664D01*
X3446Y3664D01*
X3445Y3663D01*
X3444Y3663D01*
X3443Y3663D01*
X3443Y3663D01*
X3442Y3662D01*
Y3656D01*
X3442D01*
X3442Y3656D01*
X3442Y3657D01*
X3442Y3657D01*
X3443Y3657D01*
X3443Y3657D01*
X3444Y3657D01*
X3445Y3658D01*
X3446Y3658D01*
X3446Y3658D01*
X3447D01*
X3447Y3658D01*
X3447Y3658D01*
X3447Y3658D01*
X3447Y3659D01*
X3447Y3659D01*
X3448Y3659D01*
X3449Y3659D01*
X3450Y3659D01*
X3451Y3659D01*
X3452Y3659D01*
X3452D01*
X3453Y3659D01*
X3453D01*
X3454Y3659D01*
X3455Y3659D01*
X3456Y3659D01*
X3456Y3658D01*
X3457Y3658D01*
X3457D01*
X3458Y3658D01*
X3458Y3658D01*
X3458Y3658D01*
X3458Y3657D01*
X3459Y3657D01*
X3459Y3657D01*
X3460Y3656D01*
X3461Y3655D01*
X3462Y3655D01*
Y3655D01*
X3462Y3655D01*
X3462Y3654D01*
X3462Y3654D01*
X3462Y3654D01*
X3462Y3653D01*
X3463Y3652D01*
X3463Y3651D01*
X3464Y3650D01*
X3464Y3649D01*
Y3649D01*
X3464Y3649D01*
X3464Y3649D01*
X3464Y3649D01*
X3464Y3649D01*
X3464Y3648D01*
X3465Y3648D01*
X3465Y3647D01*
X3465Y3647D01*
X3465Y3646D01*
X3465Y3645D01*
X3465Y3644D01*
X3465Y3642D01*
Y3642D01*
Y3642D01*
Y3642D01*
Y3642D01*
X3465Y3642D01*
Y3641D01*
X3465Y3640D01*
X3465Y3639D01*
X3465Y3639D01*
X3465Y3638D01*
X3464Y3637D01*
X3464Y3636D01*
X3464Y3635D01*
X3464Y3633D01*
X3463Y3632D01*
X3463Y3631D01*
X3462Y3631D01*
X3462Y3630D01*
X3462Y3630D01*
X3462Y3630D01*
X3461Y3629D01*
X3461Y3629D01*
X3461Y3629D01*
X3460Y3628D01*
X3460Y3628D01*
X3459Y3628D01*
X3459Y3627D01*
X3458Y3627D01*
X3457Y3626D01*
X3456Y3626D01*
X3455Y3626D01*
X3454Y3626D01*
X3453Y3626D01*
X3452Y3626D01*
X3451D01*
X3451Y3626D01*
X3450Y3626D01*
X3449Y3626D01*
X3448Y3626D01*
X3447Y3626D01*
X3447Y3626D01*
X3446D01*
X3446Y3626D01*
X3446Y3626D01*
X3446Y3626D01*
X3446Y3626D01*
X3445Y3627D01*
X3444Y3627D01*
X3443Y3627D01*
X3443Y3628D01*
X3442Y3628D01*
Y3622D01*
X3442Y3622D01*
X3442Y3622D01*
X3442Y3622D01*
X3443Y3622D01*
X3443Y3622D01*
X3444Y3622D01*
X3444Y3622D01*
X3445Y3621D01*
X3446Y3621D01*
X3447Y3621D01*
X3447Y3621D01*
X3448Y3621D01*
X3450Y3620D01*
X3451Y3620D01*
X3452Y3620D01*
X3453D01*
X3453Y3620D01*
X3454Y3620D01*
X3455Y3621D01*
X3456Y3621D01*
X3457Y3621D01*
X3458Y3621D01*
X3459Y3621D01*
X3460Y3622D01*
X3461Y3622D01*
X3462Y3623D01*
X3463Y3623D01*
X3464Y3624D01*
X3465Y3625D01*
X3466Y3626D01*
X3466Y3626D01*
X3467Y3626D01*
X3467Y3626D01*
X3467Y3627D01*
X3468Y3627D01*
X3468Y3628D01*
X3468Y3629D01*
X3469Y3630D01*
X3469Y3631D01*
X3470Y3632D01*
X3470Y3633D01*
X3471Y3635D01*
X3471Y3636D01*
X3471Y3638D01*
X3471Y3640D01*
X3471Y3642D01*
Y3642D01*
Y3642D01*
Y3642D01*
X3471Y3643D01*
Y3643D01*
X3471Y3644D01*
X3471Y3644D01*
X3471Y3645D01*
X3471Y3646D01*
X3471Y3646D01*
X3471Y3648D01*
X3470Y3650D01*
X3470Y3651D01*
Y3651D01*
X3470Y3651D01*
X3470Y3651D01*
X3470Y3652D01*
X3470Y3652D01*
X3469Y3653D01*
X3469Y3653D01*
X3469Y3654D01*
X3468Y3655D01*
X3468Y3656D01*
X3467Y3657D01*
X3466Y3658D01*
X3466Y3658D01*
X3466Y3658D01*
X3466Y3658D01*
X3466Y3659D01*
X3465Y3659D01*
X3465Y3659D01*
X3465Y3659D01*
X3464Y3660D01*
X3464Y3661D01*
X3463Y3661D01*
X3461Y3662D01*
X3460Y3663D01*
X3460D01*
X3460Y3663D01*
X3460Y3663D01*
X3459Y3663D01*
X3459Y3663D01*
X3459Y3663D01*
X3458Y3663D01*
X3458Y3663D01*
X3457Y3664D01*
X3457Y3664D01*
X3456Y3664D01*
X3455Y3664D01*
X3454Y3664D01*
X3452Y3664D01*
D02*
G37*
G36*
X3784Y3664D02*
X3783D01*
X3783Y3664D01*
X3782D01*
X3781Y3664D01*
X3781Y3664D01*
X3780Y3664D01*
X3779Y3664D01*
X3779D01*
X3779Y3664D01*
X3778D01*
X3778Y3664D01*
X3778Y3664D01*
X3778Y3664D01*
X3777Y3663D01*
X3776Y3663D01*
X3775Y3663D01*
X3775Y3663D01*
X3774Y3662D01*
Y3656D01*
X3774D01*
X3774Y3656D01*
X3774Y3656D01*
X3774Y3657D01*
X3775Y3657D01*
X3775Y3657D01*
X3776Y3657D01*
X3777Y3658D01*
X3778Y3658D01*
X3779Y3658D01*
X3779D01*
X3779Y3658D01*
X3779Y3658D01*
X3779Y3658D01*
X3779Y3658D01*
X3780Y3659D01*
X3780Y3659D01*
X3781Y3659D01*
X3782Y3659D01*
X3783Y3659D01*
X3784Y3659D01*
X3785D01*
X3785Y3659D01*
X3785D01*
X3786Y3659D01*
X3787Y3659D01*
X3788Y3659D01*
X3789Y3658D01*
X3790Y3658D01*
X3790D01*
X3790Y3658D01*
X3790Y3658D01*
X3791Y3658D01*
X3791Y3657D01*
X3792Y3657D01*
X3792Y3656D01*
X3793Y3656D01*
X3794Y3655D01*
X3795Y3654D01*
Y3654D01*
X3795Y3654D01*
X3795Y3654D01*
X3795Y3654D01*
X3795Y3654D01*
X3795Y3654D01*
X3796Y3653D01*
X3796Y3652D01*
X3797Y3651D01*
X3797Y3650D01*
X3797Y3649D01*
Y3649D01*
X3797Y3649D01*
X3797Y3649D01*
X3797Y3649D01*
X3798Y3648D01*
X3798Y3648D01*
X3798Y3647D01*
X3798Y3647D01*
X3798Y3647D01*
X3798Y3646D01*
X3798Y3645D01*
X3798Y3644D01*
X3798Y3642D01*
Y3642D01*
Y3642D01*
Y3642D01*
Y3642D01*
X3798Y3641D01*
Y3641D01*
X3798Y3640D01*
Y3640D01*
X3798Y3639D01*
X3798Y3638D01*
X3798Y3636D01*
X3798Y3635D01*
Y3635D01*
X3797Y3635D01*
X3797Y3635D01*
X3797Y3635D01*
X3797Y3634D01*
X3797Y3634D01*
X3797Y3633D01*
X3797Y3632D01*
X3796Y3632D01*
X3796Y3631D01*
X3795Y3630D01*
Y3630D01*
X3795Y3630D01*
X3795Y3629D01*
X3794Y3629D01*
X3794Y3629D01*
X3793Y3628D01*
X3793Y3628D01*
X3792Y3627D01*
X3791Y3627D01*
X3791D01*
X3791Y3626D01*
X3791Y3626D01*
X3790Y3626D01*
X3790Y3626D01*
X3790Y3626D01*
X3789Y3626D01*
X3789Y3626D01*
X3788Y3626D01*
X3787Y3626D01*
X3786Y3625D01*
X3785Y3625D01*
X3784D01*
X3783Y3625D01*
X3783D01*
X3783Y3625D01*
X3783D01*
X3782Y3626D01*
X3782Y3626D01*
X3782D01*
X3782Y3626D01*
X3782D01*
X3781Y3626D01*
X3781Y3626D01*
X3780Y3626D01*
X3780D01*
X3780Y3626D01*
X3780Y3626D01*
X3780Y3626D01*
X3780Y3626D01*
X3779Y3626D01*
Y3640D01*
X3788D01*
Y3645D01*
X3773D01*
Y3623D01*
X3773Y3623D01*
X3774Y3623D01*
X3774Y3623D01*
X3774Y3622D01*
X3775Y3622D01*
X3775Y3622D01*
X3776Y3622D01*
X3776Y3622D01*
X3776D01*
X3777Y3622D01*
X3777Y3622D01*
X3777Y3621D01*
X3778Y3621D01*
X3778Y3621D01*
X3779Y3621D01*
X3779D01*
X3780Y3621D01*
X3780Y3621D01*
X3780Y3621D01*
X3781Y3621D01*
X3781Y3621D01*
X3782Y3620D01*
X3783D01*
X3783Y3620D01*
X3783D01*
X3783Y3620D01*
X3784Y3620D01*
X3784D01*
X3785Y3620D01*
X3786D01*
X3786Y3620D01*
X3787D01*
X3787Y3620D01*
X3787Y3620D01*
X3788Y3620D01*
X3789Y3621D01*
X3791Y3621D01*
X3792Y3621D01*
X3793Y3622D01*
X3793D01*
X3794Y3622D01*
X3794Y3622D01*
X3794Y3622D01*
X3794Y3622D01*
X3795Y3622D01*
X3795Y3623D01*
X3796Y3623D01*
X3797Y3624D01*
X3798Y3625D01*
X3799Y3626D01*
X3799Y3626D01*
X3799Y3626D01*
X3800Y3626D01*
X3800Y3626D01*
X3800Y3626D01*
X3800Y3627D01*
X3800Y3627D01*
X3801Y3628D01*
X3801Y3628D01*
X3801Y3629D01*
X3802Y3630D01*
X3803Y3631D01*
X3803Y3632D01*
Y3632D01*
X3803Y3633D01*
X3803Y3633D01*
X3803Y3633D01*
X3803Y3633D01*
X3804Y3634D01*
X3804Y3634D01*
X3804Y3635D01*
X3804Y3636D01*
X3804Y3636D01*
X3804Y3637D01*
X3804Y3638D01*
X3804Y3639D01*
X3804Y3640D01*
X3804Y3642D01*
Y3642D01*
Y3642D01*
Y3642D01*
X3804Y3643D01*
Y3643D01*
X3804Y3644D01*
X3804Y3644D01*
X3804Y3645D01*
X3804Y3646D01*
X3804Y3646D01*
X3804Y3648D01*
X3803Y3650D01*
X3803Y3651D01*
Y3651D01*
X3803Y3651D01*
X3803Y3652D01*
X3803Y3652D01*
X3803Y3652D01*
X3802Y3653D01*
X3802Y3653D01*
X3802Y3654D01*
X3801Y3655D01*
X3801Y3656D01*
X3800Y3657D01*
X3799Y3658D01*
X3799Y3658D01*
X3799Y3658D01*
X3799Y3659D01*
X3798Y3659D01*
X3798Y3659D01*
X3798Y3659D01*
X3797Y3660D01*
X3797Y3660D01*
X3797Y3660D01*
X3796Y3661D01*
X3795Y3661D01*
X3794Y3662D01*
X3792Y3663D01*
X3792D01*
X3792Y3663D01*
X3792Y3663D01*
X3792Y3663D01*
X3791Y3663D01*
X3791Y3663D01*
X3790Y3663D01*
X3790Y3664D01*
X3789Y3664D01*
X3789Y3664D01*
X3788Y3664D01*
X3787Y3664D01*
X3786Y3664D01*
X3784Y3664D01*
D02*
G37*
G36*
X3690Y3664D02*
X3678D01*
X3678Y3664D01*
X3677D01*
X3677Y3664D01*
X3677D01*
X3676Y3664D01*
X3675Y3663D01*
X3673Y3663D01*
X3672Y3663D01*
X3672D01*
X3672Y3663D01*
X3672Y3663D01*
X3672Y3663D01*
X3671Y3663D01*
X3671Y3662D01*
X3670Y3662D01*
X3669Y3662D01*
X3669Y3661D01*
X3668Y3661D01*
X3668Y3660D01*
X3668Y3660D01*
X3667Y3660D01*
X3667Y3660D01*
X3667Y3659D01*
X3666Y3658D01*
X3666Y3658D01*
X3665Y3657D01*
Y3657D01*
X3665Y3657D01*
X3665Y3657D01*
X3665Y3656D01*
X3665Y3656D01*
X3665Y3655D01*
X3665Y3654D01*
X3665Y3653D01*
X3665Y3652D01*
Y3652D01*
Y3652D01*
X3665Y3652D01*
X3665Y3651D01*
X3665Y3651D01*
X3665Y3650D01*
X3665Y3649D01*
X3665Y3649D01*
X3665Y3649D01*
X3665Y3648D01*
X3665Y3648D01*
X3666Y3648D01*
X3666Y3647D01*
X3666Y3647D01*
X3667Y3646D01*
X3667Y3645D01*
X3667Y3645D01*
X3667Y3645D01*
X3667Y3645D01*
X3668Y3645D01*
X3668Y3644D01*
X3669Y3644D01*
X3669Y3643D01*
X3670Y3643D01*
X3670Y3643D01*
X3670Y3643D01*
X3670Y3642D01*
X3671Y3642D01*
X3672Y3642D01*
X3672Y3642D01*
X3673Y3641D01*
X3674Y3641D01*
X3674Y3641D01*
X3673Y3641D01*
X3673Y3641D01*
X3673Y3641D01*
X3672Y3640D01*
X3672Y3640D01*
X3671Y3640D01*
X3671Y3639D01*
X3671Y3639D01*
X3670Y3639D01*
X3670Y3638D01*
X3670Y3638D01*
X3670Y3637D01*
X3669Y3637D01*
X3669Y3636D01*
X3668Y3635D01*
X3661Y3621D01*
X3668D01*
X3674Y3635D01*
X3674Y3635D01*
X3674Y3635D01*
X3675Y3635D01*
X3675Y3635D01*
X3675Y3636D01*
X3675Y3636D01*
X3676Y3637D01*
X3676Y3637D01*
X3676Y3637D01*
X3676Y3637D01*
X3676Y3638D01*
X3676Y3638D01*
X3677Y3638D01*
X3677Y3639D01*
X3677Y3639D01*
X3677Y3639D01*
X3678Y3639D01*
X3678Y3639D01*
X3678Y3639D01*
X3678Y3639D01*
X3679Y3639D01*
X3679Y3640D01*
X3679D01*
X3680Y3640D01*
X3680Y3640D01*
X3680Y3640D01*
X3680Y3640D01*
X3681Y3640D01*
X3681Y3640D01*
X3684D01*
Y3621D01*
X3690D01*
Y3664D01*
D02*
G37*
G36*
X3652D02*
X3628D01*
Y3659D01*
X3646D01*
Y3646D01*
X3629D01*
Y3641D01*
X3646D01*
Y3626D01*
X3628D01*
Y3621D01*
X3652D01*
Y3664D01*
D02*
G37*
G36*
X3763D02*
X3739D01*
Y3659D01*
X3757D01*
Y3646D01*
X3739D01*
Y3641D01*
X3757D01*
Y3626D01*
X3739D01*
Y3621D01*
X3763D01*
Y3664D01*
D02*
G37*
G36*
X3875D02*
X3863D01*
X3862Y3664D01*
X3862D01*
X3862Y3664D01*
X3861D01*
X3860Y3664D01*
X3859Y3663D01*
X3858Y3663D01*
X3857Y3663D01*
X3857D01*
X3857Y3663D01*
X3857Y3663D01*
X3857Y3663D01*
X3856Y3663D01*
X3855Y3662D01*
X3855Y3662D01*
X3854Y3662D01*
X3853Y3661D01*
X3853Y3661D01*
X3853Y3660D01*
X3852Y3660D01*
X3852Y3660D01*
X3852Y3660D01*
X3851Y3659D01*
X3851Y3658D01*
X3850Y3658D01*
X3850Y3657D01*
Y3657D01*
X3850Y3657D01*
X3850Y3657D01*
X3850Y3656D01*
X3850Y3656D01*
X3849Y3655D01*
X3849Y3654D01*
X3849Y3653D01*
X3849Y3652D01*
Y3652D01*
Y3652D01*
X3849Y3652D01*
X3849Y3651D01*
X3849Y3651D01*
X3849Y3650D01*
X3850Y3649D01*
X3850Y3649D01*
X3850Y3649D01*
X3850Y3648D01*
X3850Y3648D01*
X3850Y3648D01*
X3850Y3647D01*
X3851Y3647D01*
X3851Y3646D01*
X3852Y3645D01*
X3852Y3645D01*
X3852Y3645D01*
X3852Y3645D01*
X3852Y3645D01*
X3853Y3644D01*
X3853Y3644D01*
X3854Y3643D01*
X3854Y3643D01*
X3855Y3643D01*
X3855Y3643D01*
X3855Y3642D01*
X3856Y3642D01*
X3856Y3642D01*
X3857Y3642D01*
X3858Y3641D01*
X3858Y3641D01*
X3858Y3641D01*
X3858Y3641D01*
X3858Y3641D01*
X3857Y3641D01*
X3857Y3640D01*
X3856Y3640D01*
X3856Y3640D01*
X3855Y3639D01*
X3855Y3639D01*
X3855Y3639D01*
X3855Y3638D01*
X3855Y3638D01*
X3854Y3637D01*
X3854Y3637D01*
X3853Y3636D01*
X3853Y3635D01*
X3846Y3621D01*
X3853D01*
X3859Y3635D01*
X3859Y3635D01*
X3859Y3635D01*
X3859Y3635D01*
X3859Y3635D01*
X3860Y3636D01*
X3860Y3636D01*
X3860Y3637D01*
X3860Y3637D01*
X3861Y3637D01*
X3861Y3637D01*
X3861Y3638D01*
X3861Y3638D01*
X3861Y3638D01*
X3862Y3639D01*
X3862Y3639D01*
X3862Y3639D01*
X3862Y3639D01*
X3862Y3639D01*
X3863Y3639D01*
X3863Y3639D01*
X3863Y3639D01*
X3864Y3640D01*
X3864D01*
X3864Y3640D01*
X3864Y3640D01*
X3865Y3640D01*
X3865Y3640D01*
X3865Y3640D01*
X3866Y3640D01*
X3869D01*
Y3621D01*
X3875D01*
Y3664D01*
D02*
G37*
G36*
X3829D02*
X3821D01*
X3807Y3621D01*
X3813D01*
X3816Y3630D01*
X3834D01*
X3837Y3621D01*
X3843D01*
X3829Y3664D01*
D02*
G37*
G36*
X3726Y3572D02*
X3720D01*
X3709Y3540D01*
X3714D01*
X3716Y3547D01*
X3730D01*
X3732Y3540D01*
X3736D01*
X3726Y3572D01*
D02*
G37*
G36*
X3566D02*
X3547D01*
Y3569D01*
X3554D01*
Y3544D01*
X3547D01*
Y3540D01*
X3566D01*
Y3544D01*
X3559D01*
Y3569D01*
X3566D01*
Y3572D01*
D02*
G37*
G36*
X3809D02*
X3803D01*
X3792Y3540D01*
X3797D01*
X3799Y3547D01*
X3813D01*
X3815Y3540D01*
X3820D01*
X3809Y3572D01*
D02*
G37*
G36*
X4031D02*
X4025D01*
X4014Y3540D01*
X4019D01*
X4021Y3547D01*
X4035D01*
X4037Y3540D01*
X4041D01*
X4031Y3572D01*
D02*
G37*
G36*
X4010D02*
X4000D01*
X4000Y3572D01*
X4000Y3572D01*
X4000D01*
X3999Y3572D01*
X3998Y3572D01*
X3997Y3572D01*
X3997Y3572D01*
X3996Y3571D01*
X3995Y3571D01*
X3994Y3570D01*
X3993Y3570D01*
X3992Y3569D01*
X3992Y3569D01*
X3992Y3569D01*
X3991Y3568D01*
X3991Y3568D01*
X3991Y3567D01*
X3990Y3567D01*
X3990Y3566D01*
X3990Y3565D01*
X3990Y3565D01*
Y3564D01*
Y3564D01*
Y3564D01*
X3990Y3564D01*
Y3564D01*
X3990Y3564D01*
X3990Y3563D01*
X3991Y3562D01*
X3991Y3562D01*
X3991Y3561D01*
X3991Y3560D01*
Y3560D01*
X3992Y3560D01*
X3992Y3560D01*
X3992Y3560D01*
X3992Y3559D01*
X3992Y3559D01*
X3993Y3559D01*
X3993Y3559D01*
X3993Y3558D01*
X3994Y3558D01*
X3994Y3558D01*
X3994Y3558D01*
X3995Y3557D01*
X3995Y3557D01*
X3995D01*
X3995Y3557D01*
X3995Y3557D01*
X3995Y3557D01*
X3994Y3557D01*
X3994Y3557D01*
X3993Y3557D01*
X3993Y3556D01*
X3993Y3556D01*
X3993Y3556D01*
X3993Y3556D01*
X3992Y3556D01*
X3992Y3556D01*
X3992Y3556D01*
X3991Y3555D01*
X3991Y3555D01*
X3991Y3555D01*
X3991Y3555D01*
X3991Y3555D01*
X3990Y3554D01*
X3990Y3554D01*
X3990Y3554D01*
X3990Y3553D01*
X3990Y3553D01*
X3990Y3553D01*
X3990Y3552D01*
X3989Y3552D01*
X3989Y3552D01*
X3989Y3551D01*
X3989Y3551D01*
X3989Y3550D01*
X3989Y3550D01*
Y3550D01*
Y3550D01*
Y3550D01*
Y3549D01*
X3989Y3549D01*
Y3549D01*
X3989Y3548D01*
X3989Y3548D01*
X3989Y3547D01*
X3990Y3546D01*
X3990Y3546D01*
Y3546D01*
X3990Y3546D01*
X3990Y3546D01*
X3990Y3545D01*
X3990Y3545D01*
X3991Y3545D01*
X3991Y3544D01*
X3991Y3544D01*
X3992Y3543D01*
X3993Y3543D01*
X3993D01*
X3993Y3543D01*
X3993Y3543D01*
X3993Y3542D01*
X3993Y3542D01*
X3993Y3542D01*
X3994Y3542D01*
X3994Y3542D01*
X3995Y3541D01*
X3996Y3541D01*
X3996Y3541D01*
X3997D01*
X3997Y3541D01*
X3997Y3541D01*
X3997Y3541D01*
X3997Y3541D01*
X3997Y3541D01*
X3998Y3541D01*
X3998Y3541D01*
X3998Y3540D01*
X3999Y3540D01*
X4000Y3540D01*
X4001Y3540D01*
X4002Y3540D01*
X4010D01*
Y3572D01*
D02*
G37*
G36*
X3501Y3548D02*
X3501D01*
X3501Y3548D01*
X3501Y3548D01*
X3500Y3548D01*
X3500Y3548D01*
X3500D01*
X3500Y3548D01*
X3499Y3547D01*
X3499Y3547D01*
X3499Y3547D01*
X3498Y3547D01*
X3498Y3547D01*
X3498Y3547D01*
X3498Y3546D01*
X3498Y3546D01*
X3498Y3546D01*
X3498Y3546D01*
X3498Y3545D01*
Y3545D01*
X3497Y3545D01*
X3497Y3545D01*
X3497Y3545D01*
X3497Y3545D01*
X3497Y3544D01*
X3497Y3544D01*
Y3544D01*
Y3544D01*
Y3543D01*
X3497Y3543D01*
X3497Y3543D01*
X3497Y3543D01*
X3498Y3542D01*
Y3542D01*
X3498Y3542D01*
X3498Y3542D01*
X3498Y3542D01*
X3498Y3541D01*
X3498Y3541D01*
X3498Y3541D01*
X3499Y3541D01*
X3499Y3541D01*
X3499Y3541D01*
X3499Y3540D01*
X3499Y3540D01*
X3500Y3540D01*
X3500D01*
X3500Y3540D01*
X3500Y3540D01*
X3500Y3540D01*
X3500Y3540D01*
X3501Y3540D01*
X3501Y3540D01*
X3501D01*
X3502Y3540D01*
X3502D01*
X3502Y3540D01*
X3502Y3540D01*
X3503Y3540D01*
X3503D01*
X3503Y3540D01*
X3503Y3540D01*
X3503Y3540D01*
X3504Y3541D01*
X3504Y3541D01*
X3504Y3541D01*
X3504Y3541D01*
X3504Y3541D01*
X3505Y3541D01*
X3505Y3541D01*
X3505Y3542D01*
X3505Y3542D01*
Y3542D01*
X3505Y3542D01*
X3505Y3542D01*
X3505Y3543D01*
X3505Y3543D01*
X3505Y3543D01*
X3505Y3544D01*
Y3544D01*
Y3544D01*
X3505Y3544D01*
Y3544D01*
X3505Y3545D01*
X3505Y3545D01*
X3505Y3545D01*
Y3545D01*
X3505Y3545D01*
X3505Y3546D01*
X3505Y3546D01*
X3505Y3546D01*
X3504Y3547D01*
X3504Y3547D01*
X3504Y3547D01*
X3504Y3547D01*
X3504Y3547D01*
X3504Y3547D01*
X3503Y3547D01*
X3503Y3548D01*
X3503D01*
X3503Y3548D01*
X3503Y3548D01*
X3502Y3548D01*
X3502Y3548D01*
X3502Y3548D01*
X3501Y3548D01*
D02*
G37*
G36*
X3887Y3575D02*
X3887D01*
X3887Y3575D01*
X3886D01*
X3886Y3575D01*
X3886Y3575D01*
X3885Y3575D01*
X3884Y3575D01*
X3884Y3575D01*
X3883Y3574D01*
X3882Y3574D01*
X3882D01*
X3882Y3574D01*
X3882Y3574D01*
X3882Y3574D01*
X3881Y3574D01*
X3881Y3574D01*
X3881Y3573D01*
X3880Y3573D01*
X3880Y3572D01*
X3879Y3571D01*
X3878Y3571D01*
X3878Y3571D01*
X3878Y3570D01*
X3878Y3570D01*
X3878Y3570D01*
X3878Y3570D01*
X3878Y3570D01*
X3878Y3569D01*
X3878Y3569D01*
X3877Y3569D01*
X3877Y3568D01*
X3877Y3568D01*
X3877Y3567D01*
X3877Y3566D01*
X3876Y3565D01*
Y3565D01*
X3876Y3565D01*
X3876Y3565D01*
X3876Y3564D01*
X3876Y3564D01*
X3876Y3564D01*
X3876Y3563D01*
X3876Y3563D01*
X3876Y3562D01*
X3876Y3562D01*
X3876Y3561D01*
X3876Y3561D01*
X3876Y3560D01*
X3876Y3559D01*
X3876Y3558D01*
Y3558D01*
Y3557D01*
Y3557D01*
Y3557D01*
X3876Y3557D01*
Y3556D01*
X3876Y3556D01*
Y3555D01*
X3876Y3555D01*
X3876Y3554D01*
X3876Y3553D01*
X3876Y3552D01*
X3876Y3550D01*
Y3550D01*
X3876Y3550D01*
X3876Y3550D01*
X3876Y3550D01*
X3876Y3550D01*
X3876Y3549D01*
X3876Y3549D01*
X3877Y3549D01*
X3877Y3548D01*
X3877Y3547D01*
X3877Y3546D01*
X3878Y3545D01*
Y3545D01*
X3878Y3545D01*
X3878Y3545D01*
X3878Y3545D01*
X3878Y3545D01*
X3878Y3544D01*
X3879Y3544D01*
X3879Y3543D01*
X3879Y3543D01*
X3880Y3543D01*
X3880Y3543D01*
X3880Y3542D01*
X3881Y3542D01*
X3881Y3542D01*
X3881Y3542D01*
X3882Y3542D01*
X3882Y3542D01*
X3883Y3542D01*
X3883D01*
X3883Y3542D01*
X3884Y3542D01*
X3884Y3542D01*
X3885Y3542D01*
X3885Y3542D01*
X3885Y3542D01*
X3886Y3543D01*
X3886Y3543D01*
X3886Y3543D01*
X3886Y3543D01*
X3886Y3543D01*
X3886Y3544D01*
X3887Y3544D01*
X3887Y3545D01*
X3887Y3545D01*
Y3545D01*
X3887Y3545D01*
X3887Y3545D01*
X3887Y3545D01*
X3887Y3545D01*
X3887Y3544D01*
X3888Y3544D01*
X3888Y3543D01*
X3888Y3543D01*
X3889Y3543D01*
X3889Y3543D01*
X3889Y3542D01*
X3889Y3542D01*
X3890Y3542D01*
X3890Y3542D01*
X3890Y3542D01*
X3891Y3542D01*
X3891Y3542D01*
X3892D01*
X3892Y3542D01*
X3892Y3542D01*
X3892Y3542D01*
X3893Y3542D01*
X3893Y3542D01*
X3894Y3542D01*
X3894Y3543D01*
X3894Y3543D01*
X3895Y3543D01*
X3895Y3543D01*
Y3543D01*
X3895Y3544D01*
X3895Y3544D01*
X3895Y3544D01*
X3895Y3544D01*
X3895Y3544D01*
X3895Y3544D01*
X3895Y3545D01*
X3896Y3545D01*
X3896Y3546D01*
X3896Y3546D01*
X3896Y3546D01*
X3896Y3547D01*
X3896Y3548D01*
X3896Y3548D01*
Y3549D01*
Y3549D01*
Y3549D01*
Y3549D01*
X3896Y3550D01*
Y3550D01*
X3896Y3551D01*
X3896Y3551D01*
X3896Y3552D01*
Y3552D01*
Y3552D01*
X3896Y3552D01*
X3896Y3552D01*
X3896Y3553D01*
X3896Y3553D01*
X3896Y3554D01*
X3895Y3554D01*
X3895Y3555D01*
Y3555D01*
X3895Y3555D01*
X3895Y3555D01*
X3895Y3556D01*
X3895Y3556D01*
X3895Y3556D01*
X3895Y3557D01*
X3894Y3558D01*
Y3558D01*
X3894Y3558D01*
X3894Y3558D01*
X3894Y3558D01*
X3894Y3559D01*
X3894Y3559D01*
X3893Y3560D01*
X3893Y3560D01*
X3893Y3560D01*
X3893Y3561D01*
X3893Y3561D01*
X3892Y3561D01*
X3892Y3561D01*
X3892Y3561D01*
X3892Y3562D01*
X3891Y3562D01*
X3891Y3562D01*
X3891Y3562D01*
X3891Y3562D01*
X3890Y3562D01*
X3890Y3563D01*
X3889Y3563D01*
X3889Y3563D01*
X3888Y3563D01*
X3888Y3563D01*
X3888D01*
X3887Y3563D01*
X3887Y3563D01*
X3887Y3563D01*
X3886Y3563D01*
X3886D01*
X3886Y3563D01*
X3886Y3563D01*
X3886Y3563D01*
X3885Y3562D01*
X3885Y3562D01*
X3885Y3562D01*
X3882Y3563D01*
X3884Y3550D01*
Y3550D01*
Y3550D01*
X3884Y3550D01*
X3884Y3550D01*
X3884Y3549D01*
X3884Y3549D01*
X3884Y3548D01*
X3884Y3548D01*
X3884Y3548D01*
Y3548D01*
Y3547D01*
Y3547D01*
Y3547D01*
X3884Y3546D01*
X3884Y3546D01*
X3884Y3546D01*
Y3546D01*
X3884Y3546D01*
X3884Y3546D01*
X3884Y3546D01*
X3884Y3545D01*
X3883Y3545D01*
X3883Y3545D01*
X3883D01*
X3883Y3545D01*
X3883Y3545D01*
X3883Y3545D01*
X3883Y3545D01*
X3882D01*
X3882Y3545D01*
X3882Y3545D01*
X3882Y3545D01*
X3882Y3545D01*
X3881Y3545D01*
X3881Y3546D01*
X3881Y3546D01*
X3881Y3546D01*
X3881Y3546D01*
X3881Y3546D01*
X3881Y3547D01*
X3881Y3547D01*
X3880Y3547D01*
X3880Y3548D01*
Y3548D01*
X3880Y3548D01*
Y3548D01*
X3880Y3548D01*
X3880Y3548D01*
X3880Y3549D01*
X3880Y3549D01*
X3880Y3550D01*
X3879Y3551D01*
X3879Y3552D01*
Y3552D01*
Y3552D01*
X3879Y3552D01*
Y3552D01*
X3879Y3552D01*
X3879Y3553D01*
X3879Y3553D01*
X3879Y3553D01*
Y3554D01*
X3879Y3554D01*
X3879Y3555D01*
X3879Y3555D01*
X3879Y3556D01*
Y3557D01*
Y3557D01*
Y3557D01*
Y3558D01*
Y3558D01*
Y3558D01*
X3879Y3558D01*
Y3559D01*
X3879Y3559D01*
X3879Y3560D01*
X3879Y3561D01*
X3879Y3562D01*
X3880Y3564D01*
Y3564D01*
X3880Y3564D01*
Y3564D01*
X3880Y3564D01*
X3880Y3564D01*
X3880Y3564D01*
X3880Y3565D01*
X3880Y3565D01*
X3880Y3566D01*
X3880Y3567D01*
X3881Y3567D01*
X3881Y3568D01*
Y3568D01*
X3881Y3568D01*
X3881Y3568D01*
X3881Y3569D01*
X3881Y3569D01*
X3882Y3569D01*
X3882Y3570D01*
X3882Y3570D01*
X3883Y3571D01*
X3883Y3571D01*
X3883D01*
X3883Y3571D01*
X3884Y3571D01*
X3884Y3571D01*
X3884Y3572D01*
X3884Y3572D01*
X3885Y3572D01*
X3886Y3572D01*
X3886Y3572D01*
X3887Y3572D01*
X3887D01*
X3888Y3572D01*
X3888Y3572D01*
X3889Y3572D01*
X3889Y3572D01*
X3890Y3572D01*
X3890Y3571D01*
X3890D01*
X3890Y3571D01*
X3891Y3571D01*
X3891Y3571D01*
X3891Y3571D01*
X3892Y3570D01*
X3892Y3570D01*
X3893Y3570D01*
X3893Y3569D01*
Y3569D01*
X3893Y3569D01*
X3893Y3569D01*
X3894Y3569D01*
X3894Y3568D01*
X3894Y3568D01*
X3894Y3567D01*
X3895Y3567D01*
X3895Y3566D01*
X3896Y3565D01*
Y3565D01*
X3896Y3565D01*
X3896Y3565D01*
X3896Y3565D01*
X3896Y3565D01*
X3896Y3564D01*
X3896Y3564D01*
X3896Y3564D01*
X3897Y3563D01*
X3897Y3562D01*
X3897Y3561D01*
X3898Y3561D01*
Y3560D01*
X3898Y3560D01*
X3898Y3560D01*
X3898Y3560D01*
X3898Y3560D01*
X3898Y3560D01*
X3898Y3559D01*
X3898Y3559D01*
X3898Y3558D01*
X3898Y3558D01*
X3898Y3557D01*
X3899Y3556D01*
X3899Y3555D01*
Y3555D01*
X3899Y3555D01*
Y3555D01*
X3899Y3554D01*
X3899Y3554D01*
X3899Y3554D01*
X3899Y3553D01*
X3899Y3553D01*
X3899Y3553D01*
X3899Y3552D01*
X3899Y3551D01*
X3899Y3550D01*
X3899Y3549D01*
Y3549D01*
Y3549D01*
Y3548D01*
Y3548D01*
Y3548D01*
X3899Y3548D01*
Y3548D01*
Y3547D01*
X3899Y3547D01*
X3899Y3546D01*
X3899Y3545D01*
X3899Y3544D01*
X3899Y3543D01*
X3899Y3542D01*
X3898Y3541D01*
X3898Y3540D01*
X3898Y3539D01*
X3898Y3538D01*
X3897Y3538D01*
X3897Y3537D01*
X3897Y3537D01*
X3897Y3537D01*
X3897Y3537D01*
X3896Y3536D01*
X3896Y3536D01*
X3896Y3536D01*
X3895Y3535D01*
X3895Y3535D01*
X3895Y3535D01*
X3894Y3534D01*
X3894Y3534D01*
X3893Y3534D01*
X3892Y3533D01*
X3892Y3533D01*
X3891Y3533D01*
X3890Y3533D01*
X3890D01*
X3890Y3533D01*
X3889D01*
X3889Y3533D01*
X3888Y3533D01*
X3887Y3533D01*
X3887Y3533D01*
X3886Y3533D01*
X3886D01*
X3886Y3534D01*
X3886Y3534D01*
X3886Y3534D01*
X3886Y3534D01*
X3885Y3534D01*
X3885Y3534D01*
X3884Y3534D01*
X3884Y3534D01*
X3883Y3535D01*
X3882Y3535D01*
Y3532D01*
X3882D01*
X3882Y3532D01*
X3882Y3532D01*
X3882Y3532D01*
X3883Y3532D01*
X3883Y3532D01*
X3883Y3531D01*
X3884Y3531D01*
X3885Y3531D01*
X3885Y3531D01*
X3886Y3530D01*
X3886D01*
X3886Y3530D01*
X3886D01*
X3887Y3530D01*
X3887Y3530D01*
X3887Y3530D01*
X3887Y3530D01*
X3888Y3530D01*
X3889Y3530D01*
X3890Y3530D01*
X3890Y3530D01*
X3891D01*
X3891Y3530D01*
X3891Y3530D01*
X3892Y3530D01*
X3893Y3530D01*
X3893Y3530D01*
X3894Y3531D01*
X3895Y3531D01*
X3895Y3531D01*
X3896Y3531D01*
X3897Y3532D01*
X3898Y3532D01*
X3898Y3533D01*
X3899Y3534D01*
X3900Y3535D01*
X3900Y3535D01*
X3900Y3535D01*
X3900Y3535D01*
X3900Y3536D01*
X3900Y3536D01*
X3901Y3537D01*
X3901Y3537D01*
X3901Y3538D01*
X3901Y3539D01*
X3902Y3540D01*
X3902Y3541D01*
X3902Y3543D01*
X3902Y3544D01*
X3903Y3545D01*
X3903Y3547D01*
X3903Y3549D01*
Y3549D01*
Y3549D01*
Y3549D01*
Y3549D01*
Y3550D01*
X3903Y3550D01*
Y3550D01*
Y3551D01*
X3903Y3551D01*
X3903Y3552D01*
X3903Y3553D01*
X3902Y3554D01*
X3902Y3556D01*
Y3556D01*
X3902Y3556D01*
X3902Y3556D01*
X3902Y3556D01*
X3902Y3557D01*
X3902Y3557D01*
X3902Y3557D01*
X3902Y3558D01*
X3902Y3558D01*
X3902Y3559D01*
X3901Y3560D01*
X3901Y3561D01*
X3901Y3562D01*
Y3562D01*
X3901Y3562D01*
X3901Y3562D01*
X3901Y3563D01*
X3900Y3563D01*
X3900Y3563D01*
X3900Y3564D01*
X3900Y3564D01*
X3900Y3565D01*
X3899Y3566D01*
X3899Y3567D01*
X3898Y3567D01*
X3898Y3568D01*
X3898Y3568D01*
X3898Y3568D01*
X3898Y3568D01*
X3898Y3568D01*
X3898Y3568D01*
X3897Y3569D01*
X3897Y3570D01*
X3896Y3570D01*
X3896Y3571D01*
X3895Y3572D01*
X3895Y3572D01*
X3895Y3572D01*
X3895Y3572D01*
X3895Y3572D01*
X3895Y3572D01*
X3895Y3572D01*
X3894Y3573D01*
X3894Y3573D01*
X3893Y3573D01*
X3892Y3574D01*
X3891Y3574D01*
X3891D01*
X3891Y3574D01*
X3891Y3574D01*
X3891Y3574D01*
X3891Y3575D01*
X3891Y3575D01*
X3890Y3575D01*
X3889Y3575D01*
X3889Y3575D01*
X3888Y3575D01*
X3887Y3575D01*
D02*
G37*
G36*
X3945Y3548D02*
X3944D01*
X3944Y3548D01*
X3944Y3548D01*
X3944Y3548D01*
X3943Y3548D01*
X3943D01*
X3943Y3548D01*
X3943Y3547D01*
X3943Y3547D01*
X3942Y3547D01*
X3942Y3547D01*
X3942Y3547D01*
X3942Y3547D01*
X3942Y3546D01*
X3942Y3546D01*
X3941Y3546D01*
X3941Y3546D01*
X3941Y3545D01*
Y3545D01*
X3941Y3545D01*
X3941Y3545D01*
X3941Y3545D01*
X3941Y3545D01*
X3941Y3544D01*
X3941Y3544D01*
Y3544D01*
Y3544D01*
Y3543D01*
X3941Y3543D01*
X3941Y3543D01*
X3941Y3543D01*
X3941Y3542D01*
Y3542D01*
X3941Y3542D01*
X3941Y3542D01*
X3941Y3542D01*
X3942Y3541D01*
X3942Y3541D01*
X3942Y3541D01*
X3942Y3541D01*
X3942Y3541D01*
X3942Y3541D01*
X3942Y3540D01*
X3943Y3540D01*
X3943Y3540D01*
X3943D01*
X3943Y3540D01*
X3943Y3540D01*
X3944Y3540D01*
X3944Y3540D01*
X3944Y3540D01*
X3945Y3540D01*
X3945D01*
X3945Y3540D01*
X3945D01*
X3946Y3540D01*
X3946Y3540D01*
X3946Y3540D01*
X3946D01*
X3947Y3540D01*
X3947Y3540D01*
X3947Y3540D01*
X3947Y3541D01*
X3948Y3541D01*
X3948Y3541D01*
X3948Y3541D01*
X3948Y3541D01*
X3948Y3541D01*
X3948Y3541D01*
X3948Y3542D01*
X3949Y3542D01*
Y3542D01*
X3949Y3542D01*
X3949Y3542D01*
X3949Y3543D01*
X3949Y3543D01*
X3949Y3543D01*
X3949Y3544D01*
Y3544D01*
Y3544D01*
X3949Y3544D01*
Y3544D01*
X3949Y3545D01*
X3949Y3545D01*
X3949Y3545D01*
Y3545D01*
X3948Y3545D01*
X3948Y3546D01*
X3948Y3546D01*
X3948Y3546D01*
X3948Y3547D01*
X3948Y3547D01*
X3948Y3547D01*
X3947Y3547D01*
X3947Y3547D01*
X3947Y3547D01*
X3947Y3547D01*
X3946Y3548D01*
X3946D01*
X3946Y3548D01*
X3946Y3548D01*
X3946Y3548D01*
X3946Y3548D01*
X3945Y3548D01*
X3945Y3548D01*
D02*
G37*
G36*
X4110Y3573D02*
X4109D01*
X4109Y3573D01*
X4109D01*
X4108Y3573D01*
X4108D01*
X4107Y3573D01*
X4107Y3573D01*
X4107Y3573D01*
X4107Y3573D01*
X4106Y3572D01*
X4106D01*
X4106Y3572D01*
X4106D01*
X4105Y3572D01*
X4105Y3572D01*
X4105Y3572D01*
X4104Y3572D01*
X4104D01*
X4104Y3572D01*
X4104Y3572D01*
X4103Y3572D01*
X4103Y3572D01*
X4103Y3572D01*
X4102Y3572D01*
Y3568D01*
X4102D01*
X4102Y3568D01*
X4102Y3568D01*
X4103Y3568D01*
X4103Y3568D01*
X4103Y3568D01*
X4103Y3568D01*
X4104Y3568D01*
X4105Y3568D01*
X4105Y3569D01*
X4106Y3569D01*
X4106D01*
X4106Y3569D01*
X4106D01*
X4107Y3569D01*
X4107Y3569D01*
X4108Y3569D01*
X4108Y3569D01*
X4109Y3569D01*
X4110D01*
X4110Y3569D01*
X4111D01*
X4111Y3569D01*
X4111Y3569D01*
X4112Y3569D01*
X4113Y3569D01*
X4114Y3568D01*
X4114Y3568D01*
X4115Y3568D01*
X4115Y3568D01*
X4115D01*
X4115Y3568D01*
X4115Y3567D01*
X4116Y3567D01*
X4116Y3567D01*
X4116Y3566D01*
X4117Y3566D01*
X4117Y3565D01*
X4117Y3565D01*
X4117Y3564D01*
Y3564D01*
Y3564D01*
X4117Y3564D01*
X4117Y3564D01*
X4117Y3563D01*
X4117Y3563D01*
X4117Y3562D01*
X4116Y3562D01*
X4116Y3562D01*
X4116Y3562D01*
X4116Y3562D01*
X4116Y3562D01*
X4115Y3561D01*
X4115Y3561D01*
X4115Y3561D01*
X4114Y3560D01*
X4114Y3560D01*
X4114Y3560D01*
X4114Y3560D01*
X4114Y3560D01*
X4113Y3560D01*
X4113Y3560D01*
X4112Y3559D01*
X4112Y3559D01*
X4112D01*
X4112Y3559D01*
X4111Y3559D01*
X4111Y3559D01*
X4111Y3559D01*
X4110Y3559D01*
X4110Y3558D01*
X4109Y3558D01*
X4109Y3558D01*
X4109D01*
X4109Y3558D01*
X4108Y3558D01*
X4108Y3558D01*
X4108Y3557D01*
X4107Y3557D01*
X4107Y3557D01*
X4106Y3556D01*
X4105D01*
X4105Y3556D01*
X4105Y3556D01*
X4105Y3556D01*
X4105Y3556D01*
X4104Y3556D01*
X4104Y3555D01*
X4103Y3555D01*
X4103Y3555D01*
X4103Y3555D01*
X4103Y3554D01*
X4102Y3554D01*
X4102Y3554D01*
X4102Y3554D01*
X4102Y3553D01*
X4101Y3553D01*
X4101Y3552D01*
X4101Y3552D01*
X4101Y3552D01*
X4101Y3552D01*
X4101Y3551D01*
X4100Y3551D01*
X4100Y3550D01*
X4100Y3550D01*
X4100Y3549D01*
Y3549D01*
Y3549D01*
Y3549D01*
Y3548D01*
X4100Y3548D01*
Y3548D01*
X4100Y3547D01*
X4100Y3547D01*
X4101Y3546D01*
X4101Y3546D01*
X4101Y3545D01*
Y3545D01*
X4101Y3545D01*
X4101Y3545D01*
X4101Y3545D01*
X4102Y3544D01*
X4102Y3544D01*
X4102Y3543D01*
X4103Y3543D01*
X4103Y3542D01*
X4104Y3542D01*
X4104D01*
X4104Y3542D01*
X4104Y3542D01*
X4104Y3542D01*
X4104Y3542D01*
X4104Y3542D01*
X4105Y3541D01*
X4105Y3541D01*
X4106Y3541D01*
X4107Y3541D01*
X4108Y3540D01*
X4108D01*
X4108Y3540D01*
X4108Y3540D01*
X4108Y3540D01*
X4108Y3540D01*
X4109Y3540D01*
X4109Y3540D01*
X4109Y3540D01*
X4110Y3540D01*
X4110Y3540D01*
X4111Y3540D01*
X4112Y3540D01*
X4113Y3540D01*
X4113D01*
X4114Y3540D01*
X4114D01*
X4115Y3540D01*
X4115Y3540D01*
X4116D01*
X4116Y3540D01*
X4116D01*
X4116Y3540D01*
X4117Y3540D01*
X4117Y3540D01*
X4118Y3540D01*
X4118D01*
X4118Y3540D01*
X4118Y3540D01*
X4119Y3540D01*
X4119Y3540D01*
X4119Y3540D01*
X4120Y3540D01*
X4120D01*
X4120Y3540D01*
X4121Y3540D01*
X4121Y3541D01*
X4121Y3541D01*
X4121Y3541D01*
X4122Y3541D01*
Y3545D01*
X4122D01*
X4122Y3545D01*
X4122Y3545D01*
X4122Y3545D01*
X4121Y3545D01*
X4121Y3545D01*
X4121Y3545D01*
X4120Y3545D01*
X4119Y3544D01*
X4119Y3544D01*
X4118Y3544D01*
X4118D01*
X4118Y3544D01*
X4117Y3544D01*
X4117Y3544D01*
X4117Y3544D01*
X4117Y3544D01*
X4116Y3544D01*
X4116Y3544D01*
X4116Y3544D01*
X4115Y3544D01*
X4114Y3544D01*
X4113Y3544D01*
X4112D01*
X4112Y3544D01*
X4111D01*
X4111Y3544D01*
X4110Y3544D01*
X4110Y3544D01*
X4109Y3544D01*
X4109D01*
X4109Y3544D01*
X4109Y3544D01*
X4108Y3544D01*
X4108Y3544D01*
X4107Y3544D01*
X4107Y3545D01*
X4107Y3545D01*
X4107Y3545D01*
X4106Y3545D01*
X4106Y3545D01*
X4106Y3545D01*
X4106Y3546D01*
X4106Y3546D01*
X4105Y3546D01*
X4105Y3546D01*
X4105Y3546D01*
X4105Y3547D01*
X4105Y3547D01*
X4105Y3547D01*
X4105Y3547D01*
X4105Y3548D01*
X4105Y3548D01*
X4105Y3549D01*
Y3549D01*
Y3549D01*
X4105Y3549D01*
X4105Y3549D01*
X4105Y3550D01*
X4105Y3550D01*
X4105Y3550D01*
X4106Y3551D01*
X4106Y3551D01*
X4106Y3551D01*
X4106Y3551D01*
X4106Y3551D01*
X4106Y3552D01*
X4107Y3552D01*
X4107Y3552D01*
X4107Y3552D01*
X4107Y3553D01*
X4108Y3553D01*
X4108Y3553D01*
X4108Y3553D01*
X4109Y3553D01*
X4109Y3553D01*
X4110Y3554D01*
X4110Y3554D01*
X4110Y3554D01*
X4110Y3554D01*
X4111Y3554D01*
X4111Y3554D01*
X4112Y3554D01*
X4112Y3555D01*
X4113Y3555D01*
X4113Y3555D01*
X4113D01*
X4113Y3555D01*
X4113Y3555D01*
X4114Y3555D01*
X4114Y3555D01*
X4115Y3556D01*
X4115Y3556D01*
X4116Y3556D01*
X4116Y3556D01*
X4117Y3557D01*
X4117Y3557D01*
X4117Y3557D01*
X4118Y3557D01*
X4118Y3558D01*
X4119Y3558D01*
X4119Y3558D01*
X4119Y3558D01*
X4119Y3558D01*
X4119Y3559D01*
X4120Y3559D01*
X4120Y3559D01*
X4120Y3560D01*
X4121Y3560D01*
X4121Y3561D01*
Y3561D01*
X4121Y3561D01*
X4121Y3561D01*
X4121Y3561D01*
X4121Y3562D01*
X4121Y3562D01*
X4121Y3563D01*
X4122Y3563D01*
X4122Y3564D01*
Y3564D01*
Y3564D01*
Y3564D01*
Y3564D01*
X4122Y3565D01*
X4121Y3565D01*
X4121Y3565D01*
X4121Y3566D01*
X4121Y3567D01*
X4121Y3567D01*
Y3567D01*
X4121Y3567D01*
X4121Y3567D01*
X4121Y3568D01*
X4120Y3568D01*
X4120Y3569D01*
X4120Y3569D01*
X4119Y3570D01*
X4119Y3570D01*
X4119D01*
X4119Y3570D01*
X4119Y3570D01*
X4118Y3570D01*
X4118Y3571D01*
X4117Y3571D01*
X4117Y3571D01*
X4116Y3572D01*
X4115Y3572D01*
X4115D01*
X4115Y3572D01*
X4115Y3572D01*
X4115Y3572D01*
X4114Y3572D01*
X4114Y3572D01*
X4114Y3572D01*
X4114Y3572D01*
X4113Y3572D01*
X4113Y3573D01*
X4112Y3573D01*
X4111Y3573D01*
X4110Y3573D01*
D02*
G37*
G36*
X3971D02*
X3971D01*
X3970Y3573D01*
X3970D01*
X3969Y3573D01*
X3969D01*
X3969Y3573D01*
X3969Y3573D01*
X3968Y3573D01*
X3968Y3573D01*
X3967Y3572D01*
X3967D01*
X3967Y3572D01*
X3967D01*
X3967Y3572D01*
X3966Y3572D01*
X3966Y3572D01*
X3965Y3572D01*
X3965D01*
X3965Y3572D01*
X3965Y3572D01*
X3965Y3572D01*
X3965Y3572D01*
X3964Y3572D01*
X3964Y3572D01*
Y3568D01*
X3964D01*
X3964Y3568D01*
X3964Y3568D01*
X3964Y3568D01*
X3964Y3568D01*
X3964Y3568D01*
X3965Y3568D01*
X3965Y3568D01*
X3966Y3568D01*
X3967Y3569D01*
X3967Y3569D01*
X3968D01*
X3968Y3569D01*
X3968D01*
X3968Y3569D01*
X3969Y3569D01*
X3969Y3569D01*
X3970Y3569D01*
X3970Y3569D01*
X3971D01*
X3972Y3569D01*
X3972D01*
X3972Y3569D01*
X3973Y3569D01*
X3973Y3569D01*
X3974Y3569D01*
X3975Y3568D01*
X3976Y3568D01*
X3976Y3568D01*
X3977Y3568D01*
X3977D01*
X3977Y3568D01*
X3977Y3567D01*
X3977Y3567D01*
X3978Y3567D01*
X3978Y3566D01*
X3978Y3566D01*
X3978Y3565D01*
X3978Y3565D01*
X3978Y3564D01*
Y3564D01*
Y3564D01*
X3978Y3564D01*
X3978Y3564D01*
X3978Y3563D01*
X3978Y3563D01*
X3978Y3562D01*
X3978Y3562D01*
X3978Y3562D01*
X3978Y3562D01*
X3977Y3562D01*
X3977Y3562D01*
X3977Y3561D01*
X3977Y3561D01*
X3976Y3561D01*
X3976Y3560D01*
X3976Y3560D01*
X3976Y3560D01*
X3975Y3560D01*
X3975Y3560D01*
X3975Y3560D01*
X3974Y3560D01*
X3974Y3559D01*
X3973Y3559D01*
X3973D01*
X3973Y3559D01*
X3973Y3559D01*
X3973Y3559D01*
X3972Y3559D01*
X3972Y3559D01*
X3971Y3558D01*
X3971Y3558D01*
X3970Y3558D01*
X3970D01*
X3970Y3558D01*
X3970Y3558D01*
X3969Y3558D01*
X3969Y3557D01*
X3969Y3557D01*
X3968Y3557D01*
X3967Y3556D01*
X3967D01*
X3967Y3556D01*
X3967Y3556D01*
X3966Y3556D01*
X3966Y3556D01*
X3966Y3556D01*
X3965Y3555D01*
X3965Y3555D01*
X3964Y3555D01*
X3964Y3555D01*
X3964Y3554D01*
X3964Y3554D01*
X3964Y3554D01*
X3963Y3554D01*
X3963Y3553D01*
X3963Y3553D01*
X3962Y3552D01*
X3962Y3552D01*
X3962Y3552D01*
X3962Y3552D01*
X3962Y3551D01*
X3962Y3551D01*
X3962Y3550D01*
X3962Y3550D01*
X3962Y3549D01*
Y3549D01*
Y3549D01*
Y3549D01*
Y3548D01*
X3962Y3548D01*
Y3548D01*
X3962Y3547D01*
X3962Y3547D01*
X3962Y3546D01*
X3962Y3546D01*
X3963Y3545D01*
Y3545D01*
X3963Y3545D01*
X3963Y3545D01*
X3963Y3545D01*
X3963Y3544D01*
X3963Y3544D01*
X3964Y3543D01*
X3964Y3543D01*
X3965Y3542D01*
X3965Y3542D01*
X3965D01*
X3965Y3542D01*
X3965Y3542D01*
X3965Y3542D01*
X3966Y3542D01*
X3966Y3542D01*
X3966Y3541D01*
X3967Y3541D01*
X3968Y3541D01*
X3968Y3541D01*
X3969Y3540D01*
X3969D01*
X3969Y3540D01*
X3969Y3540D01*
X3970Y3540D01*
X3970Y3540D01*
X3970Y3540D01*
X3970Y3540D01*
X3971Y3540D01*
X3971Y3540D01*
X3971Y3540D01*
X3972Y3540D01*
X3973Y3540D01*
X3974Y3540D01*
X3975D01*
X3975Y3540D01*
X3976D01*
X3976Y3540D01*
X3977Y3540D01*
X3977D01*
X3977Y3540D01*
X3977D01*
X3978Y3540D01*
X3978Y3540D01*
X3978Y3540D01*
X3979Y3540D01*
X3979D01*
X3980Y3540D01*
X3980Y3540D01*
X3980Y3540D01*
X3980Y3540D01*
X3981Y3540D01*
X3982Y3540D01*
X3982D01*
X3982Y3540D01*
X3982Y3540D01*
X3982Y3541D01*
X3982Y3541D01*
X3983Y3541D01*
X3983Y3541D01*
Y3545D01*
X3983D01*
X3983Y3545D01*
X3983Y3545D01*
X3983Y3545D01*
X3983Y3545D01*
X3983Y3545D01*
X3982Y3545D01*
X3982Y3545D01*
X3981Y3544D01*
X3980Y3544D01*
X3979Y3544D01*
X3979D01*
X3979Y3544D01*
X3979Y3544D01*
X3979Y3544D01*
X3978Y3544D01*
X3978Y3544D01*
X3978Y3544D01*
X3977Y3544D01*
X3977Y3544D01*
X3976Y3544D01*
X3975Y3544D01*
X3974Y3544D01*
X3974D01*
X3973Y3544D01*
X3973D01*
X3972Y3544D01*
X3972Y3544D01*
X3971Y3544D01*
X3970Y3544D01*
X3970D01*
X3970Y3544D01*
X3970Y3544D01*
X3970Y3544D01*
X3969Y3544D01*
X3969Y3544D01*
X3968Y3545D01*
X3968Y3545D01*
X3968Y3545D01*
X3968Y3545D01*
X3968Y3545D01*
X3967Y3545D01*
X3967Y3546D01*
X3967Y3546D01*
X3967Y3546D01*
X3967Y3546D01*
X3967Y3546D01*
X3967Y3547D01*
X3967Y3547D01*
X3966Y3547D01*
X3966Y3547D01*
X3966Y3548D01*
X3966Y3548D01*
X3966Y3549D01*
Y3549D01*
Y3549D01*
X3966Y3549D01*
X3966Y3549D01*
X3966Y3550D01*
X3967Y3550D01*
X3967Y3550D01*
X3967Y3551D01*
X3967Y3551D01*
X3967Y3551D01*
X3967Y3551D01*
X3967Y3551D01*
X3968Y3552D01*
X3968Y3552D01*
X3968Y3552D01*
X3969Y3552D01*
X3969Y3553D01*
X3969Y3553D01*
X3969Y3553D01*
X3970Y3553D01*
X3970Y3553D01*
X3970Y3553D01*
X3971Y3554D01*
X3972Y3554D01*
X3972Y3554D01*
X3972Y3554D01*
X3972Y3554D01*
X3972Y3554D01*
X3973Y3554D01*
X3973Y3555D01*
X3974Y3555D01*
X3975Y3555D01*
X3975D01*
X3975Y3555D01*
X3975Y3555D01*
X3975Y3555D01*
X3976Y3555D01*
X3976Y3556D01*
X3977Y3556D01*
X3978Y3556D01*
X3978Y3556D01*
X3978Y3557D01*
X3978Y3557D01*
X3979Y3557D01*
X3979Y3557D01*
X3979Y3558D01*
X3980Y3558D01*
X3980Y3558D01*
X3980Y3558D01*
X3981Y3558D01*
X3981Y3559D01*
X3981Y3559D01*
X3981Y3559D01*
X3982Y3560D01*
X3982Y3560D01*
X3982Y3561D01*
Y3561D01*
X3982Y3561D01*
X3982Y3561D01*
X3983Y3561D01*
X3983Y3562D01*
X3983Y3562D01*
X3983Y3563D01*
X3983Y3563D01*
X3983Y3564D01*
Y3564D01*
Y3564D01*
Y3564D01*
Y3564D01*
X3983Y3565D01*
X3983Y3565D01*
X3983Y3565D01*
X3983Y3566D01*
X3983Y3567D01*
X3982Y3567D01*
Y3567D01*
X3982Y3567D01*
X3982Y3567D01*
X3982Y3568D01*
X3982Y3568D01*
X3981Y3569D01*
X3981Y3569D01*
X3981Y3570D01*
X3980Y3570D01*
X3980D01*
X3980Y3570D01*
X3980Y3570D01*
X3980Y3570D01*
X3979Y3571D01*
X3979Y3571D01*
X3978Y3571D01*
X3977Y3572D01*
X3976Y3572D01*
X3976D01*
X3976Y3572D01*
X3976Y3572D01*
X3976Y3572D01*
X3976Y3572D01*
X3976Y3572D01*
X3975Y3572D01*
X3975Y3572D01*
X3975Y3572D01*
X3974Y3573D01*
X3973Y3573D01*
X3972Y3573D01*
X3971Y3573D01*
D02*
G37*
G36*
X3595Y3572D02*
X3589D01*
X3581Y3553D01*
X3578Y3546D01*
Y3563D01*
Y3572D01*
X3573D01*
Y3540D01*
X3579D01*
X3588Y3560D01*
X3591Y3567D01*
Y3550D01*
Y3540D01*
X3595D01*
Y3572D01*
D02*
G37*
G36*
X3543D02*
X3538D01*
X3531Y3551D01*
X3529Y3544D01*
X3527Y3551D01*
X3520Y3572D01*
X3515D01*
X3526Y3540D01*
X3532D01*
X3543Y3572D01*
D02*
G37*
G36*
X3706D02*
X3700D01*
X3692Y3553D01*
X3689Y3546D01*
Y3563D01*
Y3572D01*
X3684D01*
Y3540D01*
X3690D01*
X3699Y3560D01*
X3702Y3567D01*
Y3550D01*
Y3540D01*
X3706D01*
Y3572D01*
D02*
G37*
G36*
X3764D02*
X3759D01*
X3753Y3561D01*
X3750Y3556D01*
X3748Y3560D01*
X3742Y3572D01*
X3737D01*
X3748Y3552D01*
Y3540D01*
X3753D01*
Y3552D01*
X3764Y3572D01*
D02*
G37*
G36*
X3789D02*
X3783D01*
X3775Y3553D01*
X3772Y3546D01*
Y3563D01*
Y3572D01*
X3767D01*
Y3540D01*
X3773D01*
X3782Y3560D01*
X3785Y3567D01*
Y3550D01*
Y3540D01*
X3789D01*
Y3572D01*
D02*
G37*
G36*
X4149D02*
X4139D01*
X4139Y3572D01*
X4138D01*
X4138Y3572D01*
X4137Y3572D01*
X4137Y3572D01*
X4136Y3572D01*
X4135Y3572D01*
X4135D01*
X4135Y3572D01*
X4135Y3572D01*
X4135Y3572D01*
X4134Y3572D01*
X4134Y3572D01*
X4134Y3571D01*
X4133Y3571D01*
X4132Y3571D01*
X4132Y3571D01*
X4131Y3570D01*
X4131D01*
X4131Y3570D01*
X4131Y3570D01*
X4130Y3570D01*
X4130Y3569D01*
X4130Y3569D01*
X4129Y3568D01*
X4129Y3568D01*
X4128Y3567D01*
Y3567D01*
X4128Y3567D01*
X4128Y3567D01*
X4128Y3567D01*
X4128Y3567D01*
X4128Y3566D01*
X4128Y3566D01*
X4128Y3566D01*
X4128Y3565D01*
X4128Y3564D01*
X4127Y3563D01*
X4127Y3562D01*
Y3562D01*
Y3562D01*
Y3562D01*
Y3562D01*
X4127Y3562D01*
Y3562D01*
X4127Y3561D01*
X4128Y3561D01*
X4128Y3560D01*
X4128Y3559D01*
X4128Y3559D01*
Y3559D01*
X4128Y3558D01*
X4128Y3558D01*
X4128Y3558D01*
X4128Y3558D01*
X4129Y3557D01*
X4129Y3557D01*
X4129Y3556D01*
X4130Y3556D01*
X4130Y3555D01*
X4130D01*
X4131Y3555D01*
X4131Y3555D01*
X4131Y3555D01*
X4131Y3555D01*
X4132Y3554D01*
X4132Y3554D01*
X4133Y3553D01*
X4134Y3553D01*
X4134Y3553D01*
X4134D01*
X4135Y3553D01*
X4135Y3553D01*
X4135Y3553D01*
X4135Y3552D01*
X4135Y3552D01*
X4136Y3552D01*
X4136Y3552D01*
X4136Y3552D01*
X4137Y3552D01*
X4137Y3552D01*
X4138Y3552D01*
X4139Y3552D01*
X4140Y3552D01*
X4144D01*
Y3540D01*
X4149D01*
Y3572D01*
D02*
G37*
G36*
X4064D02*
X4059D01*
Y3544D01*
X4045D01*
Y3540D01*
X4064D01*
Y3572D01*
D02*
G37*
G36*
X3623D02*
X3619D01*
Y3551D01*
Y3551D01*
Y3551D01*
Y3551D01*
Y3551D01*
X3619Y3550D01*
Y3550D01*
X3619Y3549D01*
X3619Y3549D01*
X3619Y3548D01*
X3618Y3548D01*
X3618Y3548D01*
X3618Y3547D01*
X3618Y3547D01*
X3618Y3547D01*
X3618Y3547D01*
X3618Y3546D01*
X3618Y3546D01*
X3617Y3545D01*
X3617Y3545D01*
X3617Y3545D01*
X3617Y3545D01*
X3617Y3545D01*
X3616Y3545D01*
X3616Y3544D01*
X3616Y3544D01*
X3615Y3544D01*
X3615Y3544D01*
X3615Y3544D01*
X3615Y3544D01*
X3614Y3544D01*
X3614Y3544D01*
X3613Y3543D01*
X3613Y3543D01*
X3612Y3543D01*
X3612D01*
X3611Y3543D01*
X3611Y3543D01*
X3611Y3543D01*
X3610Y3544D01*
X3610Y3544D01*
X3609Y3544D01*
X3609Y3544D01*
X3608Y3544D01*
X3608Y3544D01*
X3607Y3545D01*
X3607Y3545D01*
X3607Y3545D01*
X3607Y3545D01*
X3607Y3545D01*
X3607Y3546D01*
X3607Y3546D01*
X3606Y3546D01*
X3606Y3546D01*
X3606Y3547D01*
X3606Y3547D01*
X3606Y3547D01*
X3606Y3548D01*
X3606Y3548D01*
X3605Y3549D01*
X3605Y3549D01*
X3605Y3550D01*
X3605Y3550D01*
X3605Y3551D01*
Y3572D01*
X3601D01*
Y3551D01*
Y3551D01*
Y3551D01*
Y3551D01*
Y3551D01*
X3601Y3551D01*
Y3550D01*
X3601Y3550D01*
X3601Y3550D01*
X3601Y3549D01*
X3601Y3548D01*
X3601Y3547D01*
X3601Y3547D01*
Y3547D01*
X3602Y3546D01*
X3602Y3546D01*
X3602Y3546D01*
X3602Y3546D01*
X3602Y3546D01*
X3602Y3545D01*
X3602Y3545D01*
X3603Y3544D01*
X3603Y3543D01*
X3604Y3543D01*
X3604Y3543D01*
X3604Y3543D01*
X3604Y3542D01*
X3605Y3542D01*
X3605Y3542D01*
X3606Y3541D01*
X3606Y3541D01*
X3607Y3541D01*
X3607D01*
X3607Y3541D01*
X3607Y3540D01*
X3608Y3540D01*
X3608Y3540D01*
X3608Y3540D01*
X3608Y3540D01*
X3609Y3540D01*
X3609Y3540D01*
X3610Y3540D01*
X3611Y3540D01*
X3612Y3540D01*
X3613D01*
X3613Y3540D01*
X3613D01*
X3614Y3540D01*
X3614Y3540D01*
X3615Y3540D01*
X3616Y3540D01*
X3616Y3540D01*
X3617Y3541D01*
X3617D01*
X3617Y3541D01*
X3617Y3541D01*
X3618Y3541D01*
X3618Y3541D01*
X3618Y3541D01*
X3619Y3541D01*
X3620Y3542D01*
X3620Y3542D01*
X3621Y3543D01*
Y3543D01*
X3621Y3543D01*
X3621Y3543D01*
X3621Y3543D01*
X3621Y3544D01*
X3622Y3544D01*
X3622Y3545D01*
X3622Y3545D01*
X3623Y3546D01*
Y3546D01*
X3623Y3546D01*
X3623Y3546D01*
X3623Y3547D01*
X3623Y3547D01*
X3623Y3547D01*
X3623Y3547D01*
X3623Y3547D01*
X3623Y3548D01*
X3623Y3549D01*
X3623Y3550D01*
X3623Y3551D01*
Y3572D01*
D02*
G37*
G36*
X4164Y3573D02*
X4163D01*
X4163Y3573D01*
X4162D01*
X4162Y3573D01*
X4161Y3573D01*
X4160Y3572D01*
X4159Y3572D01*
X4159D01*
X4159Y3572D01*
X4159D01*
X4159Y3572D01*
X4159Y3572D01*
X4159Y3572D01*
X4158Y3572D01*
X4158Y3572D01*
X4157Y3572D01*
X4156Y3571D01*
X4156Y3571D01*
Y3567D01*
X4156D01*
X4156Y3567D01*
X4156Y3567D01*
X4156Y3567D01*
X4156Y3567D01*
X4157Y3567D01*
X4157Y3568D01*
X4158Y3568D01*
X4159Y3568D01*
X4159Y3568D01*
X4159D01*
X4159Y3568D01*
X4159Y3568D01*
X4160Y3568D01*
X4160Y3568D01*
X4160Y3568D01*
X4160Y3569D01*
X4161Y3569D01*
X4162Y3569D01*
X4163Y3569D01*
X4163Y3569D01*
X4164D01*
X4164Y3569D01*
X4164D01*
X4165Y3569D01*
X4165Y3569D01*
X4166Y3568D01*
X4167Y3568D01*
X4167Y3568D01*
X4168D01*
X4168Y3568D01*
X4168Y3568D01*
X4168Y3568D01*
X4168Y3568D01*
X4169Y3567D01*
X4169Y3567D01*
X4170Y3567D01*
X4170Y3566D01*
X4171Y3566D01*
Y3565D01*
X4171Y3565D01*
X4171Y3565D01*
X4171Y3565D01*
X4171Y3565D01*
X4171Y3564D01*
X4172Y3564D01*
X4172Y3563D01*
X4172Y3562D01*
X4173Y3562D01*
Y3562D01*
X4173Y3561D01*
X4173Y3561D01*
X4173Y3561D01*
X4173Y3561D01*
X4173Y3561D01*
X4173Y3560D01*
X4173Y3560D01*
X4173Y3560D01*
X4173Y3559D01*
X4173Y3558D01*
X4173Y3557D01*
X4173Y3556D01*
Y3556D01*
Y3556D01*
Y3556D01*
Y3556D01*
X4173Y3556D01*
Y3555D01*
X4173Y3555D01*
X4173Y3554D01*
X4173Y3553D01*
X4173Y3553D01*
X4173Y3552D01*
X4173Y3551D01*
X4172Y3550D01*
X4172Y3550D01*
X4172Y3549D01*
X4172Y3548D01*
X4171Y3547D01*
X4171Y3547D01*
X4171Y3547D01*
X4171Y3547D01*
X4170Y3547D01*
X4170Y3546D01*
X4170Y3546D01*
X4170Y3546D01*
X4169Y3546D01*
X4169Y3545D01*
X4168Y3545D01*
X4168Y3545D01*
X4167Y3544D01*
X4166Y3544D01*
X4166Y3544D01*
X4165Y3544D01*
X4164Y3544D01*
X4163Y3544D01*
X4163D01*
X4162Y3544D01*
X4162Y3544D01*
X4161Y3544D01*
X4161Y3544D01*
X4160Y3544D01*
X4159Y3544D01*
X4159D01*
X4159Y3544D01*
X4159Y3544D01*
X4159Y3544D01*
X4159Y3544D01*
X4158Y3545D01*
X4158Y3545D01*
X4157Y3545D01*
X4156Y3545D01*
X4156Y3546D01*
Y3541D01*
X4156Y3541D01*
X4156Y3541D01*
X4156Y3541D01*
X4156Y3541D01*
X4157Y3541D01*
X4157Y3541D01*
X4158Y3541D01*
X4158Y3541D01*
X4159Y3540D01*
X4159Y3540D01*
X4160Y3540D01*
X4161Y3540D01*
X4162Y3540D01*
X4163Y3540D01*
X4164Y3540D01*
X4164D01*
X4164Y3540D01*
X4165Y3540D01*
X4165Y3540D01*
X4166Y3540D01*
X4167Y3540D01*
X4168Y3540D01*
X4168Y3541D01*
X4169Y3541D01*
X4170Y3541D01*
X4171Y3541D01*
X4172Y3542D01*
X4173Y3543D01*
X4174Y3543D01*
X4174Y3544D01*
X4174Y3544D01*
X4174Y3544D01*
X4175Y3544D01*
X4175Y3545D01*
X4175Y3545D01*
X4175Y3546D01*
X4176Y3546D01*
X4176Y3547D01*
X4176Y3548D01*
X4177Y3549D01*
X4177Y3550D01*
X4177Y3551D01*
X4178Y3552D01*
X4178Y3553D01*
X4178Y3554D01*
X4178Y3556D01*
Y3556D01*
Y3556D01*
Y3556D01*
X4178Y3557D01*
Y3557D01*
X4178Y3557D01*
X4178Y3558D01*
X4178Y3558D01*
X4178Y3559D01*
X4178Y3559D01*
X4177Y3560D01*
X4177Y3562D01*
X4177Y3563D01*
Y3563D01*
X4177Y3563D01*
X4177Y3563D01*
X4177Y3563D01*
X4177Y3564D01*
X4176Y3564D01*
X4176Y3564D01*
X4176Y3565D01*
X4176Y3566D01*
X4175Y3566D01*
X4175Y3567D01*
X4174Y3568D01*
X4174Y3568D01*
X4174Y3568D01*
X4174Y3568D01*
X4174Y3569D01*
X4173Y3569D01*
X4173Y3569D01*
X4173Y3569D01*
X4173Y3569D01*
X4172Y3570D01*
X4171Y3571D01*
X4170Y3571D01*
X4169Y3572D01*
X4169D01*
X4169Y3572D01*
X4169Y3572D01*
X4169Y3572D01*
X4169Y3572D01*
X4168Y3572D01*
X4168Y3572D01*
X4168Y3572D01*
X4167Y3572D01*
X4167Y3572D01*
X4166Y3572D01*
X4166Y3573D01*
X4165Y3573D01*
X4164Y3573D01*
D02*
G37*
G36*
X3664Y3573D02*
X3664D01*
X3664Y3573D01*
X3663D01*
X3662Y3573D01*
X3662Y3573D01*
X3661Y3573D01*
X3660Y3572D01*
X3660D01*
X3660Y3572D01*
X3660D01*
X3660Y3572D01*
X3660Y3572D01*
X3660Y3572D01*
X3659Y3572D01*
X3658Y3572D01*
X3658Y3572D01*
X3657Y3571D01*
X3656Y3571D01*
Y3567D01*
X3657D01*
X3657Y3567D01*
X3657Y3567D01*
X3657Y3567D01*
X3657Y3567D01*
X3658Y3567D01*
X3658Y3568D01*
X3659Y3568D01*
X3659Y3568D01*
X3660Y3568D01*
X3660D01*
X3660Y3568D01*
X3660Y3568D01*
X3661Y3568D01*
X3661Y3568D01*
X3661Y3568D01*
X3661Y3569D01*
X3662Y3569D01*
X3663Y3569D01*
X3664Y3569D01*
X3664Y3569D01*
X3665D01*
X3665Y3569D01*
X3665D01*
X3666Y3569D01*
X3667Y3569D01*
X3667Y3568D01*
X3668Y3568D01*
X3669Y3568D01*
X3669D01*
X3669Y3568D01*
X3669Y3568D01*
X3669Y3568D01*
X3670Y3568D01*
X3670Y3567D01*
X3671Y3567D01*
X3671Y3566D01*
X3672Y3566D01*
X3672Y3565D01*
Y3565D01*
X3672Y3565D01*
X3672Y3565D01*
X3672Y3565D01*
X3673Y3565D01*
X3673Y3565D01*
X3673Y3564D01*
X3673Y3564D01*
X3674Y3563D01*
X3674Y3562D01*
X3674Y3561D01*
Y3561D01*
X3674Y3561D01*
X3674Y3561D01*
X3674Y3561D01*
X3674Y3561D01*
X3675Y3560D01*
X3675Y3560D01*
X3675Y3560D01*
X3675Y3559D01*
X3675Y3559D01*
X3675Y3558D01*
X3675Y3557D01*
X3675Y3556D01*
Y3556D01*
Y3556D01*
Y3556D01*
Y3556D01*
X3675Y3555D01*
Y3555D01*
X3675Y3555D01*
Y3554D01*
X3675Y3554D01*
X3675Y3553D01*
X3675Y3552D01*
X3674Y3551D01*
Y3551D01*
X3674Y3551D01*
X3674Y3551D01*
X3674Y3550D01*
X3674Y3550D01*
X3674Y3550D01*
X3674Y3549D01*
X3674Y3549D01*
X3673Y3548D01*
X3673Y3548D01*
X3673Y3547D01*
Y3547D01*
X3673Y3547D01*
X3672Y3547D01*
X3672Y3546D01*
X3672Y3546D01*
X3671Y3546D01*
X3671Y3545D01*
X3670Y3545D01*
X3669Y3544D01*
X3669D01*
X3669Y3544D01*
X3669Y3544D01*
X3669Y3544D01*
X3669Y3544D01*
X3669Y3544D01*
X3668Y3544D01*
X3668Y3544D01*
X3667Y3544D01*
X3667Y3544D01*
X3666Y3544D01*
X3665Y3544D01*
X3664D01*
X3664Y3544D01*
X3664D01*
X3664Y3544D01*
X3663D01*
X3663Y3544D01*
X3663Y3544D01*
X3663D01*
X3663Y3544D01*
X3662D01*
X3662Y3544D01*
X3662Y3544D01*
X3662Y3544D01*
X3662D01*
X3661Y3544D01*
X3661Y3544D01*
X3661Y3544D01*
X3661Y3544D01*
X3661Y3544D01*
Y3554D01*
X3667D01*
Y3558D01*
X3656D01*
Y3542D01*
X3656Y3542D01*
X3656Y3542D01*
X3657Y3541D01*
X3657Y3541D01*
X3657Y3541D01*
X3658Y3541D01*
X3658Y3541D01*
X3658Y3541D01*
X3659D01*
X3659Y3541D01*
X3659Y3541D01*
X3659Y3541D01*
X3660Y3541D01*
X3660Y3540D01*
X3661Y3540D01*
X3661D01*
X3661Y3540D01*
X3661Y3540D01*
X3662Y3540D01*
X3662Y3540D01*
X3662Y3540D01*
X3663Y3540D01*
X3663D01*
X3663Y3540D01*
X3664D01*
X3664Y3540D01*
X3664Y3540D01*
X3664D01*
X3665Y3540D01*
X3666D01*
X3666Y3540D01*
X3666D01*
X3666Y3540D01*
X3667Y3540D01*
X3667Y3540D01*
X3668Y3540D01*
X3669Y3540D01*
X3670Y3540D01*
X3671Y3541D01*
X3671D01*
X3671Y3541D01*
X3672Y3541D01*
X3672Y3541D01*
X3672Y3541D01*
X3672Y3541D01*
X3673Y3542D01*
X3674Y3542D01*
X3674Y3542D01*
X3675Y3543D01*
X3676Y3544D01*
X3676Y3544D01*
X3676Y3544D01*
X3676Y3544D01*
X3676Y3544D01*
X3676Y3544D01*
X3676Y3545D01*
X3677Y3545D01*
X3677Y3545D01*
X3677Y3546D01*
X3677Y3546D01*
X3678Y3547D01*
X3678Y3548D01*
X3679Y3549D01*
Y3549D01*
X3679Y3549D01*
X3679Y3549D01*
X3679Y3549D01*
X3679Y3550D01*
X3679Y3550D01*
X3679Y3550D01*
X3679Y3551D01*
X3679Y3551D01*
X3679Y3552D01*
X3679Y3552D01*
X3679Y3553D01*
X3680Y3554D01*
X3680Y3554D01*
X3680Y3556D01*
Y3556D01*
Y3556D01*
Y3556D01*
X3680Y3557D01*
Y3557D01*
X3680Y3557D01*
X3680Y3558D01*
X3679Y3558D01*
X3679Y3559D01*
X3679Y3559D01*
X3679Y3561D01*
X3679Y3562D01*
X3679Y3563D01*
Y3563D01*
X3678Y3563D01*
X3678Y3563D01*
X3678Y3564D01*
X3678Y3564D01*
X3678Y3564D01*
X3678Y3564D01*
X3678Y3565D01*
X3677Y3566D01*
X3677Y3567D01*
X3676Y3567D01*
X3675Y3568D01*
X3675Y3568D01*
X3675Y3568D01*
X3675Y3568D01*
X3675Y3569D01*
X3675Y3569D01*
X3675Y3569D01*
X3674Y3569D01*
X3674Y3570D01*
X3674Y3570D01*
X3673Y3570D01*
X3673Y3571D01*
X3672Y3571D01*
X3671Y3572D01*
X3671D01*
X3670Y3572D01*
X3670Y3572D01*
X3670Y3572D01*
X3670Y3572D01*
X3670Y3572D01*
X3669Y3572D01*
X3669Y3572D01*
X3668Y3572D01*
X3668Y3572D01*
X3667Y3573D01*
X3667Y3573D01*
X3666Y3573D01*
X3664Y3573D01*
D02*
G37*
G36*
X3749Y3473D02*
X3749D01*
X3749Y3473D01*
X3749Y3473D01*
X3748Y3472D01*
X3748Y3472D01*
X3748D01*
X3748Y3472D01*
X3748Y3472D01*
X3747Y3472D01*
X3747Y3472D01*
X3746Y3471D01*
X3746Y3471D01*
X3746Y3471D01*
X3746Y3471D01*
X3746Y3471D01*
X3746Y3471D01*
X3746Y3471D01*
X3746Y3470D01*
Y3470D01*
X3746Y3470D01*
X3746Y3470D01*
X3745Y3470D01*
X3745Y3469D01*
X3745Y3469D01*
X3745Y3468D01*
Y3468D01*
Y3468D01*
Y3468D01*
X3745Y3468D01*
X3745Y3468D01*
X3745Y3467D01*
X3746Y3467D01*
Y3467D01*
X3746Y3467D01*
X3746Y3467D01*
X3746Y3466D01*
X3746Y3466D01*
X3746Y3466D01*
X3747Y3466D01*
X3747Y3466D01*
X3747Y3465D01*
X3747Y3465D01*
X3747Y3465D01*
X3747Y3465D01*
X3748Y3465D01*
X3748D01*
X3748Y3465D01*
X3748Y3465D01*
X3748Y3465D01*
X3748Y3465D01*
X3749Y3464D01*
X3749Y3464D01*
X3750D01*
X3750Y3464D01*
X3750D01*
X3750Y3464D01*
X3750Y3465D01*
X3751Y3465D01*
X3751D01*
X3751Y3465D01*
X3751Y3465D01*
X3751Y3465D01*
X3752Y3465D01*
X3752Y3466D01*
X3752Y3466D01*
X3752Y3466D01*
X3752Y3466D01*
X3753Y3466D01*
X3753Y3466D01*
X3753Y3466D01*
X3753Y3467D01*
Y3467D01*
X3753Y3467D01*
X3753Y3467D01*
X3753Y3467D01*
X3753Y3468D01*
X3753Y3468D01*
X3753Y3468D01*
Y3468D01*
Y3469D01*
X3753Y3469D01*
Y3469D01*
X3753Y3469D01*
X3753Y3470D01*
X3753Y3470D01*
Y3470D01*
X3753Y3470D01*
X3753Y3470D01*
X3753Y3471D01*
X3753Y3471D01*
X3752Y3471D01*
X3752Y3471D01*
X3752Y3471D01*
X3752Y3472D01*
X3752Y3472D01*
X3752Y3472D01*
X3751Y3472D01*
X3751Y3472D01*
X3751D01*
X3751Y3472D01*
X3751Y3472D01*
X3750Y3472D01*
X3750Y3473D01*
X3750Y3473D01*
X3749Y3473D01*
D02*
G37*
G36*
X3984Y3424D02*
X3980D01*
Y3414D01*
X3980Y3410D01*
X3980Y3411D01*
X3980Y3411D01*
X3979Y3411D01*
X3979Y3411D01*
X3979Y3411D01*
X3978Y3412D01*
X3978Y3412D01*
X3978Y3412D01*
X3978Y3413D01*
X3978Y3413D01*
X3977Y3413D01*
X3977Y3413D01*
X3977Y3413D01*
X3976Y3413D01*
X3976Y3414D01*
X3976Y3414D01*
X3976Y3414D01*
X3975Y3414D01*
X3975Y3414D01*
X3975Y3414D01*
X3975Y3414D01*
X3974Y3415D01*
X3974D01*
X3974Y3415D01*
X3973Y3415D01*
X3973Y3415D01*
X3973Y3415D01*
X3972Y3415D01*
X3972Y3415D01*
X3971D01*
X3971Y3415D01*
X3971Y3415D01*
X3970Y3415D01*
X3970Y3415D01*
X3970Y3415D01*
X3969Y3414D01*
X3969Y3414D01*
X3968Y3414D01*
X3968Y3414D01*
X3967Y3414D01*
X3967Y3413D01*
X3966Y3413D01*
X3966Y3413D01*
X3966Y3413D01*
X3966Y3412D01*
X3966Y3412D01*
X3966Y3412D01*
X3966Y3412D01*
X3965Y3412D01*
X3965Y3411D01*
X3965Y3411D01*
X3965Y3410D01*
X3965Y3410D01*
X3964Y3409D01*
X3964Y3409D01*
X3964Y3408D01*
X3964Y3407D01*
X3964Y3407D01*
X3964Y3406D01*
Y3390D01*
X3968D01*
Y3405D01*
Y3405D01*
Y3406D01*
Y3406D01*
Y3406D01*
X3968Y3406D01*
X3968Y3406D01*
X3968Y3407D01*
X3969Y3408D01*
X3969Y3408D01*
X3969Y3409D01*
X3969Y3409D01*
X3969Y3410D01*
Y3410D01*
X3969Y3410D01*
X3970Y3410D01*
X3970Y3410D01*
X3970Y3410D01*
X3971Y3411D01*
X3971Y3411D01*
X3972Y3411D01*
X3972Y3411D01*
X3973D01*
X3973Y3411D01*
X3973Y3411D01*
X3973Y3411D01*
X3974Y3411D01*
X3974D01*
X3974Y3411D01*
X3974Y3411D01*
X3974Y3411D01*
X3975Y3411D01*
X3975Y3410D01*
X3975Y3410D01*
X3976Y3410D01*
X3976Y3410D01*
X3976Y3410D01*
X3976Y3410D01*
X3976Y3410D01*
X3976Y3409D01*
X3977Y3409D01*
X3977Y3409D01*
X3977Y3408D01*
X3977Y3408D01*
X3977Y3408D01*
X3978Y3408D01*
X3978Y3408D01*
X3978Y3407D01*
X3979Y3407D01*
X3979Y3407D01*
X3980Y3406D01*
Y3390D01*
X3984D01*
Y3424D01*
D02*
G37*
G36*
X4039D02*
X4035D01*
Y3415D01*
X4035Y3410D01*
X4035Y3410D01*
X4035Y3410D01*
X4035Y3410D01*
X4035Y3411D01*
X4035Y3411D01*
X4034Y3411D01*
X4034Y3412D01*
X4033Y3412D01*
X4033Y3413D01*
X4032Y3413D01*
X4032Y3414D01*
X4031Y3414D01*
X4031D01*
X4031Y3414D01*
X4031Y3414D01*
X4031Y3414D01*
X4031Y3414D01*
X4030Y3414D01*
X4030Y3414D01*
X4030Y3414D01*
X4029Y3414D01*
X4028Y3415D01*
X4028Y3415D01*
X4027Y3415D01*
X4026D01*
X4026Y3415D01*
X4026D01*
X4025Y3415D01*
X4025Y3415D01*
X4024Y3414D01*
X4024Y3414D01*
X4023Y3414D01*
X4023D01*
X4023Y3414D01*
X4023Y3414D01*
X4022Y3414D01*
X4022Y3413D01*
X4022Y3413D01*
X4021Y3412D01*
X4021Y3412D01*
X4020Y3411D01*
Y3411D01*
X4020Y3411D01*
X4020Y3411D01*
X4020Y3411D01*
X4020Y3411D01*
X4020Y3410D01*
X4019Y3410D01*
X4019Y3409D01*
X4019Y3408D01*
X4019Y3408D01*
Y3407D01*
X4019Y3407D01*
X4019Y3407D01*
X4019Y3407D01*
X4019Y3407D01*
X4019Y3407D01*
X4018Y3406D01*
X4018Y3406D01*
X4018Y3405D01*
X4018Y3404D01*
X4018Y3403D01*
X4018Y3402D01*
Y3402D01*
Y3402D01*
Y3402D01*
Y3402D01*
X4018Y3402D01*
Y3401D01*
X4018Y3401D01*
X4018Y3401D01*
X4018Y3400D01*
X4018Y3399D01*
X4019Y3398D01*
X4019Y3397D01*
Y3397D01*
X4019Y3397D01*
X4019Y3397D01*
X4019Y3397D01*
X4019Y3396D01*
X4019Y3396D01*
X4020Y3396D01*
X4020Y3395D01*
X4020Y3394D01*
X4021Y3393D01*
X4021Y3393D01*
X4021Y3393D01*
X4021Y3393D01*
X4022Y3393D01*
X4022Y3393D01*
X4022Y3392D01*
X4022Y3392D01*
X4023Y3391D01*
X4024Y3391D01*
X4024Y3391D01*
X4025Y3390D01*
X4025D01*
X4025Y3390D01*
X4025Y3390D01*
X4026Y3390D01*
X4026Y3390D01*
X4026Y3390D01*
X4026Y3390D01*
X4027Y3390D01*
X4027Y3390D01*
X4027Y3390D01*
X4028Y3389D01*
X4029Y3389D01*
X4030Y3389D01*
X4031D01*
X4031Y3389D01*
X4031D01*
X4032Y3389D01*
X4032Y3389D01*
X4033Y3390D01*
X4034Y3390D01*
X4035Y3390D01*
X4035D01*
X4035Y3390D01*
X4035D01*
X4035Y3390D01*
X4035Y3390D01*
X4036Y3390D01*
X4036Y3390D01*
X4036Y3390D01*
X4037Y3390D01*
X4038Y3391D01*
X4038Y3391D01*
X4039Y3391D01*
Y3424D01*
D02*
G37*
G36*
X3835Y3497D02*
X3829D01*
X3819Y3465D01*
X3824D01*
X3826Y3472D01*
X3839D01*
X3841Y3465D01*
X3846D01*
X3835Y3497D01*
D02*
G37*
G36*
X3815D02*
X3805D01*
X3805Y3497D01*
X3804Y3497D01*
X3804D01*
X3804Y3497D01*
X3803Y3497D01*
X3802Y3497D01*
X3801Y3496D01*
X3800Y3496D01*
X3799Y3496D01*
X3798Y3495D01*
X3797Y3495D01*
X3797Y3494D01*
X3797Y3494D01*
X3796Y3493D01*
X3796Y3493D01*
X3796Y3492D01*
X3795Y3492D01*
X3795Y3491D01*
X3795Y3491D01*
X3795Y3490D01*
X3795Y3489D01*
Y3489D01*
Y3489D01*
Y3489D01*
X3795Y3489D01*
Y3489D01*
X3795Y3488D01*
X3795Y3488D01*
X3795Y3487D01*
X3795Y3486D01*
X3796Y3485D01*
X3796Y3485D01*
Y3485D01*
X3796Y3485D01*
X3796Y3485D01*
X3796Y3484D01*
X3797Y3484D01*
X3797Y3484D01*
X3797Y3483D01*
X3798Y3483D01*
X3798Y3483D01*
X3798Y3483D01*
X3799Y3483D01*
X3799Y3482D01*
X3800Y3482D01*
X3800Y3482D01*
X3800D01*
X3800Y3482D01*
X3800Y3482D01*
X3799Y3482D01*
X3799Y3482D01*
X3799Y3482D01*
X3798Y3481D01*
X3798Y3481D01*
X3798Y3481D01*
X3797Y3481D01*
X3797Y3481D01*
X3797Y3481D01*
X3797Y3481D01*
X3796Y3480D01*
X3796Y3480D01*
X3796Y3480D01*
X3796Y3480D01*
X3795Y3479D01*
X3795Y3479D01*
X3795Y3479D01*
X3795Y3479D01*
X3795Y3478D01*
X3794Y3478D01*
X3794Y3477D01*
X3794Y3477D01*
X3794Y3477D01*
X3794Y3477D01*
X3794Y3477D01*
X3794Y3476D01*
X3794Y3476D01*
X3794Y3475D01*
X3794Y3474D01*
Y3474D01*
Y3474D01*
Y3474D01*
Y3474D01*
X3794Y3474D01*
Y3474D01*
X3794Y3473D01*
X3794Y3472D01*
X3794Y3472D01*
X3794Y3471D01*
X3795Y3470D01*
Y3470D01*
X3795Y3470D01*
X3795Y3470D01*
X3795Y3470D01*
X3795Y3470D01*
X3795Y3469D01*
X3796Y3469D01*
X3796Y3468D01*
X3797Y3468D01*
X3797Y3467D01*
X3797D01*
X3797Y3467D01*
X3797Y3467D01*
X3797Y3467D01*
X3798Y3467D01*
X3798Y3467D01*
X3798Y3467D01*
X3799Y3466D01*
X3799Y3466D01*
X3800Y3466D01*
X3801Y3466D01*
X3801D01*
X3801Y3465D01*
X3801Y3465D01*
X3801Y3465D01*
X3802Y3465D01*
X3802Y3465D01*
X3802Y3465D01*
X3803Y3465D01*
X3803Y3465D01*
X3803Y3465D01*
X3804Y3465D01*
X3805Y3465D01*
X3806Y3465D01*
X3815D01*
Y3497D01*
D02*
G37*
G36*
X3776Y3497D02*
X3775D01*
X3775Y3497D01*
X3775D01*
X3774Y3497D01*
X3774D01*
X3774Y3497D01*
X3773Y3497D01*
X3773Y3497D01*
X3773Y3497D01*
X3772Y3497D01*
X3772D01*
X3772Y3497D01*
X3772D01*
X3771Y3497D01*
X3771Y3497D01*
X3771Y3497D01*
X3770Y3497D01*
X3770D01*
X3770Y3497D01*
X3770Y3497D01*
X3769Y3497D01*
X3769Y3497D01*
X3769Y3497D01*
X3768Y3497D01*
Y3493D01*
X3768D01*
X3768Y3493D01*
X3768Y3493D01*
X3769Y3493D01*
X3769Y3493D01*
X3769Y3493D01*
X3769Y3493D01*
X3770Y3493D01*
X3771Y3493D01*
X3771Y3493D01*
X3772Y3493D01*
X3772D01*
X3772Y3493D01*
X3772D01*
X3773Y3493D01*
X3773Y3494D01*
X3774Y3494D01*
X3774Y3494D01*
X3775Y3494D01*
X3776D01*
X3776Y3494D01*
X3777D01*
X3777Y3494D01*
X3777Y3494D01*
X3778Y3494D01*
X3779Y3493D01*
X3780Y3493D01*
X3781Y3493D01*
X3781Y3493D01*
X3781Y3492D01*
X3781D01*
X3781Y3492D01*
X3782Y3492D01*
X3782Y3492D01*
X3782Y3492D01*
X3782Y3491D01*
X3783Y3490D01*
X3783Y3490D01*
X3783Y3489D01*
X3783Y3489D01*
Y3489D01*
Y3489D01*
X3783Y3489D01*
X3783Y3488D01*
X3783Y3488D01*
X3783Y3488D01*
X3783Y3487D01*
X3782Y3487D01*
X3782Y3487D01*
X3782Y3487D01*
X3782Y3486D01*
X3782Y3486D01*
X3782Y3486D01*
X3781Y3486D01*
X3781Y3485D01*
X3780Y3485D01*
X3780Y3485D01*
X3780Y3485D01*
X3780Y3485D01*
X3780Y3485D01*
X3779Y3484D01*
X3779Y3484D01*
X3778Y3484D01*
X3778Y3484D01*
X3778D01*
X3778Y3484D01*
X3777Y3484D01*
X3777Y3484D01*
X3777Y3483D01*
X3776Y3483D01*
X3776Y3483D01*
X3775Y3483D01*
X3775Y3483D01*
X3775D01*
X3775Y3483D01*
X3774Y3482D01*
X3774Y3482D01*
X3774Y3482D01*
X3773Y3482D01*
X3773Y3482D01*
X3772Y3481D01*
X3772D01*
X3771Y3481D01*
X3771Y3481D01*
X3771Y3481D01*
X3771Y3481D01*
X3770Y3480D01*
X3770Y3480D01*
X3769Y3480D01*
X3769Y3479D01*
X3769Y3479D01*
X3769Y3479D01*
X3768Y3479D01*
X3768Y3479D01*
X3768Y3478D01*
X3768Y3478D01*
X3767Y3477D01*
X3767Y3477D01*
X3767Y3477D01*
X3767Y3477D01*
X3767Y3476D01*
X3767Y3476D01*
X3766Y3475D01*
X3766Y3475D01*
X3766Y3474D01*
X3766Y3474D01*
Y3474D01*
Y3473D01*
Y3473D01*
Y3473D01*
X3766Y3473D01*
Y3473D01*
X3766Y3472D01*
X3766Y3472D01*
X3767Y3471D01*
X3767Y3470D01*
X3767Y3470D01*
Y3470D01*
X3767Y3469D01*
X3767Y3469D01*
X3767Y3469D01*
X3768Y3469D01*
X3768Y3469D01*
X3768Y3468D01*
X3769Y3468D01*
X3769Y3467D01*
X3770Y3467D01*
X3770D01*
X3770Y3467D01*
X3770Y3467D01*
X3770Y3466D01*
X3770Y3466D01*
X3770Y3466D01*
X3771Y3466D01*
X3771Y3466D01*
X3772Y3465D01*
X3773Y3465D01*
X3774Y3465D01*
X3774D01*
X3774Y3465D01*
X3774Y3465D01*
X3774Y3465D01*
X3774Y3465D01*
X3775Y3465D01*
X3775Y3465D01*
X3775Y3465D01*
X3776Y3465D01*
X3776Y3465D01*
X3777Y3465D01*
X3778Y3464D01*
X3779Y3464D01*
X3779D01*
X3780Y3464D01*
X3780D01*
X3781Y3464D01*
X3782Y3465D01*
X3782D01*
X3782Y3465D01*
X3782D01*
X3782Y3465D01*
X3783Y3465D01*
X3783Y3465D01*
X3784Y3465D01*
X3784D01*
X3784Y3465D01*
X3784Y3465D01*
X3785Y3465D01*
X3785Y3465D01*
X3785Y3465D01*
X3786Y3465D01*
X3786D01*
X3786Y3465D01*
X3787Y3465D01*
X3787Y3465D01*
X3787Y3465D01*
X3787Y3465D01*
X3788Y3466D01*
Y3470D01*
X3788D01*
X3788Y3470D01*
X3788Y3470D01*
X3788Y3470D01*
X3788Y3470D01*
X3787Y3470D01*
X3787Y3469D01*
X3786Y3469D01*
X3785Y3469D01*
X3785Y3469D01*
X3784Y3469D01*
X3784D01*
X3784Y3469D01*
X3783Y3469D01*
X3783Y3469D01*
X3783Y3469D01*
X3783Y3469D01*
X3782Y3468D01*
X3782Y3468D01*
X3782Y3468D01*
X3781Y3468D01*
X3780Y3468D01*
X3779Y3468D01*
X3778D01*
X3778Y3468D01*
X3777D01*
X3777Y3468D01*
X3776Y3468D01*
X3776Y3469D01*
X3775Y3469D01*
X3775D01*
X3775Y3469D01*
X3775Y3469D01*
X3774Y3469D01*
X3774Y3469D01*
X3773Y3469D01*
X3773Y3469D01*
X3773Y3470D01*
X3773Y3470D01*
X3772Y3470D01*
X3772Y3470D01*
X3772Y3470D01*
X3772Y3470D01*
X3772Y3471D01*
X3771Y3471D01*
X3771Y3471D01*
X3771Y3471D01*
X3771Y3471D01*
X3771Y3472D01*
X3771Y3472D01*
X3771Y3472D01*
X3771Y3472D01*
X3771Y3473D01*
X3771Y3473D01*
Y3473D01*
Y3474D01*
X3771Y3474D01*
X3771Y3474D01*
X3771Y3474D01*
X3771Y3475D01*
X3771Y3475D01*
X3772Y3476D01*
X3772Y3476D01*
X3772Y3476D01*
X3772Y3476D01*
X3772Y3476D01*
X3772Y3476D01*
X3773Y3477D01*
X3773Y3477D01*
X3773Y3477D01*
X3774Y3477D01*
X3774Y3477D01*
X3774Y3477D01*
X3774Y3478D01*
X3775Y3478D01*
X3775Y3478D01*
X3776Y3478D01*
X3776Y3479D01*
X3776Y3479D01*
X3776Y3479D01*
X3777Y3479D01*
X3777Y3479D01*
X3778Y3479D01*
X3778Y3479D01*
X3779Y3480D01*
X3779Y3480D01*
X3779D01*
X3779Y3480D01*
X3779Y3480D01*
X3780Y3480D01*
X3780Y3480D01*
X3781Y3480D01*
X3781Y3481D01*
X3782Y3481D01*
X3782Y3481D01*
X3783Y3481D01*
X3783Y3481D01*
X3783Y3482D01*
X3784Y3482D01*
X3784Y3482D01*
X3785Y3483D01*
X3785Y3483D01*
X3785Y3483D01*
X3785Y3483D01*
X3785Y3483D01*
X3786Y3484D01*
X3786Y3484D01*
X3786Y3484D01*
X3787Y3485D01*
X3787Y3485D01*
Y3485D01*
X3787Y3485D01*
X3787Y3486D01*
X3787Y3486D01*
X3787Y3486D01*
X3787Y3487D01*
X3788Y3487D01*
X3788Y3488D01*
X3788Y3489D01*
Y3489D01*
Y3489D01*
Y3489D01*
Y3489D01*
X3788Y3489D01*
X3788Y3490D01*
X3787Y3490D01*
X3787Y3491D01*
X3787Y3491D01*
X3787Y3492D01*
Y3492D01*
X3787Y3492D01*
X3787Y3492D01*
X3787Y3492D01*
X3786Y3493D01*
X3786Y3493D01*
X3786Y3494D01*
X3785Y3494D01*
X3785Y3495D01*
X3785D01*
X3785Y3495D01*
X3785Y3495D01*
X3784Y3495D01*
X3784Y3495D01*
X3783Y3496D01*
X3783Y3496D01*
X3782Y3496D01*
X3781Y3497D01*
X3781D01*
X3781Y3497D01*
X3781Y3497D01*
X3781Y3497D01*
X3780Y3497D01*
X3780Y3497D01*
X3780Y3497D01*
X3780Y3497D01*
X3779Y3497D01*
X3779Y3497D01*
X3778Y3497D01*
X3777Y3497D01*
X3776Y3497D01*
D02*
G37*
G36*
X3958Y3414D02*
X3954D01*
X3947Y3398D01*
X3946Y3394D01*
X3945Y3398D01*
X3939Y3414D01*
X3934D01*
X3943Y3392D01*
Y3392D01*
X3943Y3392D01*
X3943Y3392D01*
X3943Y3392D01*
X3943Y3391D01*
X3943Y3391D01*
X3943Y3391D01*
X3943Y3390D01*
X3944Y3389D01*
X3944Y3388D01*
X3945Y3387D01*
X3945Y3387D01*
Y3386D01*
X3945Y3386D01*
X3945Y3386D01*
X3945Y3386D01*
X3946Y3386D01*
X3946Y3386D01*
X3946Y3385D01*
X3947Y3384D01*
X3947Y3384D01*
X3948Y3383D01*
X3948Y3382D01*
X3948Y3382D01*
X3948Y3382D01*
X3948Y3382D01*
X3949Y3382D01*
X3949Y3382D01*
X3949Y3382D01*
X3950Y3381D01*
X3951Y3381D01*
X3951Y3380D01*
X3952Y3380D01*
X3952D01*
X3952Y3380D01*
X3952Y3380D01*
X3952Y3380D01*
X3952Y3380D01*
X3953Y3380D01*
X3953Y3380D01*
X3953Y3380D01*
X3954Y3380D01*
X3955Y3380D01*
X3955Y3379D01*
X3956Y3379D01*
X3957D01*
X3957Y3379D01*
X3958D01*
X3958Y3379D01*
X3958D01*
X3959Y3380D01*
Y3383D01*
X3959D01*
X3958Y3383D01*
X3958D01*
X3958Y3383D01*
X3957Y3383D01*
X3957D01*
X3957Y3383D01*
X3957D01*
X3957Y3383D01*
X3956D01*
X3956Y3383D01*
X3955D01*
X3955Y3383D01*
X3955Y3383D01*
X3954Y3383D01*
X3954Y3384D01*
X3954Y3384D01*
X3954Y3384D01*
X3953Y3384D01*
X3953Y3384D01*
X3953Y3384D01*
X3953Y3384D01*
X3952Y3384D01*
X3952Y3385D01*
X3952Y3385D01*
X3952Y3385D01*
X3952Y3385D01*
X3951Y3385D01*
X3951Y3386D01*
X3951Y3386D01*
X3951Y3386D01*
X3950Y3387D01*
X3950Y3387D01*
X3950Y3387D01*
X3950Y3387D01*
X3950Y3388D01*
X3949Y3388D01*
X3949Y3388D01*
X3949Y3389D01*
X3949Y3390D01*
X3958Y3414D01*
D02*
G37*
G36*
X4165Y3415D02*
X4165D01*
X4164Y3415D01*
X4164Y3415D01*
X4163Y3415D01*
X4162Y3414D01*
X4162D01*
X4162Y3414D01*
X4162D01*
X4161Y3414D01*
X4161Y3414D01*
X4160Y3414D01*
X4160Y3414D01*
X4159Y3414D01*
Y3409D01*
X4159D01*
X4159Y3410D01*
X4159Y3410D01*
X4159Y3410D01*
X4159Y3410D01*
X4160Y3410D01*
X4160Y3410D01*
X4161Y3410D01*
X4161Y3411D01*
X4162Y3411D01*
X4162D01*
X4162Y3411D01*
X4162D01*
X4162Y3411D01*
X4163Y3411D01*
X4163Y3411D01*
X4163Y3411D01*
X4164Y3411D01*
X4165Y3411D01*
X4166D01*
X4166Y3411D01*
X4166Y3411D01*
X4167Y3411D01*
X4167Y3411D01*
X4168Y3411D01*
X4168Y3410D01*
X4169Y3410D01*
X4169Y3410D01*
X4169Y3410D01*
X4169Y3410D01*
X4170Y3410D01*
X4170Y3409D01*
X4171Y3409D01*
X4171Y3409D01*
X4171Y3409D01*
X4171Y3408D01*
X4171Y3408D01*
X4172Y3408D01*
X4172Y3407D01*
X4172Y3407D01*
X4172Y3406D01*
X4173Y3406D01*
Y3406D01*
X4173Y3406D01*
X4173Y3406D01*
X4173Y3405D01*
X4173Y3405D01*
X4173Y3405D01*
X4173Y3404D01*
X4173Y3403D01*
X4173Y3403D01*
X4173Y3402D01*
Y3402D01*
Y3402D01*
Y3401D01*
X4173Y3401D01*
X4173Y3401D01*
X4173Y3400D01*
X4173Y3400D01*
X4173Y3399D01*
X4173Y3398D01*
X4173Y3398D01*
X4172Y3397D01*
X4172Y3397D01*
X4172Y3396D01*
X4172Y3396D01*
X4171Y3395D01*
X4171Y3395D01*
X4171Y3395D01*
X4171Y3395D01*
X4171Y3395D01*
X4171Y3395D01*
X4170Y3394D01*
X4170Y3394D01*
X4170Y3394D01*
X4169Y3394D01*
X4169Y3394D01*
X4168Y3393D01*
X4168Y3393D01*
X4167Y3393D01*
X4167Y3393D01*
X4166Y3393D01*
X4165Y3393D01*
X4165D01*
X4165Y3393D01*
X4164Y3393D01*
X4164Y3393D01*
X4163Y3393D01*
X4162Y3393D01*
X4162Y3393D01*
X4162D01*
X4162Y3393D01*
X4162D01*
X4162Y3393D01*
X4161Y3394D01*
X4161Y3394D01*
X4160Y3394D01*
X4160Y3394D01*
X4159Y3394D01*
X4159Y3395D01*
Y3391D01*
X4159D01*
X4159Y3391D01*
X4159Y3390D01*
X4159Y3390D01*
X4159Y3390D01*
X4160Y3390D01*
X4160Y3390D01*
X4161Y3390D01*
X4161Y3390D01*
X4162Y3390D01*
X4162D01*
X4162Y3390D01*
X4162D01*
X4163Y3389D01*
X4163Y3389D01*
X4164Y3389D01*
X4164Y3389D01*
X4165Y3389D01*
X4166D01*
X4166Y3389D01*
X4167Y3389D01*
X4167Y3389D01*
X4168Y3389D01*
X4168Y3390D01*
X4169Y3390D01*
X4170Y3390D01*
X4170Y3390D01*
X4171Y3390D01*
X4172Y3391D01*
X4173Y3391D01*
X4173Y3391D01*
X4174Y3392D01*
X4175Y3392D01*
X4175Y3392D01*
X4175Y3393D01*
X4175Y3393D01*
X4175Y3393D01*
X4175Y3393D01*
X4176Y3394D01*
X4176Y3394D01*
X4176Y3395D01*
X4177Y3395D01*
X4177Y3396D01*
X4177Y3397D01*
X4177Y3398D01*
X4178Y3399D01*
X4178Y3400D01*
X4178Y3401D01*
X4178Y3402D01*
Y3402D01*
Y3402D01*
Y3402D01*
Y3402D01*
X4178Y3402D01*
Y3403D01*
X4178Y3403D01*
X4178Y3404D01*
X4178Y3404D01*
X4178Y3405D01*
X4177Y3406D01*
X4177Y3407D01*
Y3407D01*
X4177Y3407D01*
X4177Y3407D01*
X4177Y3407D01*
X4177Y3408D01*
X4177Y3408D01*
X4176Y3408D01*
X4176Y3409D01*
X4176Y3410D01*
X4175Y3410D01*
X4174Y3411D01*
X4174Y3411D01*
X4174Y3411D01*
X4174Y3411D01*
X4174Y3411D01*
X4174Y3412D01*
X4174Y3412D01*
X4173Y3412D01*
X4173Y3413D01*
X4172Y3413D01*
X4171Y3413D01*
X4170Y3414D01*
X4170D01*
X4170Y3414D01*
X4170Y3414D01*
X4170Y3414D01*
X4170Y3414D01*
X4170Y3414D01*
X4169Y3414D01*
X4169Y3414D01*
X4168Y3414D01*
X4167Y3415D01*
X4166Y3415D01*
X4165Y3415D01*
D02*
G37*
G36*
X3833D02*
X3832D01*
X3832Y3415D01*
X3831Y3415D01*
X3831Y3415D01*
X3829Y3414D01*
X3829D01*
X3829Y3414D01*
X3829D01*
X3829Y3414D01*
X3828Y3414D01*
X3828Y3414D01*
X3827Y3414D01*
X3826Y3414D01*
Y3409D01*
X3826D01*
X3826Y3410D01*
X3826Y3410D01*
X3826Y3410D01*
X3827Y3410D01*
X3827Y3410D01*
X3828Y3410D01*
X3828Y3410D01*
X3829Y3411D01*
X3829Y3411D01*
X3829D01*
X3829Y3411D01*
X3829D01*
X3830Y3411D01*
X3830Y3411D01*
X3830Y3411D01*
X3831Y3411D01*
X3831Y3411D01*
X3832Y3411D01*
X3833D01*
X3833Y3411D01*
X3834Y3411D01*
X3834Y3411D01*
X3835Y3411D01*
X3835Y3411D01*
X3836Y3410D01*
X3836Y3410D01*
X3836Y3410D01*
X3836Y3410D01*
X3837Y3410D01*
X3837Y3410D01*
X3838Y3409D01*
X3838Y3409D01*
X3838Y3409D01*
X3838Y3409D01*
X3839Y3408D01*
X3839Y3408D01*
X3839Y3408D01*
X3839Y3407D01*
X3840Y3407D01*
X3840Y3406D01*
X3840Y3406D01*
Y3406D01*
X3840Y3406D01*
X3840Y3406D01*
X3840Y3405D01*
X3840Y3405D01*
X3840Y3405D01*
X3841Y3404D01*
X3841Y3403D01*
X3841Y3403D01*
X3841Y3402D01*
Y3402D01*
Y3402D01*
Y3401D01*
X3841Y3401D01*
X3841Y3401D01*
X3841Y3400D01*
X3841Y3400D01*
X3841Y3399D01*
X3840Y3398D01*
X3840Y3398D01*
X3840Y3397D01*
X3840Y3397D01*
X3839Y3396D01*
X3839Y3396D01*
X3839Y3395D01*
X3839Y3395D01*
X3839Y3395D01*
X3838Y3395D01*
X3838Y3395D01*
X3838Y3395D01*
X3838Y3394D01*
X3837Y3394D01*
X3837Y3394D01*
X3837Y3394D01*
X3836Y3394D01*
X3836Y3393D01*
X3835Y3393D01*
X3835Y3393D01*
X3834Y3393D01*
X3833Y3393D01*
X3833Y3393D01*
X3832D01*
X3832Y3393D01*
X3832Y3393D01*
X3831Y3393D01*
X3830Y3393D01*
X3830Y3393D01*
X3829Y3393D01*
X3829D01*
X3829Y3393D01*
X3829D01*
X3829Y3393D01*
X3829Y3394D01*
X3828Y3394D01*
X3828Y3394D01*
X3827Y3394D01*
X3827Y3394D01*
X3826Y3395D01*
Y3391D01*
X3826D01*
X3826Y3391D01*
X3826Y3390D01*
X3826Y3390D01*
X3827Y3390D01*
X3827Y3390D01*
X3828Y3390D01*
X3828Y3390D01*
X3829Y3390D01*
X3830Y3390D01*
X3830D01*
X3830Y3390D01*
X3830D01*
X3830Y3389D01*
X3831Y3389D01*
X3831Y3389D01*
X3832Y3389D01*
X3832Y3389D01*
X3833D01*
X3834Y3389D01*
X3834Y3389D01*
X3835Y3389D01*
X3835Y3389D01*
X3836Y3390D01*
X3836Y3390D01*
X3837Y3390D01*
X3838Y3390D01*
X3839Y3390D01*
X3839Y3391D01*
X3840Y3391D01*
X3841Y3391D01*
X3842Y3392D01*
X3842Y3392D01*
X3842Y3392D01*
X3842Y3393D01*
X3842Y3393D01*
X3843Y3393D01*
X3843Y3393D01*
X3843Y3394D01*
X3843Y3394D01*
X3844Y3395D01*
X3844Y3395D01*
X3844Y3396D01*
X3845Y3397D01*
X3845Y3398D01*
X3845Y3399D01*
X3845Y3400D01*
X3845Y3401D01*
X3845Y3402D01*
Y3402D01*
Y3402D01*
Y3402D01*
Y3402D01*
X3845Y3402D01*
Y3403D01*
X3845Y3403D01*
X3845Y3404D01*
X3845Y3404D01*
X3845Y3405D01*
X3845Y3406D01*
X3844Y3407D01*
Y3407D01*
X3844Y3407D01*
X3844Y3407D01*
X3844Y3407D01*
X3844Y3408D01*
X3844Y3408D01*
X3844Y3408D01*
X3843Y3409D01*
X3843Y3410D01*
X3842Y3410D01*
X3842Y3411D01*
X3842Y3411D01*
X3842Y3411D01*
X3842Y3411D01*
X3842Y3411D01*
X3841Y3412D01*
X3841Y3412D01*
X3841Y3412D01*
X3840Y3413D01*
X3839Y3413D01*
X3839Y3413D01*
X3838Y3414D01*
X3838D01*
X3838Y3414D01*
X3838Y3414D01*
X3838Y3414D01*
X3837Y3414D01*
X3837Y3414D01*
X3837Y3414D01*
X3836Y3414D01*
X3836Y3414D01*
X3835Y3415D01*
X3834Y3415D01*
X3833Y3415D01*
D02*
G37*
G36*
X4057Y3415D02*
X4056D01*
X4056Y3415D01*
X4056Y3415D01*
X4055Y3415D01*
X4054Y3415D01*
X4054Y3414D01*
X4053Y3414D01*
X4053D01*
X4053Y3414D01*
X4053Y3414D01*
X4053Y3414D01*
X4052Y3414D01*
X4052Y3414D01*
X4051Y3414D01*
X4051Y3413D01*
X4050Y3413D01*
X4050Y3413D01*
X4050Y3413D01*
X4050Y3413D01*
X4049Y3412D01*
X4049Y3412D01*
X4049Y3412D01*
X4049Y3411D01*
X4048Y3411D01*
X4048Y3410D01*
Y3410D01*
X4048Y3410D01*
X4048Y3410D01*
X4048Y3410D01*
X4048Y3409D01*
X4047Y3409D01*
X4047Y3408D01*
X4047Y3407D01*
X4047Y3407D01*
Y3390D01*
X4051D01*
X4051Y3393D01*
X4051Y3393D01*
X4051Y3393D01*
X4051Y3393D01*
X4052Y3393D01*
X4052Y3392D01*
X4052Y3392D01*
X4052Y3392D01*
X4053Y3391D01*
X4054Y3391D01*
X4055Y3390D01*
X4055Y3390D01*
X4055D01*
X4055Y3390D01*
X4056Y3390D01*
X4056Y3390D01*
X4056Y3390D01*
X4056Y3390D01*
X4057Y3390D01*
X4057Y3389D01*
X4058Y3389D01*
X4059Y3389D01*
X4060Y3389D01*
X4060D01*
X4060Y3389D01*
X4060D01*
X4061Y3389D01*
X4062Y3389D01*
X4062Y3389D01*
X4063Y3390D01*
X4063Y3390D01*
X4063Y3390D01*
X4064Y3390D01*
X4064Y3390D01*
X4064Y3390D01*
X4065Y3390D01*
X4065Y3391D01*
X4065Y3391D01*
X4066Y3391D01*
X4066Y3391D01*
X4066Y3391D01*
X4066Y3392D01*
X4066Y3392D01*
X4067Y3392D01*
X4067Y3393D01*
X4067Y3393D01*
X4067Y3393D01*
X4067Y3393D01*
X4067Y3394D01*
X4067Y3394D01*
X4067Y3394D01*
X4068Y3395D01*
X4068Y3395D01*
X4068Y3396D01*
X4068Y3396D01*
Y3396D01*
Y3396D01*
X4068Y3397D01*
Y3397D01*
X4068Y3397D01*
X4068Y3398D01*
X4067Y3398D01*
X4067Y3398D01*
X4067Y3399D01*
X4067Y3399D01*
X4067Y3400D01*
X4066Y3400D01*
X4066Y3401D01*
X4066Y3401D01*
X4065Y3402D01*
X4065Y3402D01*
X4065Y3402D01*
X4065Y3402D01*
X4065Y3402D01*
X4064Y3402D01*
X4064Y3403D01*
X4064Y3403D01*
X4063Y3403D01*
X4063Y3403D01*
X4062Y3403D01*
X4062Y3404D01*
X4061Y3404D01*
X4060Y3404D01*
X4059Y3404D01*
X4059Y3404D01*
X4058Y3404D01*
X4057Y3404D01*
X4052D01*
Y3406D01*
Y3406D01*
Y3406D01*
Y3407D01*
X4052Y3407D01*
Y3407D01*
X4052Y3407D01*
X4052Y3408D01*
X4052Y3408D01*
X4052Y3409D01*
X4053Y3409D01*
X4053Y3410D01*
X4053Y3410D01*
X4053Y3410D01*
X4053Y3410D01*
X4053Y3410D01*
X4053Y3410D01*
X4054Y3410D01*
X4054Y3410D01*
X4054Y3411D01*
X4054Y3411D01*
X4055Y3411D01*
X4055Y3411D01*
X4055Y3411D01*
X4056Y3411D01*
X4056Y3411D01*
X4057Y3411D01*
X4058D01*
X4058Y3411D01*
X4059Y3411D01*
X4059Y3411D01*
X4060Y3411D01*
X4061Y3411D01*
X4061Y3411D01*
X4061D01*
X4062Y3411D01*
X4062D01*
X4062Y3411D01*
X4062Y3411D01*
X4062Y3410D01*
X4063Y3410D01*
X4063Y3410D01*
X4064Y3410D01*
X4065Y3410D01*
X4066Y3409D01*
Y3413D01*
X4066D01*
X4065Y3413D01*
X4065Y3413D01*
X4065Y3413D01*
X4065Y3414D01*
X4064Y3414D01*
X4064Y3414D01*
X4064D01*
X4064Y3414D01*
X4063Y3414D01*
X4063Y3414D01*
X4063Y3414D01*
X4062Y3414D01*
X4062Y3414D01*
X4062D01*
X4061Y3414D01*
X4061Y3414D01*
X4061Y3414D01*
X4061Y3414D01*
X4060Y3415D01*
X4059Y3415D01*
X4059D01*
X4059Y3415D01*
X4059Y3415D01*
X4059Y3415D01*
X4058D01*
X4058Y3415D01*
X4057Y3415D01*
D02*
G37*
G36*
X3863D02*
X3862D01*
X3862Y3415D01*
X3862Y3415D01*
X3861Y3415D01*
X3860Y3415D01*
X3860Y3414D01*
X3859Y3414D01*
X3859D01*
X3859Y3414D01*
X3859Y3414D01*
X3859Y3414D01*
X3858Y3414D01*
X3858Y3414D01*
X3857Y3414D01*
X3857Y3413D01*
X3856Y3413D01*
X3856Y3413D01*
X3856Y3413D01*
X3856Y3413D01*
X3855Y3412D01*
X3855Y3412D01*
X3855Y3412D01*
X3854Y3411D01*
X3854Y3411D01*
X3854Y3410D01*
Y3410D01*
X3854Y3410D01*
X3854Y3410D01*
X3854Y3410D01*
X3854Y3409D01*
X3853Y3409D01*
X3853Y3408D01*
X3853Y3407D01*
X3853Y3407D01*
Y3390D01*
X3857D01*
X3857Y3393D01*
X3857Y3393D01*
X3857Y3393D01*
X3857Y3393D01*
X3858Y3393D01*
X3858Y3392D01*
X3858Y3392D01*
X3858Y3392D01*
X3859Y3391D01*
X3860Y3391D01*
X3861Y3390D01*
X3861Y3390D01*
X3861D01*
X3861Y3390D01*
X3862Y3390D01*
X3862Y3390D01*
X3862Y3390D01*
X3862Y3390D01*
X3863Y3390D01*
X3863Y3389D01*
X3864Y3389D01*
X3865Y3389D01*
X3866Y3389D01*
X3866D01*
X3866Y3389D01*
X3866D01*
X3867Y3389D01*
X3867Y3389D01*
X3868Y3389D01*
X3869Y3390D01*
X3869Y3390D01*
X3869Y3390D01*
X3870Y3390D01*
X3870Y3390D01*
X3870Y3390D01*
X3871Y3390D01*
X3871Y3391D01*
X3871Y3391D01*
X3872Y3391D01*
X3872Y3391D01*
X3872Y3391D01*
X3872Y3392D01*
X3872Y3392D01*
X3873Y3392D01*
X3873Y3393D01*
X3873Y3393D01*
X3873Y3393D01*
X3873Y3393D01*
X3873Y3394D01*
X3873Y3394D01*
X3873Y3394D01*
X3873Y3395D01*
X3874Y3395D01*
X3874Y3396D01*
X3874Y3396D01*
Y3396D01*
Y3396D01*
X3874Y3397D01*
Y3397D01*
X3874Y3397D01*
X3873Y3398D01*
X3873Y3398D01*
X3873Y3398D01*
X3873Y3399D01*
X3873Y3399D01*
X3873Y3400D01*
X3872Y3400D01*
X3872Y3401D01*
X3872Y3401D01*
X3871Y3402D01*
X3871Y3402D01*
X3871Y3402D01*
X3871Y3402D01*
X3871Y3402D01*
X3870Y3402D01*
X3870Y3403D01*
X3870Y3403D01*
X3869Y3403D01*
X3869Y3403D01*
X3868Y3403D01*
X3868Y3404D01*
X3867Y3404D01*
X3866Y3404D01*
X3865Y3404D01*
X3865Y3404D01*
X3864Y3404D01*
X3863Y3404D01*
X3858D01*
Y3406D01*
Y3406D01*
Y3406D01*
Y3407D01*
X3858Y3407D01*
Y3407D01*
X3858Y3407D01*
X3858Y3408D01*
X3858Y3408D01*
X3858Y3409D01*
X3859Y3409D01*
X3859Y3410D01*
X3859Y3410D01*
X3859Y3410D01*
X3859Y3410D01*
X3859Y3410D01*
X3859Y3410D01*
X3860Y3410D01*
X3860Y3410D01*
X3860Y3411D01*
X3860Y3411D01*
X3861Y3411D01*
X3861Y3411D01*
X3861Y3411D01*
X3862Y3411D01*
X3862Y3411D01*
X3863Y3411D01*
X3864D01*
X3864Y3411D01*
X3865Y3411D01*
X3865Y3411D01*
X3866Y3411D01*
X3867Y3411D01*
X3867Y3411D01*
X3867D01*
X3867Y3411D01*
X3868D01*
X3868Y3411D01*
X3868Y3411D01*
X3868Y3410D01*
X3869Y3410D01*
X3869Y3410D01*
X3870Y3410D01*
X3871Y3410D01*
X3872Y3409D01*
Y3413D01*
X3872D01*
X3871Y3413D01*
X3871Y3413D01*
X3871Y3413D01*
X3871Y3414D01*
X3870Y3414D01*
X3870Y3414D01*
X3870D01*
X3870Y3414D01*
X3869Y3414D01*
X3869Y3414D01*
X3869Y3414D01*
X3868Y3414D01*
X3868Y3414D01*
X3868D01*
X3867Y3414D01*
X3867Y3414D01*
X3867Y3414D01*
X3867Y3414D01*
X3866Y3415D01*
X3865Y3415D01*
X3865D01*
X3865Y3415D01*
X3865Y3415D01*
X3865Y3415D01*
X3864D01*
X3864Y3415D01*
X3863Y3415D01*
D02*
G37*
G36*
X3789Y3424D02*
X3785D01*
Y3403D01*
X3774Y3414D01*
X3768D01*
X3780Y3403D01*
X3768Y3390D01*
X3773D01*
X3785Y3403D01*
Y3390D01*
X3789D01*
Y3424D01*
D02*
G37*
G36*
X4037Y3497D02*
X4031D01*
X4023Y3478D01*
X4020Y3471D01*
Y3488D01*
Y3497D01*
X4015D01*
Y3465D01*
X4021D01*
X4030Y3485D01*
X4033Y3491D01*
Y3475D01*
Y3465D01*
X4037D01*
Y3497D01*
D02*
G37*
G36*
X4178Y3490D02*
X4174D01*
X4172Y3473D01*
X4171Y3469D01*
X4170Y3472D01*
X4167Y3483D01*
X4163D01*
X4160Y3472D01*
X4158Y3469D01*
X4158Y3473D01*
X4156Y3490D01*
X4152D01*
X4156Y3465D01*
X4161D01*
X4164Y3475D01*
X4165Y3478D01*
X4166Y3475D01*
X4169Y3465D01*
X4174D01*
X4178Y3490D01*
D02*
G37*
G36*
X3985Y3497D02*
X3980D01*
X3973Y3475D01*
X3971Y3469D01*
X3969Y3475D01*
X3962Y3497D01*
X3957D01*
X3968Y3465D01*
X3974D01*
X3985Y3497D01*
D02*
G37*
G36*
X3022Y4026D02*
X3022D01*
X3022Y4026D01*
X3022Y4026D01*
X3021Y4026D01*
X3021Y4026D01*
X3021Y4026D01*
X3021Y4025D01*
X3021Y4025D01*
X3021Y4025D01*
X3021Y4025D01*
X3020Y4025D01*
X3020Y4025D01*
X3020Y4025D01*
X3020Y4025D01*
X3020Y4025D01*
X3020Y4025D01*
X3020Y4025D01*
X3020Y4024D01*
X3019Y4024D01*
X3019Y4024D01*
X3019Y4024D01*
X3019Y4023D01*
X3019Y4023D01*
Y4023D01*
X3019Y4023D01*
X3019Y4022D01*
X3019Y4022D01*
Y4022D01*
X3019Y4022D01*
Y4022D01*
Y4022D01*
Y4020D01*
X3025D01*
Y4022D01*
Y4022D01*
X3025Y4022D01*
X3025Y4023D01*
X3025Y4023D01*
X3025Y4023D01*
X3025Y4024D01*
X3025Y4024D01*
X3025Y4024D01*
X3025Y4024D01*
X3025Y4024D01*
X3024Y4024D01*
X3024Y4025D01*
X3024Y4025D01*
X3024Y4025D01*
X3024Y4025D01*
Y4025D01*
X3024Y4025D01*
X3024Y4025D01*
X3024Y4025D01*
X3023Y4025D01*
X3023Y4026D01*
X3023Y4026D01*
X3022Y4026D01*
X3022D01*
X3022Y4026D01*
D02*
G37*
G36*
X4137Y3500D02*
X4137D01*
X4137Y3500D01*
X4136Y3500D01*
X4136Y3500D01*
X4136D01*
X4136Y3500D01*
X4136Y3500D01*
X4135Y3499D01*
X4135Y3499D01*
X4135Y3499D01*
X4135Y3499D01*
X4135Y3499D01*
X4135Y3499D01*
X4135Y3499D01*
X4134Y3498D01*
X4134Y3498D01*
Y3498D01*
X4134Y3498D01*
X4134Y3498D01*
X4134Y3497D01*
X4134Y3497D01*
X4134Y3497D01*
Y3497D01*
Y3496D01*
Y3496D01*
X4134Y3496D01*
X4134Y3496D01*
X4134Y3495D01*
Y3495D01*
X4134Y3495D01*
X4134Y3495D01*
X4134Y3495D01*
X4134Y3495D01*
X4135Y3494D01*
X4135Y3494D01*
X4135Y3494D01*
X4135Y3494D01*
X4135Y3494D01*
X4135Y3494D01*
X4136Y3493D01*
X4136D01*
X4136Y3493D01*
X4136Y3493D01*
X4136Y3493D01*
X4137Y3493D01*
X4137Y3493D01*
X4137D01*
X4138Y3493D01*
X4138Y3493D01*
X4139Y3493D01*
X4139D01*
X4139Y3493D01*
X4139Y3494D01*
X4139Y3494D01*
X4139Y3494D01*
X4140Y3494D01*
X4140Y3494D01*
X4140Y3494D01*
X4140Y3494D01*
X4140Y3494D01*
X4140Y3495D01*
X4140Y3495D01*
Y3495D01*
X4140Y3495D01*
X4140Y3495D01*
X4140Y3496D01*
X4140Y3496D01*
X4141Y3496D01*
X4141Y3497D01*
Y3497D01*
Y3497D01*
Y3497D01*
X4141Y3497D01*
X4140Y3497D01*
X4140Y3498D01*
Y3498D01*
X4140Y3498D01*
X4140Y3498D01*
X4140Y3498D01*
X4140Y3499D01*
X4140Y3499D01*
X4140Y3499D01*
X4139Y3499D01*
X4139Y3499D01*
X4139Y3499D01*
X4139Y3499D01*
X4139Y3500D01*
X4138D01*
X4138Y3500D01*
X4138Y3500D01*
X4138Y3500D01*
X4138Y3500D01*
X4138Y3500D01*
X4137Y3500D01*
D02*
G37*
G36*
X4092Y3500D02*
X4087D01*
Y3490D01*
X4088Y3486D01*
X4088Y3486D01*
X4087Y3486D01*
X4087Y3486D01*
X4087Y3486D01*
X4087Y3487D01*
X4086Y3487D01*
X4086Y3487D01*
X4086Y3488D01*
X4086Y3488D01*
X4085Y3488D01*
X4085Y3488D01*
X4085Y3488D01*
X4085Y3488D01*
X4084Y3489D01*
X4084Y3489D01*
X4084Y3489D01*
X4083Y3489D01*
X4083Y3489D01*
X4083Y3489D01*
X4083Y3489D01*
X4082Y3490D01*
X4082Y3490D01*
X4082D01*
X4081Y3490D01*
X4081Y3490D01*
X4081Y3490D01*
X4081Y3490D01*
X4080Y3490D01*
X4080Y3490D01*
X4079D01*
X4079Y3490D01*
X4079Y3490D01*
X4078Y3490D01*
X4078Y3490D01*
X4077Y3490D01*
X4077Y3490D01*
X4077Y3489D01*
X4076Y3489D01*
X4076Y3489D01*
X4075Y3489D01*
X4075Y3489D01*
X4074Y3488D01*
X4074Y3488D01*
X4074Y3488D01*
X4074Y3488D01*
X4074Y3488D01*
X4074Y3487D01*
X4073Y3487D01*
X4073Y3487D01*
X4073Y3486D01*
X4073Y3486D01*
X4073Y3486D01*
X4072Y3485D01*
X4072Y3485D01*
X4072Y3484D01*
X4072Y3483D01*
X4072Y3483D01*
X4072Y3482D01*
X4072Y3481D01*
Y3465D01*
X4076D01*
Y3481D01*
Y3481D01*
Y3481D01*
Y3481D01*
Y3481D01*
X4076Y3481D01*
X4076Y3482D01*
X4076Y3482D01*
X4076Y3483D01*
X4077Y3484D01*
X4077Y3484D01*
X4077Y3485D01*
X4077Y3485D01*
Y3485D01*
X4077Y3485D01*
X4077Y3485D01*
X4078Y3485D01*
X4078Y3486D01*
X4078Y3486D01*
X4079Y3486D01*
X4080Y3486D01*
X4080Y3486D01*
X4081D01*
X4081Y3486D01*
X4081Y3486D01*
X4081Y3486D01*
X4082Y3486D01*
X4082D01*
X4082Y3486D01*
X4082Y3486D01*
X4082Y3486D01*
X4083Y3486D01*
X4083Y3486D01*
X4083Y3485D01*
X4083Y3485D01*
X4083Y3485D01*
X4084Y3485D01*
X4084Y3485D01*
X4084Y3485D01*
X4084Y3485D01*
X4084Y3484D01*
X4085Y3484D01*
X4085Y3484D01*
X4085Y3484D01*
X4085Y3484D01*
X4086Y3483D01*
X4086Y3483D01*
X4086Y3483D01*
X4086Y3482D01*
X4087Y3482D01*
X4087Y3481D01*
Y3465D01*
X4092D01*
Y3500D01*
D02*
G37*
G36*
X3952Y3497D02*
X3934D01*
Y3493D01*
X3948D01*
Y3483D01*
X3934D01*
Y3480D01*
X3948D01*
Y3469D01*
X3934D01*
Y3465D01*
X3952D01*
Y3497D01*
D02*
G37*
G36*
X3925D02*
X3916D01*
X3916Y3497D01*
X3916D01*
X3915Y3497D01*
X3915D01*
X3914Y3497D01*
X3913Y3497D01*
X3912Y3497D01*
X3912Y3496D01*
X3912D01*
X3912Y3496D01*
X3912Y3496D01*
X3911Y3496D01*
X3911Y3496D01*
X3911Y3496D01*
X3910Y3496D01*
X3909Y3495D01*
X3909Y3495D01*
X3908Y3495D01*
X3908Y3495D01*
X3908Y3495D01*
X3908Y3494D01*
X3908Y3494D01*
X3907Y3494D01*
X3907Y3493D01*
X3907Y3493D01*
X3906Y3492D01*
Y3492D01*
X3906Y3492D01*
X3906Y3492D01*
X3906Y3491D01*
X3906Y3491D01*
X3906Y3491D01*
X3906Y3490D01*
X3906Y3489D01*
X3906Y3489D01*
Y3489D01*
Y3488D01*
X3906Y3488D01*
X3906Y3488D01*
X3906Y3487D01*
X3906Y3487D01*
X3906Y3486D01*
X3906Y3486D01*
X3906Y3486D01*
X3906Y3486D01*
X3907Y3485D01*
X3907Y3485D01*
X3907Y3485D01*
X3907Y3484D01*
X3907Y3484D01*
X3908Y3483D01*
X3908Y3483D01*
X3908Y3483D01*
X3908Y3483D01*
X3908Y3483D01*
X3909Y3482D01*
X3909Y3482D01*
X3909Y3482D01*
X3910Y3481D01*
X3910Y3481D01*
X3910Y3481D01*
X3910Y3481D01*
X3911Y3481D01*
X3911Y3481D01*
X3912Y3481D01*
X3912Y3480D01*
X3913Y3480D01*
X3913Y3480D01*
X3913Y3480D01*
X3912Y3480D01*
X3912Y3480D01*
X3912Y3480D01*
X3911Y3479D01*
X3911Y3479D01*
X3910Y3479D01*
X3910Y3478D01*
X3910Y3478D01*
X3910Y3478D01*
X3910Y3478D01*
X3910Y3477D01*
X3909Y3477D01*
X3909Y3476D01*
X3909Y3475D01*
X3903Y3465D01*
X3908D01*
X3913Y3475D01*
X3913Y3475D01*
X3913Y3475D01*
X3913Y3476D01*
X3914Y3476D01*
X3914Y3476D01*
X3914Y3477D01*
X3914Y3477D01*
X3914Y3477D01*
X3914Y3477D01*
X3914Y3477D01*
X3914Y3477D01*
X3915Y3478D01*
X3915Y3478D01*
X3915Y3478D01*
X3916Y3478D01*
X3916Y3478D01*
X3916Y3478D01*
X3916Y3478D01*
X3916Y3479D01*
X3916Y3479D01*
X3916Y3479D01*
X3917Y3479D01*
X3917D01*
X3917Y3479D01*
X3917Y3479D01*
X3917Y3479D01*
X3918Y3479D01*
X3918Y3479D01*
X3918Y3479D01*
X3921D01*
Y3465D01*
X3925D01*
Y3497D01*
D02*
G37*
G36*
X3868D02*
X3864D01*
Y3469D01*
X3850D01*
Y3465D01*
X3868D01*
Y3497D01*
D02*
G37*
G36*
X4111Y3497D02*
Y3490D01*
X4099D01*
Y3486D01*
X4111D01*
Y3473D01*
Y3473D01*
Y3473D01*
Y3473D01*
X4111Y3473D01*
Y3473D01*
X4111Y3472D01*
X4110Y3472D01*
X4110Y3471D01*
X4110Y3471D01*
X4110Y3470D01*
X4109Y3470D01*
X4109Y3469D01*
X4109D01*
X4109Y3469D01*
X4109Y3469D01*
X4109Y3469D01*
X4109Y3469D01*
X4109Y3469D01*
X4108Y3469D01*
X4108Y3469D01*
X4107Y3468D01*
X4106Y3468D01*
X4105Y3468D01*
X4105D01*
X4104Y3468D01*
X4104D01*
X4103Y3468D01*
X4103Y3468D01*
X4102Y3468D01*
X4102D01*
X4102Y3468D01*
X4102Y3468D01*
X4102Y3468D01*
X4101Y3469D01*
X4101Y3469D01*
X4100Y3469D01*
X4099Y3469D01*
Y3465D01*
X4100D01*
X4100Y3465D01*
X4100Y3465D01*
X4100Y3465D01*
X4101Y3465D01*
X4101Y3465D01*
X4102Y3465D01*
X4102Y3465D01*
X4103D01*
X4103Y3465D01*
X4103Y3465D01*
X4103D01*
X4104Y3465D01*
X4104Y3465D01*
X4105Y3465D01*
X4106D01*
X4106Y3465D01*
X4107Y3465D01*
X4107Y3465D01*
X4108Y3465D01*
X4108Y3465D01*
X4109Y3465D01*
X4110Y3465D01*
X4111Y3465D01*
X4111Y3466D01*
X4112Y3466D01*
X4112Y3466D01*
X4113Y3467D01*
X4113Y3467D01*
X4113Y3467D01*
X4113Y3467D01*
X4113Y3467D01*
X4113Y3467D01*
X4113Y3468D01*
X4114Y3468D01*
X4114Y3468D01*
X4114Y3469D01*
X4114Y3469D01*
X4114Y3470D01*
X4115Y3470D01*
X4115Y3471D01*
X4115Y3472D01*
X4115Y3472D01*
X4115Y3473D01*
Y3486D01*
X4122D01*
Y3490D01*
X4115D01*
Y3496D01*
X4111Y3497D01*
D02*
G37*
G36*
X4146Y3490D02*
X4134D01*
Y3468D01*
X4127D01*
Y3465D01*
X4147D01*
Y3468D01*
X4139D01*
Y3486D01*
X4146D01*
Y3490D01*
D02*
G37*
G36*
X4002Y3497D02*
X3996D01*
X3985Y3465D01*
X3990D01*
X3992Y3472D01*
X4005D01*
X4008Y3465D01*
X4012D01*
X4002Y3497D01*
D02*
G37*
G36*
X4111Y3415D02*
X4111D01*
X4110Y3415D01*
X4110D01*
X4109Y3415D01*
X4109Y3415D01*
X4108Y3415D01*
X4108D01*
X4108Y3415D01*
X4108D01*
X4108Y3415D01*
X4107Y3415D01*
X4107Y3414D01*
X4106Y3414D01*
X4105Y3414D01*
X4104Y3414D01*
Y3410D01*
X4104D01*
X4105Y3410D01*
X4105D01*
X4105Y3410D01*
X4105Y3410D01*
X4105Y3410D01*
X4106Y3411D01*
X4106Y3411D01*
X4107Y3411D01*
X4108Y3411D01*
X4108D01*
X4108Y3411D01*
X4109D01*
X4109Y3411D01*
X4109Y3411D01*
X4110Y3411D01*
X4110Y3411D01*
X4111Y3411D01*
X4112D01*
X4112Y3411D01*
X4113Y3411D01*
X4113Y3411D01*
X4114Y3411D01*
X4114Y3411D01*
X4114D01*
X4114Y3411D01*
X4115Y3411D01*
X4115Y3411D01*
X4115Y3411D01*
X4116Y3410D01*
X4116Y3410D01*
X4116Y3410D01*
X4116Y3410D01*
X4116Y3410D01*
X4116Y3410D01*
X4117Y3410D01*
X4117Y3410D01*
X4117Y3409D01*
Y3409D01*
X4117Y3409D01*
X4117Y3409D01*
X4117Y3409D01*
X4117Y3409D01*
X4117Y3408D01*
Y3408D01*
Y3408D01*
Y3408D01*
X4117Y3408D01*
X4117Y3407D01*
X4117Y3407D01*
Y3407D01*
X4117Y3407D01*
X4117Y3407D01*
X4117Y3406D01*
X4117Y3406D01*
X4116Y3406D01*
X4116Y3406D01*
X4116Y3406D01*
X4116Y3406D01*
X4116Y3406D01*
X4116Y3406D01*
X4115Y3406D01*
X4115Y3405D01*
X4115Y3405D01*
X4114Y3405D01*
X4114Y3405D01*
X4114Y3405D01*
X4114Y3405D01*
X4113Y3405D01*
X4113Y3404D01*
X4113Y3404D01*
X4112Y3404D01*
X4111Y3404D01*
X4111Y3404D01*
X4111D01*
X4111Y3404D01*
X4111Y3404D01*
X4110Y3404D01*
X4110Y3404D01*
X4110Y3403D01*
X4109Y3403D01*
X4109Y3403D01*
X4108Y3403D01*
X4108Y3403D01*
X4107Y3402D01*
X4107D01*
X4107Y3402D01*
X4107Y3402D01*
X4107Y3402D01*
X4106Y3402D01*
X4106Y3402D01*
X4105Y3401D01*
X4105Y3401D01*
X4105Y3401D01*
X4105Y3401D01*
X4104Y3401D01*
X4104Y3400D01*
X4104Y3400D01*
X4104Y3400D01*
X4104Y3400D01*
X4103Y3399D01*
X4103Y3399D01*
X4103Y3399D01*
X4103Y3399D01*
X4103Y3398D01*
X4103Y3398D01*
X4103Y3398D01*
X4103Y3397D01*
X4103Y3397D01*
X4103Y3396D01*
Y3396D01*
Y3396D01*
X4103Y3396D01*
X4103Y3396D01*
X4103Y3395D01*
X4103Y3395D01*
X4103Y3394D01*
X4103Y3394D01*
X4103Y3394D01*
X4103Y3394D01*
X4103Y3394D01*
X4104Y3393D01*
X4104Y3393D01*
X4104Y3393D01*
X4104Y3392D01*
X4105Y3392D01*
X4105Y3392D01*
X4105Y3392D01*
X4105Y3392D01*
X4105Y3391D01*
X4106Y3391D01*
X4106Y3391D01*
X4106Y3391D01*
X4106Y3391D01*
X4106Y3391D01*
X4107Y3391D01*
X4107Y3391D01*
X4107Y3390D01*
X4108Y3390D01*
X4108Y3390D01*
X4108Y3390D01*
X4109D01*
X4109Y3390D01*
X4109Y3390D01*
X4109Y3390D01*
X4109Y3390D01*
X4110Y3390D01*
X4110Y3389D01*
X4111Y3389D01*
X4111D01*
X4111Y3389D01*
X4111Y3389D01*
X4112Y3389D01*
X4112Y3389D01*
X4112Y3389D01*
X4113Y3389D01*
X4114D01*
X4114Y3389D01*
X4115D01*
X4115Y3389D01*
X4116Y3389D01*
X4117Y3389D01*
X4118Y3389D01*
X4118D01*
X4118Y3389D01*
X4118D01*
X4118Y3389D01*
X4119Y3390D01*
X4119Y3390D01*
X4120Y3390D01*
X4120Y3390D01*
X4121Y3390D01*
X4122Y3390D01*
Y3394D01*
X4122D01*
X4122Y3394D01*
X4122Y3394D01*
X4121Y3394D01*
X4121Y3394D01*
X4121Y3394D01*
X4121Y3394D01*
X4120Y3394D01*
X4119Y3393D01*
X4118Y3393D01*
X4118Y3393D01*
X4117D01*
X4117Y3393D01*
X4117D01*
X4117Y3393D01*
X4117Y3393D01*
X4116Y3393D01*
X4116Y3393D01*
X4115Y3393D01*
X4114Y3393D01*
X4113D01*
X4113Y3393D01*
X4112D01*
X4112Y3393D01*
X4111Y3393D01*
X4110Y3393D01*
X4109Y3393D01*
X4109Y3393D01*
X4109Y3394D01*
X4109D01*
X4109Y3394D01*
X4109Y3394D01*
X4108Y3394D01*
X4108Y3394D01*
X4108Y3395D01*
X4107Y3395D01*
X4107Y3395D01*
X4107Y3396D01*
Y3396D01*
Y3396D01*
Y3396D01*
Y3396D01*
X4107Y3396D01*
X4107Y3397D01*
X4108Y3397D01*
Y3397D01*
X4108Y3397D01*
X4108Y3397D01*
X4108Y3398D01*
X4108Y3398D01*
X4108Y3398D01*
X4108Y3398D01*
X4108Y3398D01*
X4108Y3398D01*
X4108Y3398D01*
X4109Y3398D01*
X4109Y3399D01*
X4109Y3399D01*
X4109Y3399D01*
X4110Y3399D01*
X4110Y3399D01*
X4110Y3399D01*
X4111Y3399D01*
X4111Y3399D01*
X4111Y3400D01*
X4112Y3400D01*
X4112Y3400D01*
X4113Y3400D01*
X4114Y3400D01*
X4114D01*
X4114Y3400D01*
X4114Y3400D01*
X4114Y3401D01*
X4114Y3401D01*
X4115Y3401D01*
X4115Y3401D01*
X4116Y3401D01*
X4117Y3402D01*
X4117Y3402D01*
X4117Y3402D01*
X4117Y3402D01*
X4118Y3402D01*
X4118Y3402D01*
X4119Y3402D01*
X4119Y3403D01*
X4119Y3403D01*
X4119Y3403D01*
X4119Y3403D01*
X4120Y3403D01*
X4120Y3404D01*
X4120Y3404D01*
X4120Y3404D01*
X4121Y3405D01*
X4121Y3405D01*
X4121Y3405D01*
X4121Y3405D01*
X4121Y3406D01*
X4121Y3406D01*
X4121Y3406D01*
X4121Y3407D01*
X4121Y3407D01*
X4122Y3408D01*
Y3408D01*
Y3408D01*
X4121Y3408D01*
X4121Y3408D01*
X4121Y3409D01*
X4121Y3409D01*
X4121Y3410D01*
X4121Y3410D01*
X4121Y3410D01*
X4121Y3410D01*
X4121Y3410D01*
X4121Y3411D01*
X4120Y3411D01*
X4120Y3412D01*
X4120Y3412D01*
X4119Y3412D01*
X4119Y3412D01*
X4119Y3413D01*
X4119Y3413D01*
X4119Y3413D01*
X4118Y3413D01*
X4118Y3414D01*
X4117Y3414D01*
X4116Y3414D01*
X4116D01*
X4116Y3414D01*
X4116Y3414D01*
X4116Y3414D01*
X4116Y3414D01*
X4116Y3414D01*
X4115Y3414D01*
X4115Y3414D01*
X4115Y3415D01*
X4114Y3415D01*
X4113Y3415D01*
X4112Y3415D01*
X4111Y3415D01*
D02*
G37*
G36*
X4002Y3397D02*
X4002D01*
X4001Y3397D01*
X4001Y3397D01*
X4001Y3397D01*
X4000Y3397D01*
X4000D01*
X4000Y3397D01*
X4000Y3397D01*
X4000Y3397D01*
X3999Y3397D01*
X3999Y3396D01*
X3999Y3396D01*
X3999Y3396D01*
X3999Y3396D01*
X3999Y3396D01*
X3998Y3396D01*
X3998Y3395D01*
X3998Y3395D01*
Y3395D01*
X3998Y3395D01*
X3998Y3395D01*
X3998Y3394D01*
X3998Y3394D01*
X3998Y3394D01*
X3998Y3393D01*
Y3393D01*
Y3393D01*
Y3393D01*
X3998Y3393D01*
X3998Y3392D01*
X3998Y3392D01*
X3998Y3392D01*
Y3392D01*
X3998Y3392D01*
X3998Y3391D01*
X3998Y3391D01*
X3999Y3391D01*
X3999Y3390D01*
X3999Y3390D01*
X3999Y3390D01*
X3999Y3390D01*
X3999Y3390D01*
X4000Y3390D01*
X4000Y3390D01*
X4000Y3390D01*
X4000D01*
X4000Y3389D01*
X4001Y3389D01*
X4001Y3389D01*
X4001Y3389D01*
X4001Y3389D01*
X4002Y3389D01*
X4002D01*
X4002Y3389D01*
X4002D01*
X4003Y3389D01*
X4003Y3389D01*
X4003Y3390D01*
X4003D01*
X4004Y3390D01*
X4004Y3390D01*
X4004Y3390D01*
X4004Y3390D01*
X4005Y3390D01*
X4005Y3390D01*
X4005Y3390D01*
X4005Y3391D01*
X4005Y3391D01*
X4005Y3391D01*
X4005Y3391D01*
X4006Y3392D01*
Y3392D01*
X4006Y3392D01*
X4006Y3392D01*
X4006Y3392D01*
X4006Y3392D01*
X4006Y3393D01*
X4006Y3393D01*
Y3393D01*
Y3393D01*
X4006Y3394D01*
Y3394D01*
X4006Y3394D01*
X4006Y3394D01*
X4006Y3395D01*
Y3395D01*
X4006Y3395D01*
X4005Y3395D01*
X4005Y3395D01*
X4005Y3396D01*
X4005Y3396D01*
X4005Y3396D01*
X4005Y3396D01*
X4004Y3396D01*
X4004Y3396D01*
X4004Y3397D01*
X4004Y3397D01*
X4003Y3397D01*
X4003D01*
X4003Y3397D01*
X4003Y3397D01*
X4003Y3397D01*
X4003Y3397D01*
X4002Y3397D01*
X4002Y3397D01*
D02*
G37*
G36*
X4094Y3424D02*
X4082D01*
Y3393D01*
X4075D01*
Y3390D01*
X4094D01*
Y3393D01*
X4086D01*
Y3421D01*
X4094D01*
Y3424D01*
D02*
G37*
G36*
X3748Y3415D02*
X3748D01*
X3748Y3415D01*
X3748Y3415D01*
X3747Y3415D01*
X3747Y3415D01*
X3746Y3415D01*
X3746Y3414D01*
X3745Y3414D01*
X3745Y3414D01*
X3744Y3414D01*
X3744Y3413D01*
X3743Y3413D01*
X3743Y3413D01*
X3743Y3412D01*
X3743Y3412D01*
X3743Y3412D01*
X3742Y3412D01*
X3742Y3412D01*
X3742Y3412D01*
X3742Y3411D01*
X3742Y3411D01*
X3742Y3410D01*
X3741Y3410D01*
X3741Y3409D01*
X3741Y3409D01*
X3741Y3408D01*
X3741Y3407D01*
X3741Y3407D01*
X3741Y3406D01*
Y3405D01*
X3745D01*
Y3405D01*
Y3405D01*
Y3405D01*
Y3405D01*
Y3406D01*
X3745Y3406D01*
X3745Y3407D01*
X3745Y3408D01*
X3746Y3408D01*
X3746Y3409D01*
X3746Y3409D01*
X3746Y3410D01*
Y3410D01*
X3746Y3410D01*
X3746Y3410D01*
X3747Y3410D01*
X3747Y3410D01*
X3747Y3411D01*
X3748Y3411D01*
X3748Y3411D01*
X3749Y3411D01*
X3749D01*
X3750Y3411D01*
X3750Y3411D01*
X3750Y3411D01*
X3751Y3411D01*
X3751D01*
X3751Y3411D01*
X3751Y3411D01*
X3751Y3411D01*
X3752Y3410D01*
X3752Y3410D01*
X3752Y3410D01*
X3753Y3410D01*
X3753Y3410D01*
X3753Y3410D01*
X3753Y3410D01*
X3753Y3409D01*
X3753Y3409D01*
X3754Y3409D01*
X3754Y3408D01*
X3755Y3408D01*
X3755Y3408D01*
X3755Y3408D01*
X3755Y3408D01*
X3755Y3407D01*
X3756Y3407D01*
X3756Y3407D01*
X3756Y3406D01*
X3757Y3406D01*
Y3390D01*
X3761D01*
Y3414D01*
X3757D01*
X3757Y3410D01*
X3757Y3410D01*
X3757Y3410D01*
X3757Y3410D01*
X3757Y3410D01*
X3756Y3410D01*
X3756Y3411D01*
X3756Y3411D01*
X3755Y3412D01*
X3754Y3413D01*
X3754Y3413D01*
X3753Y3413D01*
X3753Y3414D01*
X3753D01*
X3753Y3414D01*
X3753Y3414D01*
X3752Y3414D01*
X3752Y3414D01*
X3752Y3414D01*
X3751Y3414D01*
X3751Y3414D01*
X3750Y3415D01*
X3749Y3415D01*
X3748Y3415D01*
D02*
G37*
G36*
X3891Y3397D02*
X3891D01*
X3890Y3397D01*
X3890Y3397D01*
X3890Y3397D01*
X3889Y3397D01*
X3889D01*
X3889Y3397D01*
X3889Y3397D01*
X3889Y3397D01*
X3889Y3397D01*
X3888Y3396D01*
X3888Y3396D01*
X3888Y3396D01*
X3888Y3396D01*
X3888Y3396D01*
X3888Y3396D01*
X3887Y3395D01*
X3887Y3395D01*
Y3395D01*
X3887Y3395D01*
X3887Y3395D01*
X3887Y3394D01*
X3887Y3394D01*
X3887Y3394D01*
X3887Y3393D01*
Y3393D01*
Y3393D01*
Y3393D01*
X3887Y3393D01*
X3887Y3392D01*
X3887Y3392D01*
X3887Y3392D01*
Y3392D01*
X3887Y3392D01*
X3887Y3391D01*
X3887Y3391D01*
X3888Y3391D01*
X3888Y3390D01*
X3888Y3390D01*
X3888Y3390D01*
X3888Y3390D01*
X3888Y3390D01*
X3889Y3390D01*
X3889Y3390D01*
X3889Y3390D01*
X3889D01*
X3890Y3389D01*
X3890Y3389D01*
X3890Y3389D01*
X3890Y3389D01*
X3890Y3389D01*
X3891Y3389D01*
X3891D01*
X3891Y3389D01*
X3891D01*
X3892Y3389D01*
X3892Y3389D01*
X3893Y3390D01*
X3893D01*
X3893Y3390D01*
X3893Y3390D01*
X3893Y3390D01*
X3893Y3390D01*
X3894Y3390D01*
X3894Y3390D01*
X3894Y3390D01*
X3894Y3391D01*
X3894Y3391D01*
X3894Y3391D01*
X3894Y3391D01*
X3895Y3392D01*
Y3392D01*
X3895Y3392D01*
X3895Y3392D01*
X3895Y3392D01*
X3895Y3392D01*
X3895Y3393D01*
X3895Y3393D01*
Y3393D01*
Y3393D01*
X3895Y3394D01*
Y3394D01*
X3895Y3394D01*
X3895Y3394D01*
X3895Y3395D01*
Y3395D01*
X3895Y3395D01*
X3895Y3395D01*
X3895Y3395D01*
X3894Y3396D01*
X3894Y3396D01*
X3894Y3396D01*
X3894Y3396D01*
X3894Y3396D01*
X3893Y3396D01*
X3893Y3397D01*
X3893Y3397D01*
X3893Y3397D01*
X3893D01*
X3892Y3397D01*
X3892Y3397D01*
X3892Y3397D01*
X3892Y3397D01*
X3892Y3397D01*
X3891Y3397D01*
D02*
G37*
G36*
X3434Y3664D02*
X3428D01*
Y3646D01*
X3410D01*
Y3664D01*
X3404D01*
Y3621D01*
X3410D01*
Y3641D01*
X3428D01*
Y3621D01*
X3434D01*
Y3664D01*
D02*
G37*
G36*
X4154Y3664D02*
X4153D01*
X4153Y3664D01*
X4152D01*
X4151Y3664D01*
X4150Y3664D01*
X4149Y3664D01*
X4148Y3664D01*
X4148D01*
X4148Y3664D01*
X4148D01*
X4148Y3664D01*
X4148Y3664D01*
X4147Y3664D01*
X4147Y3663D01*
X4146Y3663D01*
X4145Y3663D01*
X4144Y3663D01*
X4143Y3662D01*
Y3656D01*
X4143D01*
X4143Y3656D01*
X4143Y3657D01*
X4144Y3657D01*
X4144Y3657D01*
X4145Y3657D01*
X4145Y3657D01*
X4146Y3658D01*
X4147Y3658D01*
X4148Y3658D01*
X4148D01*
X4148Y3658D01*
X4148Y3658D01*
X4149Y3658D01*
X4149Y3659D01*
X4149Y3659D01*
X4150Y3659D01*
X4150Y3659D01*
X4151Y3659D01*
X4152Y3659D01*
X4154Y3659D01*
X4154D01*
X4154Y3659D01*
X4155D01*
X4155Y3659D01*
X4156Y3659D01*
X4157Y3659D01*
X4158Y3658D01*
X4159Y3658D01*
X4159D01*
X4159Y3658D01*
X4159Y3658D01*
X4159Y3658D01*
X4160Y3657D01*
X4160Y3657D01*
X4161Y3657D01*
X4162Y3656D01*
X4162Y3655D01*
X4163Y3655D01*
Y3655D01*
X4163Y3655D01*
X4163Y3654D01*
X4163Y3654D01*
X4164Y3654D01*
X4164Y3653D01*
X4165Y3652D01*
X4165Y3651D01*
X4165Y3650D01*
X4166Y3649D01*
Y3649D01*
X4166Y3649D01*
X4166Y3649D01*
X4166Y3649D01*
X4166Y3649D01*
X4166Y3648D01*
X4166Y3648D01*
X4166Y3647D01*
X4166Y3647D01*
X4166Y3646D01*
X4167Y3645D01*
X4167Y3644D01*
X4167Y3642D01*
Y3642D01*
Y3642D01*
Y3642D01*
Y3642D01*
X4167Y3642D01*
Y3641D01*
X4167Y3640D01*
X4166Y3639D01*
X4166Y3639D01*
X4166Y3638D01*
X4166Y3637D01*
X4166Y3636D01*
X4166Y3635D01*
X4165Y3633D01*
X4165Y3632D01*
X4164Y3631D01*
X4164Y3631D01*
X4163Y3630D01*
X4163Y3630D01*
X4163Y3630D01*
X4163Y3629D01*
X4163Y3629D01*
X4162Y3629D01*
X4162Y3628D01*
X4161Y3628D01*
X4161Y3628D01*
X4160Y3627D01*
X4159Y3627D01*
X4159Y3626D01*
X4158Y3626D01*
X4157Y3626D01*
X4156Y3626D01*
X4155Y3626D01*
X4153Y3626D01*
X4153D01*
X4152Y3626D01*
X4152Y3626D01*
X4151Y3626D01*
X4150Y3626D01*
X4149Y3626D01*
X4148Y3626D01*
X4148D01*
X4148Y3626D01*
X4148Y3626D01*
X4148Y3626D01*
X4147Y3626D01*
X4147Y3627D01*
X4146Y3627D01*
X4145Y3627D01*
X4144Y3628D01*
X4143Y3628D01*
Y3622D01*
X4143Y3622D01*
X4143Y3622D01*
X4144Y3622D01*
X4144Y3622D01*
X4145Y3622D01*
X4145Y3622D01*
X4146Y3622D01*
X4147Y3621D01*
X4147Y3621D01*
X4148Y3621D01*
X4149Y3621D01*
X4150Y3621D01*
X4152Y3620D01*
X4153Y3620D01*
X4154Y3620D01*
X4154D01*
X4155Y3620D01*
X4156Y3620D01*
X4156Y3621D01*
X4157Y3621D01*
X4158Y3621D01*
X4159Y3621D01*
X4160Y3621D01*
X4161Y3622D01*
X4163Y3622D01*
X4164Y3623D01*
X4165Y3623D01*
X4166Y3624D01*
X4167Y3625D01*
X4168Y3626D01*
X4168Y3626D01*
X4168Y3626D01*
X4168Y3626D01*
X4169Y3627D01*
X4169Y3627D01*
X4170Y3628D01*
X4170Y3629D01*
X4170Y3630D01*
X4171Y3631D01*
X4171Y3632D01*
X4172Y3633D01*
X4172Y3635D01*
X4172Y3636D01*
X4173Y3638D01*
X4173Y3640D01*
X4173Y3642D01*
Y3642D01*
Y3642D01*
Y3642D01*
X4173Y3643D01*
Y3643D01*
X4173Y3644D01*
X4173Y3644D01*
X4173Y3645D01*
X4173Y3646D01*
X4173Y3646D01*
X4172Y3648D01*
X4172Y3650D01*
X4172Y3651D01*
Y3651D01*
X4172Y3651D01*
X4171Y3651D01*
X4171Y3652D01*
X4171Y3652D01*
X4171Y3653D01*
X4171Y3653D01*
X4171Y3654D01*
X4170Y3655D01*
X4169Y3656D01*
X4169Y3657D01*
X4168Y3658D01*
X4168Y3658D01*
X4168Y3658D01*
X4167Y3658D01*
X4167Y3659D01*
X4167Y3659D01*
X4167Y3659D01*
X4166Y3659D01*
X4166Y3660D01*
X4165Y3661D01*
X4164Y3661D01*
X4163Y3662D01*
X4162Y3663D01*
X4162D01*
X4162Y3663D01*
X4161Y3663D01*
X4161Y3663D01*
X4161Y3663D01*
X4160Y3663D01*
X4160Y3663D01*
X4159Y3663D01*
X4159Y3664D01*
X4158Y3664D01*
X4158Y3664D01*
X4157Y3664D01*
X4155Y3664D01*
X4154Y3664D01*
D02*
G37*
G36*
X3808Y3397D02*
X3808D01*
X3807Y3397D01*
X3807Y3397D01*
X3807Y3397D01*
X3806Y3397D01*
X3806D01*
X3806Y3397D01*
X3806Y3397D01*
X3806Y3397D01*
X3805Y3397D01*
X3805Y3396D01*
X3805Y3396D01*
X3805Y3396D01*
X3805Y3396D01*
X3805Y3396D01*
X3804Y3396D01*
X3804Y3395D01*
X3804Y3395D01*
Y3395D01*
X3804Y3395D01*
X3804Y3395D01*
X3804Y3394D01*
X3804Y3394D01*
X3804Y3394D01*
X3804Y3393D01*
Y3393D01*
Y3393D01*
Y3393D01*
X3804Y3393D01*
X3804Y3392D01*
X3804Y3392D01*
X3804Y3392D01*
Y3392D01*
X3804Y3392D01*
X3804Y3391D01*
X3804Y3391D01*
X3805Y3391D01*
X3805Y3390D01*
X3805Y3390D01*
X3805Y3390D01*
X3805Y3390D01*
X3805Y3390D01*
X3805Y3390D01*
X3806Y3390D01*
X3806Y3390D01*
X3806D01*
X3806Y3389D01*
X3807Y3389D01*
X3807Y3389D01*
X3807Y3389D01*
X3807Y3389D01*
X3808Y3389D01*
X3808D01*
X3808Y3389D01*
X3808D01*
X3809Y3389D01*
X3809Y3389D01*
X3809Y3390D01*
X3809D01*
X3810Y3390D01*
X3810Y3390D01*
X3810Y3390D01*
X3810Y3390D01*
X3811Y3390D01*
X3811Y3390D01*
X3811Y3390D01*
X3811Y3391D01*
X3811Y3391D01*
X3811Y3391D01*
X3811Y3391D01*
X3812Y3392D01*
Y3392D01*
X3812Y3392D01*
X3812Y3392D01*
X3812Y3392D01*
X3812Y3392D01*
X3812Y3393D01*
X3812Y3393D01*
Y3393D01*
Y3393D01*
X3812Y3394D01*
Y3394D01*
X3812Y3394D01*
X3812Y3394D01*
X3812Y3395D01*
Y3395D01*
X3812Y3395D01*
X3811Y3395D01*
X3811Y3395D01*
X3811Y3396D01*
X3811Y3396D01*
X3811Y3396D01*
X3811Y3396D01*
X3810Y3396D01*
X3810Y3396D01*
X3810Y3397D01*
X3810Y3397D01*
X3809Y3397D01*
X3809D01*
X3809Y3397D01*
X3809Y3397D01*
X3809Y3397D01*
X3809Y3397D01*
X3808Y3397D01*
X3808Y3397D01*
D02*
G37*
G36*
X4138Y3415D02*
X4137D01*
X4137Y3415D01*
X4137D01*
X4136Y3415D01*
X4136Y3415D01*
X4135Y3414D01*
X4134Y3414D01*
X4134Y3414D01*
X4134D01*
X4134Y3414D01*
X4134Y3414D01*
X4133Y3414D01*
X4133Y3413D01*
X4132Y3413D01*
X4132Y3412D01*
X4132Y3412D01*
X4131Y3411D01*
Y3411D01*
X4131Y3411D01*
X4131Y3411D01*
X4131Y3411D01*
X4131Y3411D01*
X4131Y3410D01*
X4130Y3410D01*
X4130Y3409D01*
X4130Y3408D01*
X4130Y3408D01*
Y3407D01*
X4130Y3407D01*
X4129Y3407D01*
X4129Y3407D01*
X4129Y3407D01*
X4129Y3407D01*
X4129Y3406D01*
X4129Y3406D01*
X4129Y3405D01*
X4129Y3404D01*
X4129Y3403D01*
X4129Y3402D01*
Y3402D01*
Y3402D01*
Y3402D01*
Y3402D01*
X4129Y3402D01*
Y3401D01*
X4129Y3401D01*
X4129Y3400D01*
X4129Y3400D01*
X4129Y3399D01*
X4130Y3398D01*
X4130Y3397D01*
Y3397D01*
X4130Y3397D01*
X4130Y3396D01*
X4130Y3396D01*
X4130Y3396D01*
X4130Y3396D01*
X4131Y3395D01*
X4131Y3395D01*
X4131Y3394D01*
X4132Y3393D01*
X4133Y3393D01*
X4133Y3393D01*
X4133Y3393D01*
X4133Y3392D01*
X4133Y3392D01*
X4133Y3392D01*
X4134Y3392D01*
X4134Y3391D01*
X4135Y3391D01*
X4136Y3390D01*
X4136Y3390D01*
X4136D01*
X4136Y3390D01*
X4137Y3390D01*
X4137Y3390D01*
X4137Y3390D01*
X4137Y3390D01*
X4137Y3390D01*
X4138Y3390D01*
X4138Y3390D01*
X4139Y3389D01*
X4140Y3389D01*
X4141Y3389D01*
X4142D01*
X4142Y3389D01*
X4142D01*
X4143Y3389D01*
X4143Y3389D01*
X4144D01*
X4144Y3390D01*
X4144Y3390D01*
X4144Y3390D01*
X4145Y3390D01*
X4145Y3390D01*
X4146Y3390D01*
Y3380D01*
X4150D01*
Y3414D01*
X4146D01*
X4146Y3410D01*
X4146Y3410D01*
X4146Y3410D01*
X4146Y3410D01*
X4146Y3411D01*
X4146Y3411D01*
X4145Y3411D01*
X4145Y3412D01*
X4144Y3412D01*
X4144Y3413D01*
X4143Y3413D01*
X4143Y3414D01*
X4142Y3414D01*
X4142D01*
X4142Y3414D01*
X4142Y3414D01*
X4142Y3414D01*
X4142Y3414D01*
X4141Y3414D01*
X4141Y3414D01*
X4141Y3414D01*
X4140Y3414D01*
X4139Y3415D01*
X4138Y3415D01*
X4138Y3415D01*
D02*
G37*
G36*
X3928Y3414D02*
X3924D01*
Y3399D01*
Y3398D01*
Y3398D01*
X3924Y3398D01*
X3924Y3398D01*
X3924Y3397D01*
X3924Y3397D01*
X3924Y3396D01*
X3924Y3396D01*
X3923Y3395D01*
X3923Y3395D01*
X3923Y3394D01*
X3922Y3394D01*
X3922Y3393D01*
X3921Y3393D01*
X3921Y3393D01*
X3920Y3393D01*
X3920Y3393D01*
X3920D01*
X3919Y3393D01*
X3919Y3393D01*
X3919Y3393D01*
X3918Y3393D01*
X3918D01*
X3918Y3393D01*
X3918Y3393D01*
X3918Y3393D01*
X3918Y3393D01*
X3917Y3394D01*
X3917Y3394D01*
X3917Y3394D01*
X3917Y3394D01*
X3916Y3394D01*
X3916Y3394D01*
X3916Y3395D01*
X3916Y3395D01*
X3915Y3395D01*
X3915Y3395D01*
X3915Y3395D01*
X3915Y3396D01*
X3915Y3396D01*
X3914Y3396D01*
X3914Y3397D01*
X3914Y3397D01*
X3913Y3397D01*
X3913Y3398D01*
Y3414D01*
X3909D01*
Y3390D01*
X3912D01*
X3913Y3394D01*
X3913Y3394D01*
X3913Y3393D01*
X3913Y3393D01*
X3913Y3393D01*
X3914Y3393D01*
X3914Y3392D01*
X3914Y3392D01*
X3915Y3391D01*
X3915Y3391D01*
X3915Y3391D01*
X3915Y3391D01*
X3915Y3391D01*
X3916Y3391D01*
X3916Y3391D01*
X3917Y3390D01*
X3917Y3390D01*
X3917Y3390D01*
X3917Y3390D01*
X3917Y3390D01*
X3918Y3390D01*
X3918Y3390D01*
X3919Y3389D01*
X3919D01*
X3919Y3389D01*
X3919Y3389D01*
X3919Y3389D01*
X3920Y3389D01*
X3920Y3389D01*
X3921Y3389D01*
X3921D01*
X3921Y3389D01*
X3922Y3389D01*
X3922Y3389D01*
X3922Y3389D01*
X3923Y3389D01*
X3924Y3390D01*
X3924Y3390D01*
X3925Y3390D01*
X3925Y3390D01*
X3926Y3391D01*
X3926Y3391D01*
X3926Y3391D01*
X3926Y3391D01*
X3927Y3392D01*
X3927Y3392D01*
X3927Y3392D01*
X3927Y3392D01*
X3927Y3392D01*
X3927Y3393D01*
X3927Y3393D01*
X3928Y3394D01*
X3928Y3394D01*
X3928Y3395D01*
X3928Y3395D01*
X3928Y3396D01*
X3928Y3397D01*
X3928Y3397D01*
X3928Y3398D01*
Y3414D01*
D02*
G37*
%LPD*%
G36*
X3537Y3635D02*
X3523D01*
X3530Y3658D01*
X3537Y3635D01*
D02*
G37*
G36*
X3900Y3659D02*
X3900Y3659D01*
X3901Y3659D01*
X3901Y3659D01*
X3902Y3659D01*
X3903Y3658D01*
X3904Y3658D01*
X3904Y3658D01*
X3904Y3658D01*
X3905Y3657D01*
X3905Y3657D01*
X3906Y3656D01*
X3906Y3656D01*
X3907Y3655D01*
X3907Y3654D01*
Y3654D01*
X3907Y3654D01*
X3907Y3654D01*
X3907Y3654D01*
X3907Y3654D01*
X3908Y3653D01*
X3908Y3653D01*
X3908Y3652D01*
X3908Y3651D01*
X3909Y3650D01*
X3909Y3649D01*
Y3649D01*
X3909Y3649D01*
Y3649D01*
X3909Y3648D01*
X3909Y3648D01*
X3909Y3648D01*
X3909Y3647D01*
X3909Y3647D01*
X3909Y3646D01*
X3910Y3645D01*
X3910Y3644D01*
X3910Y3642D01*
Y3642D01*
Y3642D01*
Y3642D01*
Y3642D01*
Y3641D01*
X3910Y3641D01*
Y3641D01*
X3910Y3640D01*
X3910Y3639D01*
X3909Y3638D01*
X3909Y3637D01*
X3909Y3635D01*
Y3635D01*
X3909Y3635D01*
X3909Y3635D01*
X3909Y3635D01*
X3909Y3635D01*
X3909Y3634D01*
X3909Y3634D01*
X3908Y3633D01*
X3908Y3632D01*
X3908Y3631D01*
X3907Y3630D01*
Y3630D01*
X3907Y3630D01*
X3907Y3630D01*
X3907Y3629D01*
X3906Y3629D01*
X3906Y3628D01*
X3905Y3628D01*
X3905Y3627D01*
X3904Y3627D01*
X3904D01*
X3904Y3626D01*
X3904Y3626D01*
X3904Y3626D01*
X3903Y3626D01*
X3903Y3626D01*
X3902Y3626D01*
X3901Y3625D01*
X3900Y3625D01*
X3899Y3625D01*
X3899D01*
X3898Y3625D01*
X3898D01*
X3898Y3625D01*
X3897Y3625D01*
X3897Y3626D01*
X3896Y3626D01*
X3895Y3626D01*
X3894Y3627D01*
X3894D01*
X3894Y3627D01*
X3894Y3627D01*
X3893Y3627D01*
X3893Y3628D01*
X3892Y3628D01*
X3892Y3629D01*
X3891Y3629D01*
X3891Y3630D01*
Y3630D01*
X3891Y3630D01*
X3891Y3630D01*
X3891Y3631D01*
X3890Y3631D01*
X3890Y3631D01*
X3890Y3632D01*
X3890Y3633D01*
X3889Y3633D01*
X3889Y3634D01*
X3889Y3636D01*
Y3636D01*
X3889Y3636D01*
Y3636D01*
X3889Y3636D01*
X3889Y3636D01*
X3889Y3637D01*
X3889Y3637D01*
X3888Y3638D01*
X3888Y3638D01*
X3888Y3640D01*
X3888Y3641D01*
X3888Y3642D01*
Y3642D01*
Y3642D01*
Y3642D01*
Y3643D01*
Y3643D01*
X3888Y3643D01*
Y3644D01*
X3888Y3644D01*
X3888Y3645D01*
X3888Y3647D01*
X3889Y3648D01*
X3889Y3649D01*
Y3649D01*
X3889Y3649D01*
Y3649D01*
X3889Y3650D01*
X3889Y3650D01*
X3889Y3650D01*
X3889Y3651D01*
X3889Y3652D01*
X3890Y3653D01*
X3890Y3654D01*
X3891Y3654D01*
Y3654D01*
X3891Y3654D01*
X3891Y3655D01*
X3891Y3655D01*
X3892Y3656D01*
X3892Y3656D01*
X3893Y3657D01*
X3893Y3657D01*
X3894Y3658D01*
X3894D01*
X3894Y3658D01*
X3894Y3658D01*
X3894Y3658D01*
X3895Y3658D01*
X3895Y3659D01*
X3896Y3659D01*
X3897Y3659D01*
X3898Y3659D01*
X3899Y3659D01*
X3899D01*
X3900Y3659D01*
D02*
G37*
G36*
X3500Y3645D02*
X3495D01*
X3494Y3645D01*
X3494D01*
X3493Y3645D01*
X3493Y3645D01*
X3492Y3645D01*
X3491Y3645D01*
X3491Y3645D01*
X3491Y3645D01*
X3491Y3645D01*
X3490Y3645D01*
X3490Y3646D01*
X3489Y3646D01*
X3489Y3646D01*
X3489Y3646D01*
X3489Y3647D01*
X3488Y3647D01*
X3488Y3647D01*
X3488Y3647D01*
X3488Y3647D01*
X3487Y3648D01*
X3487Y3648D01*
X3487Y3649D01*
X3487Y3649D01*
X3487Y3649D01*
X3487Y3649D01*
X3486Y3650D01*
X3486Y3650D01*
X3486Y3651D01*
X3486Y3651D01*
X3486Y3652D01*
Y3652D01*
Y3652D01*
Y3652D01*
X3486Y3652D01*
Y3653D01*
X3486Y3653D01*
X3486Y3654D01*
X3487Y3655D01*
X3487Y3656D01*
X3487Y3656D01*
X3488Y3656D01*
X3488Y3657D01*
X3488Y3657D01*
X3488D01*
X3488Y3657D01*
X3488Y3657D01*
X3489Y3657D01*
X3489Y3657D01*
X3489Y3658D01*
X3489Y3658D01*
X3490Y3658D01*
X3490Y3658D01*
X3491Y3658D01*
X3491Y3658D01*
X3492Y3659D01*
X3493Y3659D01*
X3494Y3659D01*
X3500D01*
Y3645D01*
D02*
G37*
G36*
X3810Y3469D02*
X3805D01*
X3805Y3469D01*
X3805D01*
X3804Y3469D01*
X3804Y3469D01*
X3803Y3469D01*
X3803Y3469D01*
X3802Y3469D01*
X3801Y3470D01*
X3800Y3470D01*
X3800Y3470D01*
X3800Y3470D01*
X3800Y3470D01*
X3800Y3470D01*
X3800Y3470D01*
X3800Y3470D01*
X3799Y3471D01*
X3799Y3471D01*
X3799Y3471D01*
X3799Y3471D01*
X3799Y3472D01*
X3799Y3472D01*
X3798Y3472D01*
X3798Y3473D01*
X3798Y3473D01*
X3798Y3474D01*
X3798Y3474D01*
Y3474D01*
Y3475D01*
X3798Y3475D01*
X3798Y3475D01*
X3798Y3475D01*
X3798Y3476D01*
X3798Y3476D01*
X3799Y3477D01*
X3799Y3477D01*
X3799Y3477D01*
X3799Y3477D01*
X3799Y3477D01*
X3799Y3477D01*
X3799Y3478D01*
X3800Y3478D01*
X3800Y3478D01*
X3800Y3478D01*
X3800Y3478D01*
X3801Y3478D01*
X3801Y3479D01*
X3801Y3479D01*
X3802Y3479D01*
X3802Y3479D01*
X3803Y3479D01*
X3803Y3479D01*
X3803Y3479D01*
X3803Y3479D01*
X3803Y3479D01*
X3804Y3480D01*
X3804Y3480D01*
X3805Y3480D01*
X3810D01*
Y3469D01*
D02*
G37*
G36*
X3833Y3635D02*
X3818D01*
X3825Y3658D01*
X3833Y3635D01*
D02*
G37*
G36*
X3838Y3476D02*
X3827D01*
X3832Y3493D01*
X3838Y3476D01*
D02*
G37*
G36*
X4121Y3659D02*
X4122Y3659D01*
X4122Y3659D01*
X4123Y3659D01*
X4124Y3659D01*
X4125Y3658D01*
X4125Y3658D01*
X4125Y3658D01*
X4126Y3658D01*
X4126Y3657D01*
X4127Y3657D01*
X4127Y3656D01*
X4128Y3656D01*
X4128Y3655D01*
X4129Y3654D01*
Y3654D01*
X4129Y3654D01*
X4129Y3654D01*
X4129Y3654D01*
X4129Y3654D01*
X4129Y3653D01*
X4129Y3653D01*
X4130Y3652D01*
X4130Y3651D01*
X4130Y3650D01*
X4131Y3649D01*
Y3649D01*
X4131Y3649D01*
Y3649D01*
X4131Y3648D01*
X4131Y3648D01*
X4131Y3648D01*
X4131Y3647D01*
X4131Y3647D01*
X4131Y3646D01*
X4131Y3645D01*
X4131Y3644D01*
X4131Y3642D01*
Y3642D01*
Y3642D01*
Y3642D01*
Y3642D01*
Y3641D01*
X4131Y3641D01*
Y3641D01*
X4131Y3640D01*
X4131Y3639D01*
X4131Y3638D01*
X4131Y3637D01*
X4131Y3635D01*
Y3635D01*
X4131Y3635D01*
X4131Y3635D01*
X4131Y3635D01*
X4130Y3635D01*
X4130Y3634D01*
X4130Y3634D01*
X4130Y3633D01*
X4130Y3632D01*
X4129Y3631D01*
X4129Y3630D01*
Y3630D01*
X4129Y3630D01*
X4129Y3630D01*
X4128Y3629D01*
X4128Y3629D01*
X4127Y3628D01*
X4127Y3628D01*
X4126Y3627D01*
X4125Y3627D01*
X4125D01*
X4125Y3626D01*
X4125Y3626D01*
X4125Y3626D01*
X4125Y3626D01*
X4124Y3626D01*
X4123Y3626D01*
X4122Y3625D01*
X4122Y3625D01*
X4121Y3625D01*
X4120D01*
X4120Y3625D01*
X4120D01*
X4120Y3625D01*
X4119Y3625D01*
X4118Y3626D01*
X4117Y3626D01*
X4116Y3626D01*
X4116Y3627D01*
X4116D01*
X4116Y3627D01*
X4115Y3627D01*
X4115Y3627D01*
X4114Y3628D01*
X4114Y3628D01*
X4113Y3629D01*
X4113Y3629D01*
X4112Y3630D01*
Y3630D01*
X4112Y3630D01*
X4112Y3630D01*
X4112Y3631D01*
X4112Y3631D01*
X4112Y3631D01*
X4112Y3632D01*
X4111Y3633D01*
X4111Y3633D01*
X4111Y3634D01*
X4110Y3636D01*
Y3636D01*
X4110Y3636D01*
Y3636D01*
X4110Y3636D01*
X4110Y3636D01*
X4110Y3637D01*
X4110Y3637D01*
X4110Y3638D01*
X4110Y3638D01*
X4110Y3640D01*
X4110Y3641D01*
X4110Y3642D01*
Y3642D01*
Y3642D01*
Y3642D01*
Y3643D01*
Y3643D01*
X4110Y3643D01*
Y3644D01*
X4110Y3644D01*
X4110Y3645D01*
X4110Y3647D01*
X4110Y3648D01*
X4110Y3649D01*
Y3649D01*
X4110Y3649D01*
Y3649D01*
X4110Y3650D01*
X4110Y3650D01*
X4111Y3650D01*
X4111Y3651D01*
X4111Y3652D01*
X4111Y3653D01*
X4112Y3654D01*
X4112Y3654D01*
Y3654D01*
X4112Y3654D01*
X4112Y3655D01*
X4113Y3655D01*
X4113Y3656D01*
X4114Y3656D01*
X4114Y3657D01*
X4115Y3657D01*
X4116Y3658D01*
X4116D01*
X4116Y3658D01*
X4116Y3658D01*
X4116Y3658D01*
X4116Y3658D01*
X4117Y3659D01*
X4118Y3659D01*
X4119Y3659D01*
X4119Y3659D01*
X4121Y3659D01*
X4121D01*
X4121Y3659D01*
D02*
G37*
G36*
X4056Y3626D02*
X4051D01*
X4051Y3626D01*
X4050D01*
X4050Y3626D01*
X4050Y3626D01*
X4049Y3626D01*
X4048Y3626D01*
X4047Y3627D01*
X4045Y3627D01*
X4045Y3628D01*
X4044Y3628D01*
X4043Y3628D01*
X4043Y3629D01*
X4042Y3629D01*
X4041Y3630D01*
X4041Y3631D01*
X4040Y3631D01*
X4040Y3632D01*
X4039Y3633D01*
X4038Y3634D01*
X4038Y3635D01*
X4038Y3636D01*
X4037Y3637D01*
X4037Y3638D01*
X4037Y3639D01*
X4037Y3641D01*
X4037Y3642D01*
Y3642D01*
Y3643D01*
Y3643D01*
Y3643D01*
X4037Y3643D01*
Y3644D01*
X4037Y3644D01*
Y3645D01*
X4037Y3646D01*
X4037Y3647D01*
X4037Y3649D01*
X4038Y3650D01*
Y3650D01*
X4038Y3650D01*
X4038Y3650D01*
X4038Y3651D01*
X4038Y3651D01*
X4038Y3651D01*
X4038Y3652D01*
X4039Y3653D01*
X4039Y3653D01*
X4040Y3654D01*
X4040Y3655D01*
Y3655D01*
X4040Y3655D01*
X4040Y3655D01*
X4041Y3656D01*
X4041Y3656D01*
X4042Y3657D01*
X4043Y3657D01*
X4044Y3658D01*
X4045Y3658D01*
X4045D01*
X4045Y3658D01*
X4045Y3658D01*
X4045Y3658D01*
X4045Y3658D01*
X4046Y3658D01*
X4046Y3658D01*
X4046Y3658D01*
X4047Y3659D01*
X4048Y3659D01*
X4049Y3659D01*
X4051Y3659D01*
X4056D01*
Y3626D01*
D02*
G37*
G36*
X4033Y3551D02*
X4022D01*
X4028Y3568D01*
X4033Y3551D01*
D02*
G37*
G36*
X4004Y3476D02*
X3993D01*
X3999Y3493D01*
X4004Y3476D01*
D02*
G37*
G36*
X3921Y3483D02*
X3917D01*
X3917Y3483D01*
X3916D01*
X3916Y3483D01*
X3915Y3483D01*
X3915Y3483D01*
X3914Y3483D01*
X3914Y3483D01*
X3914Y3483D01*
X3914Y3483D01*
X3914Y3483D01*
X3913Y3483D01*
X3913Y3484D01*
X3913Y3484D01*
X3912Y3484D01*
X3912Y3484D01*
X3912Y3484D01*
X3912Y3484D01*
X3912Y3485D01*
X3912Y3485D01*
X3911Y3485D01*
X3911Y3485D01*
X3911Y3486D01*
X3911Y3486D01*
X3911Y3486D01*
X3911Y3486D01*
X3911Y3487D01*
X3911Y3487D01*
X3911Y3487D01*
X3910Y3488D01*
X3910Y3488D01*
Y3488D01*
Y3488D01*
Y3488D01*
X3910Y3489D01*
Y3489D01*
X3911Y3489D01*
X3911Y3490D01*
X3911Y3490D01*
X3911Y3491D01*
X3911Y3491D01*
X3912Y3492D01*
X3912Y3492D01*
X3912Y3492D01*
X3912D01*
X3912Y3492D01*
X3912Y3492D01*
X3912Y3492D01*
X3913Y3492D01*
X3913Y3492D01*
X3913Y3493D01*
X3913Y3493D01*
X3914Y3493D01*
X3914Y3493D01*
X3914Y3493D01*
X3915Y3493D01*
X3916Y3493D01*
X3917Y3493D01*
X3921D01*
Y3483D01*
D02*
G37*
G36*
X3810Y3483D02*
X3806D01*
X3805Y3483D01*
X3805D01*
X3805Y3483D01*
X3804Y3483D01*
X3803Y3484D01*
X3803Y3484D01*
X3803Y3484D01*
X3803Y3484D01*
X3802Y3484D01*
X3802Y3484D01*
X3802Y3484D01*
X3801Y3484D01*
X3801Y3485D01*
X3801Y3485D01*
X3801Y3485D01*
X3801Y3485D01*
X3801Y3485D01*
X3800Y3485D01*
X3800Y3486D01*
X3800Y3486D01*
X3800Y3486D01*
X3800Y3486D01*
X3800Y3486D01*
X3800Y3487D01*
X3799Y3487D01*
X3799Y3487D01*
X3799Y3488D01*
X3799Y3488D01*
X3799Y3489D01*
Y3489D01*
Y3489D01*
Y3489D01*
X3799Y3489D01*
X3799Y3489D01*
X3799Y3490D01*
X3800Y3490D01*
Y3491D01*
X3800Y3491D01*
X3800Y3491D01*
X3800Y3491D01*
X3800Y3491D01*
X3800Y3491D01*
X3800Y3492D01*
X3801Y3492D01*
X3801Y3492D01*
X3801Y3492D01*
X3801Y3492D01*
X3801Y3492D01*
X3801Y3493D01*
X3802Y3493D01*
X3802Y3493D01*
X3803Y3493D01*
X3803Y3493D01*
X3803Y3493D01*
X3803Y3493D01*
X3803Y3493D01*
X3804Y3493D01*
X3804Y3493D01*
X3805Y3493D01*
X3810D01*
Y3483D01*
D02*
G37*
G36*
X4006Y3544D02*
X4001D01*
X4000Y3544D01*
X4000D01*
X4000Y3544D01*
X3999Y3544D01*
X3999Y3544D01*
X3998Y3544D01*
X3997Y3544D01*
X3996Y3545D01*
X3996Y3545D01*
X3995Y3545D01*
X3995Y3545D01*
X3995Y3545D01*
X3995Y3545D01*
X3995Y3546D01*
X3995Y3546D01*
X3995Y3546D01*
X3995Y3546D01*
X3994Y3546D01*
X3994Y3547D01*
X3994Y3547D01*
X3994Y3547D01*
X3994Y3548D01*
X3994Y3548D01*
X3994Y3549D01*
X3994Y3549D01*
X3993Y3550D01*
Y3550D01*
Y3550D01*
X3994Y3550D01*
X3994Y3550D01*
X3994Y3551D01*
X3994Y3551D01*
X3994Y3551D01*
X3994Y3552D01*
X3994Y3552D01*
X3994Y3552D01*
X3994Y3552D01*
X3994Y3552D01*
X3995Y3553D01*
X3995Y3553D01*
X3995Y3553D01*
X3996Y3554D01*
X3996Y3554D01*
X3996Y3554D01*
X3996Y3554D01*
X3996Y3554D01*
X3997Y3554D01*
X3997Y3554D01*
X3997Y3554D01*
X3998Y3555D01*
X3998Y3555D01*
X3998Y3555D01*
X3998Y3555D01*
X3999Y3555D01*
X3999Y3555D01*
X4000Y3555D01*
X4000Y3555D01*
X4006D01*
Y3544D01*
D02*
G37*
G36*
X4139Y3411D02*
X4139Y3411D01*
X4139Y3411D01*
X4140Y3411D01*
X4140D01*
X4140Y3411D01*
X4140Y3411D01*
X4141Y3411D01*
X4141Y3410D01*
X4141Y3410D01*
X4141Y3410D01*
X4142Y3410D01*
X4142Y3410D01*
X4142Y3410D01*
X4142Y3410D01*
X4142Y3410D01*
X4143Y3409D01*
X4143Y3409D01*
X4143Y3409D01*
X4144Y3408D01*
X4144Y3408D01*
X4144Y3408D01*
X4144Y3408D01*
X4144Y3408D01*
X4145Y3407D01*
X4145Y3407D01*
X4145Y3406D01*
X4146Y3406D01*
Y3394D01*
X4146Y3394D01*
X4146Y3394D01*
X4145Y3394D01*
X4145Y3394D01*
X4145Y3393D01*
X4144Y3393D01*
X4144Y3393D01*
X4143Y3393D01*
X4143D01*
X4143Y3393D01*
X4143Y3393D01*
X4143Y3393D01*
X4142Y3393D01*
X4142Y3393D01*
X4141Y3393D01*
X4140D01*
X4140Y3393D01*
X4140Y3393D01*
X4140Y3393D01*
X4139Y3393D01*
X4139Y3393D01*
X4138Y3393D01*
X4138Y3393D01*
X4137Y3394D01*
X4137Y3394D01*
X4137Y3394D01*
X4136Y3394D01*
X4136Y3395D01*
X4135Y3395D01*
X4135Y3395D01*
X4135Y3395D01*
X4135Y3395D01*
X4135Y3396D01*
X4135Y3396D01*
X4135Y3396D01*
X4135Y3397D01*
X4134Y3397D01*
X4134Y3397D01*
X4134Y3398D01*
X4134Y3399D01*
X4134Y3399D01*
X4134Y3400D01*
X4133Y3401D01*
X4133Y3401D01*
X4133Y3402D01*
Y3402D01*
Y3402D01*
Y3402D01*
Y3403D01*
Y3403D01*
X4133Y3403D01*
X4133Y3404D01*
X4134Y3405D01*
X4134Y3406D01*
Y3406D01*
Y3406D01*
X4134Y3406D01*
X4134Y3406D01*
X4134Y3407D01*
X4134Y3407D01*
X4134Y3408D01*
X4134Y3408D01*
X4135Y3409D01*
X4135Y3409D01*
X4135Y3409D01*
X4135Y3409D01*
X4135Y3409D01*
X4135Y3410D01*
X4136Y3410D01*
X4136Y3410D01*
X4136Y3410D01*
X4136Y3410D01*
X4136Y3411D01*
X4137Y3411D01*
X4137Y3411D01*
X4137Y3411D01*
X4138Y3411D01*
X4138Y3411D01*
X4138Y3411D01*
X4139D01*
X4139Y3411D01*
D02*
G37*
G36*
X3888Y3560D02*
X3889Y3560D01*
X3889Y3560D01*
X3889Y3560D01*
X3889Y3559D01*
X3889Y3559D01*
X3889Y3559D01*
X3890Y3559D01*
X3890Y3559D01*
X3890Y3559D01*
X3890Y3559D01*
X3890Y3558D01*
X3890Y3558D01*
X3890Y3558D01*
X3891Y3558D01*
X3891Y3558D01*
X3891Y3558D01*
X3891Y3557D01*
X3891Y3557D01*
X3891Y3557D01*
X3891Y3556D01*
X3891Y3556D01*
Y3556D01*
X3891Y3556D01*
X3891Y3555D01*
X3891Y3555D01*
X3892Y3555D01*
X3892Y3554D01*
X3892Y3554D01*
Y3554D01*
X3892Y3553D01*
X3892Y3553D01*
X3892Y3553D01*
X3892Y3553D01*
X3892Y3552D01*
X3892Y3551D01*
Y3551D01*
Y3551D01*
X3892Y3551D01*
Y3551D01*
Y3550D01*
X3892Y3550D01*
Y3549D01*
Y3549D01*
Y3549D01*
Y3549D01*
Y3549D01*
Y3549D01*
X3892Y3549D01*
Y3548D01*
X3892Y3547D01*
X3892Y3547D01*
X3892Y3546D01*
X3892Y3546D01*
Y3546D01*
X3892Y3546D01*
X3892Y3546D01*
X3892Y3545D01*
X3891Y3545D01*
X3891Y3545D01*
X3891Y3545D01*
X3891Y3545D01*
X3891D01*
X3890Y3545D01*
X3890Y3545D01*
X3890Y3545D01*
X3890Y3545D01*
X3890Y3545D01*
X3889Y3546D01*
X3889Y3546D01*
X3889Y3546D01*
X3889Y3546D01*
X3889Y3546D01*
X3889Y3547D01*
X3889Y3547D01*
X3889Y3547D01*
X3889Y3547D01*
X3888Y3547D01*
X3888Y3547D01*
X3888Y3547D01*
X3888Y3548D01*
X3888Y3548D01*
X3886Y3559D01*
X3886Y3559D01*
X3886Y3559D01*
X3887Y3559D01*
X3887Y3559D01*
X3887D01*
X3887Y3560D01*
X3887Y3560D01*
X3887Y3560D01*
X3888Y3560D01*
X3888Y3560D01*
X3888D01*
X3888Y3560D01*
D02*
G37*
G36*
X4028Y3411D02*
X4028Y3411D01*
X4029Y3411D01*
X4029Y3411D01*
X4029D01*
X4029Y3411D01*
X4030Y3411D01*
X4030Y3411D01*
X4030Y3410D01*
X4030Y3410D01*
X4031Y3410D01*
X4031Y3410D01*
X4031Y3410D01*
X4031Y3410D01*
X4031Y3410D01*
X4032Y3410D01*
X4032Y3409D01*
X4032Y3409D01*
X4033Y3409D01*
X4033Y3408D01*
X4033Y3408D01*
X4033Y3408D01*
X4033Y3408D01*
X4033Y3408D01*
X4034Y3407D01*
X4034Y3407D01*
X4035Y3406D01*
X4035Y3406D01*
Y3394D01*
X4035Y3394D01*
X4035Y3394D01*
X4035Y3394D01*
X4034Y3394D01*
X4034Y3393D01*
X4033Y3393D01*
X4032Y3393D01*
X4032D01*
X4032Y3393D01*
X4032Y3393D01*
X4032Y3393D01*
X4031Y3393D01*
X4031Y3393D01*
X4030Y3393D01*
X4030D01*
X4029Y3393D01*
X4029Y3393D01*
X4029Y3393D01*
X4028Y3393D01*
X4028Y3393D01*
X4027Y3393D01*
X4027Y3393D01*
X4027Y3393D01*
X4027Y3393D01*
X4026Y3394D01*
X4026Y3394D01*
X4026Y3394D01*
X4025Y3394D01*
X4025Y3395D01*
X4025Y3395D01*
X4025Y3395D01*
X4024Y3395D01*
X4024Y3396D01*
X4024Y3396D01*
X4024Y3397D01*
X4023Y3397D01*
X4023Y3398D01*
Y3398D01*
X4023Y3398D01*
X4023Y3398D01*
X4023Y3398D01*
X4023Y3398D01*
X4023Y3398D01*
X4023Y3399D01*
X4023Y3399D01*
X4023Y3400D01*
X4023Y3400D01*
X4023Y3401D01*
X4023Y3402D01*
Y3402D01*
Y3402D01*
Y3402D01*
Y3403D01*
Y3403D01*
X4023Y3403D01*
X4023Y3404D01*
X4023Y3405D01*
X4023Y3406D01*
Y3406D01*
Y3406D01*
X4023Y3406D01*
X4023Y3406D01*
X4023Y3407D01*
X4023Y3407D01*
X4023Y3408D01*
X4024Y3408D01*
X4024Y3409D01*
X4024Y3409D01*
X4024Y3409D01*
X4024Y3409D01*
X4024Y3409D01*
X4024Y3410D01*
X4025Y3410D01*
X4025Y3410D01*
X4025Y3410D01*
X4025Y3410D01*
X4025Y3411D01*
X4026Y3411D01*
X4026Y3411D01*
X4026Y3411D01*
X4027Y3411D01*
X4027Y3411D01*
X4028Y3411D01*
X4028D01*
X4028Y3411D01*
D02*
G37*
G36*
X4058Y3401D02*
X4058Y3401D01*
X4059Y3401D01*
X4059Y3401D01*
X4060Y3401D01*
X4060D01*
X4060Y3401D01*
X4060Y3400D01*
X4060Y3400D01*
X4061Y3400D01*
X4061Y3400D01*
X4061Y3400D01*
X4062Y3400D01*
X4062Y3400D01*
X4062Y3400D01*
X4062Y3399D01*
X4062Y3399D01*
X4062Y3399D01*
X4062Y3399D01*
X4063Y3399D01*
X4063Y3398D01*
Y3398D01*
X4063Y3398D01*
X4063Y3398D01*
X4063Y3398D01*
X4063Y3397D01*
X4063Y3397D01*
X4063Y3397D01*
Y3396D01*
Y3396D01*
Y3396D01*
Y3396D01*
X4063Y3396D01*
X4063Y3395D01*
X4063Y3395D01*
Y3395D01*
X4063Y3395D01*
X4063Y3395D01*
X4063Y3395D01*
X4063Y3394D01*
X4062Y3394D01*
X4062Y3394D01*
X4062Y3394D01*
X4062Y3394D01*
X4062Y3394D01*
X4062Y3393D01*
X4061Y3393D01*
X4061Y3393D01*
X4061D01*
X4061Y3393D01*
X4061Y3393D01*
X4060Y3393D01*
X4060Y3393D01*
X4060Y3393D01*
X4059Y3393D01*
X4059D01*
X4058Y3393D01*
X4058Y3393D01*
X4057Y3393D01*
X4057Y3393D01*
X4056Y3393D01*
X4056Y3394D01*
X4056D01*
X4055Y3394D01*
X4055Y3394D01*
X4055Y3394D01*
X4055Y3394D01*
X4055Y3394D01*
X4054Y3394D01*
X4054Y3395D01*
X4053Y3395D01*
X4052Y3396D01*
X4052Y3397D01*
Y3401D01*
X4058D01*
X4058Y3401D01*
D02*
G37*
G36*
X3864D02*
X3864Y3401D01*
X3865Y3401D01*
X3865Y3401D01*
X3866Y3401D01*
X3866D01*
X3866Y3401D01*
X3866Y3400D01*
X3866Y3400D01*
X3867Y3400D01*
X3867Y3400D01*
X3867Y3400D01*
X3868Y3400D01*
X3868Y3400D01*
X3868Y3400D01*
X3868Y3399D01*
X3868Y3399D01*
X3868Y3399D01*
X3868Y3399D01*
X3869Y3399D01*
X3869Y3398D01*
Y3398D01*
X3869Y3398D01*
X3869Y3398D01*
X3869Y3398D01*
X3869Y3397D01*
X3869Y3397D01*
X3869Y3397D01*
Y3396D01*
Y3396D01*
Y3396D01*
Y3396D01*
X3869Y3396D01*
X3869Y3395D01*
X3869Y3395D01*
Y3395D01*
X3869Y3395D01*
X3869Y3395D01*
X3869Y3395D01*
X3869Y3394D01*
X3868Y3394D01*
X3868Y3394D01*
X3868Y3394D01*
X3868Y3394D01*
X3868Y3394D01*
X3868Y3393D01*
X3867Y3393D01*
X3867Y3393D01*
X3867D01*
X3867Y3393D01*
X3867Y3393D01*
X3866Y3393D01*
X3866Y3393D01*
X3866Y3393D01*
X3865Y3393D01*
X3865D01*
X3864Y3393D01*
X3864Y3393D01*
X3863Y3393D01*
X3863Y3393D01*
X3862Y3393D01*
X3862Y3394D01*
X3862D01*
X3861Y3394D01*
X3861Y3394D01*
X3861Y3394D01*
X3861Y3394D01*
X3861Y3394D01*
X3860Y3394D01*
X3860Y3395D01*
X3859Y3395D01*
X3858Y3396D01*
X3858Y3397D01*
Y3401D01*
X3864D01*
X3864Y3401D01*
D02*
G37*
G36*
X3812Y3551D02*
X3801D01*
X3806Y3568D01*
X3812Y3551D01*
D02*
G37*
G36*
X3869Y3645D02*
X3864D01*
X3864Y3645D01*
X3863D01*
X3863Y3645D01*
X3862Y3645D01*
X3861Y3645D01*
X3861Y3645D01*
X3861Y3645D01*
X3860Y3645D01*
X3860Y3645D01*
X3860Y3645D01*
X3859Y3646D01*
X3859Y3646D01*
X3858Y3646D01*
X3858Y3646D01*
X3858Y3647D01*
X3858Y3647D01*
X3857Y3647D01*
X3857Y3647D01*
X3857Y3647D01*
X3857Y3648D01*
X3856Y3648D01*
X3856Y3649D01*
X3856Y3649D01*
X3856Y3649D01*
X3856Y3649D01*
X3856Y3650D01*
X3856Y3650D01*
X3855Y3651D01*
X3855Y3651D01*
X3855Y3652D01*
Y3652D01*
Y3652D01*
Y3652D01*
X3855Y3652D01*
Y3653D01*
X3855Y3653D01*
X3856Y3654D01*
X3856Y3655D01*
X3856Y3656D01*
X3857Y3656D01*
X3857Y3656D01*
X3857Y3657D01*
X3858Y3657D01*
X3858D01*
X3858Y3657D01*
X3858Y3657D01*
X3858Y3657D01*
X3858Y3657D01*
X3858Y3658D01*
X3859Y3658D01*
X3859Y3658D01*
X3860Y3658D01*
X3860Y3658D01*
X3860Y3658D01*
X3861Y3659D01*
X3862Y3659D01*
X3864Y3659D01*
X3869D01*
Y3645D01*
D02*
G37*
G36*
X3684D02*
X3679D01*
X3679Y3645D01*
X3678D01*
X3678Y3645D01*
X3677Y3645D01*
X3677Y3645D01*
X3676Y3645D01*
X3676Y3645D01*
X3676Y3645D01*
X3675Y3645D01*
X3675Y3645D01*
X3675Y3646D01*
X3674Y3646D01*
X3674Y3646D01*
X3673Y3646D01*
X3673Y3647D01*
X3673Y3647D01*
X3673Y3647D01*
X3673Y3647D01*
X3672Y3647D01*
X3672Y3648D01*
X3672Y3648D01*
X3671Y3649D01*
X3671Y3649D01*
X3671Y3649D01*
X3671Y3649D01*
X3671Y3650D01*
X3671Y3650D01*
X3671Y3651D01*
X3671Y3651D01*
X3671Y3652D01*
Y3652D01*
Y3652D01*
Y3652D01*
X3671Y3652D01*
Y3653D01*
X3671Y3653D01*
X3671Y3654D01*
X3671Y3655D01*
X3672Y3656D01*
X3672Y3656D01*
X3672Y3656D01*
X3673Y3657D01*
X3673Y3657D01*
X3673D01*
X3673Y3657D01*
X3673Y3657D01*
X3673Y3657D01*
X3674Y3657D01*
X3674Y3658D01*
X3674Y3658D01*
X3674Y3658D01*
X3675Y3658D01*
X3675Y3658D01*
X3676Y3658D01*
X3676Y3659D01*
X3678Y3659D01*
X3679Y3659D01*
X3684D01*
Y3645D01*
D02*
G37*
G36*
X4006Y3559D02*
X4001D01*
X4001Y3559D01*
X4000D01*
X4000Y3559D01*
X3999Y3559D01*
X3999Y3559D01*
X3998Y3559D01*
X3998Y3559D01*
X3998Y3559D01*
X3998Y3559D01*
X3997Y3559D01*
X3997Y3559D01*
X3997Y3560D01*
X3996Y3560D01*
X3996Y3560D01*
X3996Y3560D01*
X3996Y3560D01*
X3996Y3560D01*
X3996Y3561D01*
X3996Y3561D01*
X3995Y3561D01*
X3995Y3562D01*
X3995Y3562D01*
X3995Y3562D01*
X3995Y3562D01*
X3995Y3562D01*
X3995Y3563D01*
X3995Y3563D01*
X3995Y3563D01*
X3995Y3564D01*
Y3564D01*
Y3564D01*
Y3564D01*
X3995Y3564D01*
X3995Y3565D01*
X3995Y3565D01*
X3995Y3566D01*
Y3566D01*
X3995Y3566D01*
X3995Y3566D01*
X3995Y3566D01*
X3995Y3567D01*
X3995Y3567D01*
X3996Y3567D01*
X3996Y3567D01*
X3996Y3567D01*
X3996Y3567D01*
X3996Y3568D01*
X3996Y3568D01*
X3997Y3568D01*
X3997Y3568D01*
X3997Y3568D01*
X3998Y3568D01*
X3998Y3568D01*
X3998Y3568D01*
X3998Y3568D01*
X3999Y3568D01*
X3999Y3569D01*
X4000Y3569D01*
X4000Y3569D01*
X4006D01*
Y3559D01*
D02*
G37*
G36*
X4144Y3555D02*
X4140D01*
X4139Y3556D01*
X4139Y3556D01*
X4139Y3556D01*
X4138Y3556D01*
X4138Y3556D01*
X4137Y3556D01*
X4136Y3556D01*
X4135Y3556D01*
X4135Y3557D01*
X4135Y3557D01*
X4134Y3557D01*
X4134Y3557D01*
X4134Y3557D01*
X4134Y3557D01*
X4134Y3557D01*
X4134Y3558D01*
X4133Y3558D01*
X4133Y3558D01*
X4133Y3558D01*
X4133Y3559D01*
X4133Y3559D01*
X4132Y3560D01*
X4132Y3560D01*
X4132Y3561D01*
X4132Y3561D01*
X4132Y3562D01*
X4132Y3562D01*
Y3562D01*
Y3562D01*
Y3563D01*
X4132Y3563D01*
X4132Y3563D01*
X4132Y3563D01*
X4132Y3564D01*
X4132Y3565D01*
X4133Y3565D01*
X4133Y3566D01*
X4133Y3566D01*
X4133Y3566D01*
X4134Y3567D01*
X4134Y3567D01*
X4134Y3567D01*
X4134Y3567D01*
X4134Y3567D01*
X4134Y3567D01*
X4135Y3567D01*
X4135Y3568D01*
X4135Y3568D01*
X4135Y3568D01*
X4136Y3568D01*
X4136Y3568D01*
X4137Y3568D01*
X4137Y3568D01*
X4138Y3569D01*
X4138Y3569D01*
X4139Y3569D01*
X4140Y3569D01*
X4144D01*
Y3555D01*
D02*
G37*
G36*
X3728Y3551D02*
X3717D01*
X3723Y3568D01*
X3728Y3551D01*
D02*
G37*
D23*
X2360Y4190D02*
X2990D01*
X2360Y3830D02*
X2990D01*
Y4190D01*
X2360Y3830D02*
Y4190D01*
Y3812D02*
X2990D01*
X2360Y3453D02*
X2990D01*
Y3812D01*
X2360Y3453D02*
Y3812D01*
Y3435D02*
X2990D01*
X2360Y3075D02*
X2990D01*
Y3435D01*
X2360Y3075D02*
Y3435D01*
X3305Y3992D02*
X3265D01*
X3305Y3952D01*
Y3942D01*
X3295Y3932D01*
X3275D01*
X3265Y3942D01*
X3278Y4094D02*
X3298D01*
X3288D01*
Y4034D01*
X3278Y4044D01*
D31*
X3636Y4169D02*
X3971D01*
X3208Y3969D02*
Y4069D01*
X3200D02*
X3225D01*
X3200Y3969D02*
X3225D01*
X3400Y4119D02*
X3425Y4169D01*
X3375D02*
X3400Y4119D01*
X3971Y3869D02*
Y4169D01*
X3225Y3869D02*
X3971D01*
X3225D02*
Y4169D01*
X3636D01*
X3200Y3844D02*
Y4194D01*
Y3844D02*
X3996D01*
Y4194D01*
X3200D02*
X3996D01*
D32*
X3558Y4168D02*
Y4197D01*
X3636Y4168D02*
Y4197D01*
D48*
X2785Y3402D02*
D03*
D49*
Y3520D02*
D03*
D50*
Y3642D02*
D03*
D51*
X4241Y3402D02*
D03*
D52*
Y3520D02*
D03*
D53*
Y3642D02*
D03*
D54*
X3557Y3482D02*
D03*
D55*
X3555Y3402D02*
D03*
D56*
X3433Y3553D02*
D03*
M02*
