G04 Layer_Color=8421504*
%FSLAX23Y23*%
%MOIN*%
G70*
G01*
G75*
%ADD16R,0.035X0.028*%
%ADD17R,0.035X0.031*%
%ADD18R,0.011X0.074*%
%ADD19R,0.031X0.031*%
%ADD20R,0.035X0.083*%
%ADD21R,0.144X0.173*%
%ADD22R,0.094X0.035*%
D16*
X3412Y3424D02*
D03*
Y3483D02*
D03*
X3353D02*
D03*
Y3424D02*
D03*
X3029Y3458D02*
D03*
Y3399D02*
D03*
X3030Y3525D02*
D03*
Y3584D02*
D03*
X3144Y3399D02*
D03*
Y3458D02*
D03*
Y3584D02*
D03*
Y3525D02*
D03*
X3087Y3399D02*
D03*
Y3458D02*
D03*
X3087Y3584D02*
D03*
Y3525D02*
D03*
X2972Y3399D02*
D03*
Y3458D02*
D03*
Y3584D02*
D03*
Y3525D02*
D03*
X2328Y2836D02*
D03*
Y2895D02*
D03*
X2385D02*
D03*
Y2836D02*
D03*
X2442Y2895D02*
D03*
Y2836D02*
D03*
X2499D02*
D03*
Y2895D02*
D03*
X2556Y2836D02*
D03*
Y2895D02*
D03*
X2613D02*
D03*
Y2836D02*
D03*
X2728Y4052D02*
D03*
Y3993D02*
D03*
X3029Y3173D02*
D03*
Y3114D02*
D03*
X3144Y3173D02*
D03*
Y3114D02*
D03*
X3086D02*
D03*
Y3173D02*
D03*
X2971Y3114D02*
D03*
Y3173D02*
D03*
Y3878D02*
D03*
Y3819D02*
D03*
X2972Y3694D02*
D03*
Y3753D02*
D03*
X3086Y3878D02*
D03*
Y3819D02*
D03*
X3087Y3694D02*
D03*
Y3753D02*
D03*
X3144Y3878D02*
D03*
Y3819D02*
D03*
Y3694D02*
D03*
Y3753D02*
D03*
X2626Y3282D02*
D03*
Y3223D02*
D03*
X3029Y3819D02*
D03*
Y3878D02*
D03*
X3029Y3753D02*
D03*
Y3694D02*
D03*
X2732Y3223D02*
D03*
Y3282D02*
D03*
X2621Y3667D02*
D03*
Y3608D02*
D03*
X2728Y3667D02*
D03*
Y3608D02*
D03*
X2971Y3303D02*
D03*
Y3244D02*
D03*
X3086Y3303D02*
D03*
Y3244D02*
D03*
X3144D02*
D03*
Y3303D02*
D03*
X2622Y4052D02*
D03*
Y3993D02*
D03*
X3029Y3244D02*
D03*
Y3303D02*
D03*
X2422Y3198D02*
D03*
Y3139D02*
D03*
X2357Y3137D02*
D03*
Y3196D02*
D03*
X2292D02*
D03*
Y3137D02*
D03*
X2227D02*
D03*
Y3196D02*
D03*
D17*
X2674Y4050D02*
D03*
Y3995D02*
D03*
X3589Y3669D02*
D03*
Y3724D02*
D03*
X3905Y3667D02*
D03*
Y3723D02*
D03*
X2679Y3280D02*
D03*
Y3225D02*
D03*
X3745Y3669D02*
D03*
Y3724D02*
D03*
X2674Y3665D02*
D03*
Y3610D02*
D03*
D18*
X3512Y3366D02*
D03*
X3531D02*
D03*
X3551D02*
D03*
X3571D02*
D03*
X3590D02*
D03*
Y3535D02*
D03*
X3571D02*
D03*
X3551D02*
D03*
X3531D02*
D03*
X3512D02*
D03*
X3669Y3365D02*
D03*
X3688D02*
D03*
X3708D02*
D03*
X3728D02*
D03*
X3747D02*
D03*
Y3534D02*
D03*
X3728D02*
D03*
X3708D02*
D03*
X3688D02*
D03*
X3669D02*
D03*
X3825Y3365D02*
D03*
X3845D02*
D03*
X3865D02*
D03*
X3884D02*
D03*
X3904D02*
D03*
Y3534D02*
D03*
X3884D02*
D03*
X3865D02*
D03*
X3845D02*
D03*
X3825D02*
D03*
D19*
X2220Y3244D02*
D03*
Y3303D02*
D03*
X2290Y3244D02*
D03*
Y3303D02*
D03*
X2360Y3244D02*
D03*
Y3303D02*
D03*
X2274Y2839D02*
D03*
Y2898D02*
D03*
X2425Y3244D02*
D03*
Y3303D02*
D03*
D20*
X2615Y2711D02*
D03*
X2665D02*
D03*
X2715D02*
D03*
X2765D02*
D03*
X2965D02*
D03*
X2915D02*
D03*
X2865D02*
D03*
X2815D02*
D03*
X3165D02*
D03*
X3115D02*
D03*
X3065D02*
D03*
X3015D02*
D03*
X3315D02*
D03*
X3265D02*
D03*
X3215D02*
D03*
X3715D02*
D03*
X3665D02*
D03*
X3615D02*
D03*
X3565D02*
D03*
X3865D02*
D03*
X3815D02*
D03*
X3765D02*
D03*
D21*
X4190Y2520D02*
D03*
X2290D02*
D03*
D22*
X4087Y3093D02*
D03*
Y3043D02*
D03*
Y2993D02*
D03*
Y2943D02*
D03*
Y3243D02*
D03*
Y3193D02*
D03*
Y3143D02*
D03*
Y4093D02*
D03*
Y4143D02*
D03*
Y4193D02*
D03*
Y3893D02*
D03*
Y3943D02*
D03*
Y3993D02*
D03*
X4107Y4043D02*
D03*
X4087Y3693D02*
D03*
Y3743D02*
D03*
Y3793D02*
D03*
Y3843D02*
D03*
X4107Y3643D02*
D03*
X4087Y3593D02*
D03*
Y3543D02*
D03*
Y3493D02*
D03*
M02*
