G04 Layer_Color=32768*
%FSLAX23Y23*%
%MOIN*%
G70*
G01*
G75*
%ADD30C,0.004*%
D30*
X3390Y3406D02*
X3433D01*
X3390Y3500D02*
X3433D01*
X3412Y3434D02*
Y3472D01*
X3393Y3453D02*
X3430D01*
X3334D02*
X3371D01*
X3353Y3434D02*
Y3472D01*
X3331Y3500D02*
X3374D01*
X3331Y3406D02*
X3374D01*
X3011Y3428D02*
X3048D01*
X3029Y3409D02*
Y3447D01*
X3008Y3475D02*
X3051D01*
X3008Y3381D02*
X3051D01*
X3008Y3507D02*
X3051D01*
X3008Y3601D02*
X3051D01*
X3030Y3535D02*
Y3573D01*
X3011Y3554D02*
X3049D01*
X3122Y3381D02*
X3165D01*
X3122Y3475D02*
X3165D01*
X3144Y3409D02*
Y3447D01*
X3125Y3428D02*
X3162D01*
X3125Y3554D02*
X3162D01*
X3144Y3535D02*
Y3573D01*
X3122Y3601D02*
X3165D01*
X3122Y3507D02*
X3165D01*
X3065Y3381D02*
X3108D01*
X3065Y3475D02*
X3108D01*
X3087Y3409D02*
Y3447D01*
X3068Y3428D02*
X3105D01*
X3068Y3554D02*
X3106D01*
X3087Y3535D02*
Y3573D01*
X3065Y3601D02*
X3109D01*
X3065Y3507D02*
X3109D01*
X2950Y3381D02*
X2994D01*
X2950Y3475D02*
X2994D01*
X2972Y3409D02*
Y3447D01*
X2953Y3428D02*
X2991D01*
X2953Y3554D02*
X2991D01*
X2972Y3535D02*
Y3573D01*
X2950Y3601D02*
X2994D01*
X2950Y3507D02*
X2994D01*
X2652Y4069D02*
X2696D01*
Y3975D02*
Y4069D01*
X2655Y4022D02*
X2693D01*
X2674Y4003D02*
Y4041D01*
X2652Y3975D02*
Y4069D01*
Y3975D02*
X2696D01*
X3567Y3649D02*
X3610D01*
X3567D02*
Y3744D01*
X3589Y3678D02*
Y3715D01*
X3570Y3697D02*
X3607D01*
X3610Y3649D02*
Y3744D01*
X3567D02*
X3610D01*
X2309Y2866D02*
X2347D01*
X2328Y2847D02*
Y2885D01*
X2306Y2819D02*
X2350D01*
X2306Y2913D02*
X2350D01*
X2363D02*
X2407D01*
X2363Y2819D02*
X2407D01*
X2385Y2847D02*
Y2885D01*
X2366Y2866D02*
X2404D01*
X2420Y2913D02*
X2464D01*
X2420Y2819D02*
X2464D01*
X2442Y2847D02*
Y2885D01*
X2423Y2866D02*
X2461D01*
X2480D02*
X2518D01*
X2499Y2847D02*
Y2885D01*
X2477Y2819D02*
X2521D01*
X2477Y2913D02*
X2521D01*
X2537Y2866D02*
X2575D01*
X2556Y2847D02*
Y2885D01*
X2534Y2819D02*
X2578D01*
X2534Y2913D02*
X2578D01*
X2591D02*
X2635D01*
X2591Y2819D02*
X2635D01*
X2613Y2847D02*
Y2885D01*
X2594Y2866D02*
X2632D01*
X2706Y4069D02*
X2750D01*
X2706Y3975D02*
X2750D01*
X2728Y4003D02*
Y4041D01*
X2709Y4022D02*
X2747D01*
X3010Y3143D02*
X3047D01*
X3029Y3124D02*
Y3162D01*
X3007Y3190D02*
X3050D01*
X3007Y3096D02*
X3050D01*
X3125Y3143D02*
X3162D01*
X3144Y3124D02*
Y3162D01*
X3122Y3190D02*
X3165D01*
X3122Y3096D02*
X3165D01*
X3065D02*
X3108D01*
X3065Y3190D02*
X3108D01*
X3086Y3124D02*
Y3162D01*
X3067Y3143D02*
X3105D01*
X2949Y3096D02*
X2993D01*
X2949Y3190D02*
X2993D01*
X2971Y3124D02*
Y3162D01*
X2952Y3143D02*
X2990D01*
X3883Y3648D02*
X3927D01*
X3883D02*
Y3742D01*
X3905Y3676D02*
Y3714D01*
X3886Y3695D02*
X3924D01*
X3927Y3648D02*
Y3742D01*
X3883D02*
X3927D01*
X2657Y3299D02*
X2700D01*
Y3205D02*
Y3299D01*
X2660Y3252D02*
X2697D01*
X2679Y3233D02*
Y3271D01*
X2657Y3205D02*
Y3299D01*
Y3205D02*
X2700D01*
X3723Y3649D02*
X3767D01*
X3723D02*
Y3744D01*
X3745Y3678D02*
Y3715D01*
X3726Y3697D02*
X3764D01*
X3767Y3649D02*
Y3744D01*
X3723D02*
X3767D01*
X2652Y3684D02*
X2695D01*
Y3590D02*
Y3684D01*
X2655Y3637D02*
X2692D01*
X2674Y3618D02*
Y3656D01*
X2652Y3590D02*
Y3684D01*
Y3590D02*
X2695D01*
X2952Y3848D02*
X2990D01*
X2971Y3829D02*
Y3867D01*
X2949Y3895D02*
X2993D01*
X2949Y3801D02*
X2993D01*
X2950Y3676D02*
X2994D01*
X2950Y3770D02*
X2994D01*
X2972Y3704D02*
Y3742D01*
X2953Y3723D02*
X2991D01*
X3067Y3848D02*
X3105D01*
X3086Y3829D02*
Y3867D01*
X3065Y3895D02*
X3108D01*
X3065Y3801D02*
X3108D01*
X3065Y3676D02*
X3108D01*
X3065Y3770D02*
X3108D01*
X3087Y3704D02*
Y3742D01*
X3068Y3723D02*
X3105D01*
X3125Y3848D02*
X3162D01*
X3144Y3829D02*
Y3867D01*
X3122Y3895D02*
X3165D01*
X3122Y3801D02*
X3165D01*
X3122Y3676D02*
X3165D01*
X3122Y3770D02*
X3165D01*
X3144Y3704D02*
Y3742D01*
X3125Y3723D02*
X3162D01*
X2607Y3252D02*
X2645D01*
X2626Y3233D02*
Y3271D01*
X2604Y3299D02*
X2648D01*
X2604Y3205D02*
X2648D01*
X3007Y3801D02*
X3050D01*
X3007Y3895D02*
X3050D01*
X3029Y3829D02*
Y3867D01*
X3010Y3848D02*
X3047D01*
X3011Y3723D02*
X3048D01*
X3029Y3704D02*
Y3742D01*
X3008Y3770D02*
X3051D01*
X3008Y3676D02*
X3051D01*
X2710Y3205D02*
X2754D01*
X2710Y3299D02*
X2754D01*
X2732Y3233D02*
Y3271D01*
X2713Y3252D02*
X2751D01*
X2602Y3637D02*
X2640D01*
X2621Y3618D02*
Y3656D01*
X2599Y3684D02*
X2643D01*
X2599Y3590D02*
X2643D01*
X2706Y3684D02*
X2750D01*
X2706Y3590D02*
X2750D01*
X2728Y3618D02*
Y3656D01*
X2709Y3637D02*
X2747D01*
X2952Y3273D02*
X2990D01*
X2971Y3254D02*
Y3292D01*
X2949Y3320D02*
X2993D01*
X2949Y3226D02*
X2993D01*
X3067Y3273D02*
X3105D01*
X3086Y3254D02*
Y3292D01*
X3065Y3320D02*
X3108D01*
X3065Y3226D02*
X3108D01*
X3122D02*
X3165D01*
X3122Y3320D02*
X3165D01*
X3144Y3254D02*
Y3292D01*
X3125Y3273D02*
X3162D01*
X2603Y4022D02*
X2641D01*
X2622Y4003D02*
Y4041D01*
X2600Y4069D02*
X2644D01*
X2600Y3975D02*
X2644D01*
X3007Y3226D02*
X3050D01*
X3007Y3320D02*
X3050D01*
X3029Y3254D02*
Y3292D01*
X3010Y3273D02*
X3047D01*
X2403Y3168D02*
X2441D01*
X2422Y3149D02*
Y3187D01*
X2400Y3215D02*
X2444D01*
X2400Y3121D02*
X2444D01*
X2335Y3120D02*
X2379D01*
X2335Y3214D02*
X2379D01*
X2357Y3148D02*
Y3186D01*
X2338Y3167D02*
X2376D01*
X2273D02*
X2311D01*
X2292Y3148D02*
Y3186D01*
X2270Y3214D02*
X2314D01*
X2270Y3120D02*
X2314D01*
X2205D02*
X2249D01*
X2205Y3214D02*
X2249D01*
X2227Y3148D02*
Y3186D01*
X2208Y3167D02*
X2246D01*
M02*
