G04 Layer_Color=2752767*
%FSLAX23Y23*%
%MOIN*%
G70*
G01*
G75*
%ADD29C,0.005*%
%ADD59C,0.007*%
D29*
X2477Y2690D02*
Y2730D01*
X2517D01*
Y2690D01*
X2477D01*
X3962D02*
Y2730D01*
X4002D01*
Y2690D01*
X3962D01*
X4175Y4285D02*
X4155Y4325D01*
X4195D01*
X4175Y4285D01*
X4205Y2895D02*
X4215Y2905D01*
X4225D01*
X4215Y2915D01*
X4225Y2925D01*
X4215D01*
X4205Y2935D01*
X4195Y2925D01*
X4185D01*
X4195Y2915D01*
X4185Y2905D01*
X4195D01*
X4205Y2895D01*
Y4202D02*
X4215Y4212D01*
X4225D01*
X4215Y4222D01*
X4225Y4232D01*
X4215D01*
X4205Y4242D01*
X4195Y4232D01*
X4185D01*
X4195Y4222D01*
X4185Y4212D01*
X4195D01*
X4205Y4202D01*
X4175Y2812D02*
X4155Y2852D01*
X4195D01*
X4175Y2812D01*
X3688Y3604D02*
X3698Y3624D01*
X3688Y3644D01*
X3708Y3634D01*
X3728Y3644D01*
X3718Y3624D01*
X3728Y3604D01*
X3708Y3614D01*
X3688Y3604D01*
X3544Y3410D02*
Y3400D01*
X3564D01*
Y3410D01*
X3574D01*
Y3430D01*
X3564D01*
Y3440D01*
X3544D01*
Y3430D01*
X3534D01*
Y3410D01*
X3544D01*
X3784Y3415D02*
Y3405D01*
X3804D01*
Y3415D01*
X3814D01*
Y3435D01*
X3804D01*
Y3445D01*
X3784D01*
Y3435D01*
X3774D01*
Y3415D01*
X3784D01*
X3076Y3481D02*
Y3471D01*
X3096D01*
Y3481D01*
X3106D01*
Y3501D01*
X3096D01*
Y3511D01*
X3076D01*
Y3501D01*
X3066D01*
Y3481D01*
X3076D01*
X3640Y3406D02*
Y3396D01*
X3660D01*
Y3406D01*
X3670D01*
Y3426D01*
X3660D01*
Y3436D01*
X3640D01*
Y3426D01*
X3630D01*
Y3406D01*
X3640D01*
X3659Y3469D02*
Y3459D01*
X3679D01*
Y3469D01*
X3689D01*
Y3489D01*
X3679D01*
Y3499D01*
X3659D01*
Y3489D01*
X3649D01*
Y3469D01*
X3659D01*
X3406Y3362D02*
Y3352D01*
X3426D01*
Y3362D01*
X3436D01*
Y3382D01*
X3426D01*
Y3392D01*
X3406D01*
Y3382D01*
X3396D01*
Y3362D01*
X3406D01*
X3736Y3415D02*
Y3405D01*
X3756D01*
Y3415D01*
X3766D01*
Y3435D01*
X3756D01*
Y3445D01*
X3736D01*
Y3435D01*
X3726D01*
Y3415D01*
X3736D01*
X3865Y3603D02*
Y3593D01*
X3885D01*
Y3603D01*
X3895D01*
Y3623D01*
X3885D01*
Y3633D01*
X3865D01*
Y3623D01*
X3855D01*
Y3603D01*
X3865D01*
X3798Y3475D02*
Y3465D01*
X3818D01*
Y3475D01*
X3828D01*
Y3495D01*
X3818D01*
Y3505D01*
X3798D01*
Y3495D01*
X3788D01*
Y3475D01*
X3798D01*
X3695Y3469D02*
Y3459D01*
X3715D01*
Y3469D01*
X3725D01*
Y3489D01*
X3715D01*
Y3499D01*
X3695D01*
Y3489D01*
X3685D01*
Y3469D01*
X3695D01*
X2986Y3609D02*
Y3599D01*
X3006D01*
Y3609D01*
X3016D01*
Y3629D01*
X3006D01*
Y3639D01*
X2986D01*
Y3629D01*
X2976D01*
Y3609D01*
X2986D01*
X3869Y3408D02*
Y3398D01*
X3889D01*
Y3408D01*
X3899D01*
Y3428D01*
X3889D01*
Y3438D01*
X3869D01*
Y3428D01*
X3859D01*
Y3408D01*
X3869D01*
X3765Y3394D02*
Y3384D01*
X3785D01*
Y3394D01*
X3795D01*
Y3414D01*
X3785D01*
Y3424D01*
X3765D01*
Y3414D01*
X3755D01*
Y3394D01*
X3765D01*
X3133Y3645D02*
Y3635D01*
X3153D01*
Y3645D01*
X3163D01*
Y3665D01*
X3153D01*
Y3675D01*
X3133D01*
Y3665D01*
X3123D01*
Y3645D01*
X3133D01*
X3277Y3372D02*
X3287Y3392D01*
X3277Y3412D01*
X3297Y3402D01*
X3317Y3412D01*
X3307Y3392D01*
X3317Y3372D01*
X3297Y3382D01*
X3277Y3372D01*
X3770Y3565D02*
X3780Y3585D01*
X3770Y3605D01*
X3790Y3595D01*
X3810Y3605D01*
X3800Y3585D01*
X3810Y3565D01*
X3790Y3575D01*
X3770Y3565D01*
X3006Y3909D02*
Y3899D01*
X3026D01*
Y3909D01*
X3036D01*
Y3929D01*
X3026D01*
Y3939D01*
X3006D01*
Y3929D01*
X2996D01*
Y3909D01*
X3006D01*
X3868Y3303D02*
Y3293D01*
X3888D01*
Y3303D01*
X3898D01*
Y3323D01*
X3888D01*
Y3333D01*
X3868D01*
Y3323D01*
X3858D01*
Y3303D01*
X3868D01*
X3025Y3781D02*
Y3771D01*
X3045D01*
Y3781D01*
X3055D01*
Y3801D01*
X3045D01*
Y3811D01*
X3025D01*
Y3801D01*
X3015D01*
Y3781D01*
X3025D01*
X2602Y4089D02*
X2612Y4109D01*
X2602Y4129D01*
X2622Y4119D01*
X2642Y4129D01*
X2632Y4109D01*
X2642Y4089D01*
X2622Y4099D01*
X2602Y4089D01*
X2604Y3145D02*
X2614Y3165D01*
X2604Y3185D01*
X2624Y3175D01*
X2644Y3185D01*
X2634Y3165D01*
X2644Y3145D01*
X2624Y3155D01*
X2604Y3145D01*
X2755Y3588D02*
X2765Y3608D01*
X2755Y3628D01*
X2775Y3618D01*
X2795Y3628D01*
X2785Y3608D01*
X2795Y3588D01*
X2775Y3598D01*
X2755Y3588D01*
X2875Y3434D02*
Y3424D01*
X2895D01*
Y3434D01*
X2905D01*
Y3454D01*
X2895D01*
Y3464D01*
X2875D01*
Y3454D01*
X2865D01*
Y3434D01*
X2875D01*
X3077Y3331D02*
Y3321D01*
X3097D01*
Y3331D01*
X3107D01*
Y3351D01*
X3097D01*
Y3361D01*
X3077D01*
Y3351D01*
X3067D01*
Y3331D01*
X3077D01*
X3292Y2963D02*
Y2953D01*
X3312D01*
Y2963D01*
X3322D01*
Y2983D01*
X3312D01*
Y2993D01*
X3292D01*
Y2983D01*
X3282D01*
Y2963D01*
X3292D01*
X3399Y2691D02*
Y2681D01*
X3419D01*
Y2691D01*
X3429D01*
Y2711D01*
X3419D01*
Y2721D01*
X3399D01*
Y2711D01*
X3389D01*
Y2691D01*
X3399D01*
X3931Y2725D02*
Y2715D01*
X3951D01*
Y2725D01*
X3961D01*
Y2745D01*
X3951D01*
Y2755D01*
X3931D01*
Y2745D01*
X3921D01*
Y2725D01*
X3931D01*
X3452D02*
Y2715D01*
X3472D01*
Y2725D01*
X3482D01*
Y2745D01*
X3472D01*
Y2755D01*
X3452D01*
Y2745D01*
X3442D01*
Y2725D01*
X3452D01*
X3989Y3844D02*
X3999Y3864D01*
X3989Y3884D01*
X4009Y3874D01*
X4029Y3884D01*
X4019Y3864D01*
X4029Y3844D01*
X4009Y3854D01*
X3989Y3844D01*
X2601Y3740D02*
X2611Y3760D01*
X2601Y3780D01*
X2621Y3770D01*
X2641Y3780D01*
X2631Y3760D01*
X2641Y3740D01*
X2621Y3750D01*
X2601Y3740D01*
X3020Y4144D02*
Y4134D01*
X3040D01*
Y4144D01*
X3050D01*
Y4164D01*
X3040D01*
Y4174D01*
X3020D01*
Y4164D01*
X3010D01*
Y4144D01*
X3020D01*
X2624Y2769D02*
Y2759D01*
X2644D01*
Y2769D01*
X2654D01*
Y2789D01*
X2644D01*
Y2799D01*
X2624D01*
Y2789D01*
X2614D01*
Y2769D01*
X2624D01*
X2855Y2802D02*
Y2792D01*
X2875D01*
Y2802D01*
X2885D01*
Y2822D01*
X2875D01*
Y2832D01*
X2855D01*
Y2822D01*
X2845D01*
Y2802D01*
X2855D01*
X2483Y3000D02*
Y2990D01*
X2503D01*
Y3000D01*
X2513D01*
Y3020D01*
X2503D01*
Y3030D01*
X2483D01*
Y3020D01*
X2473D01*
Y3000D01*
X2483D01*
X3490Y3209D02*
Y3199D01*
X3510D01*
Y3209D01*
X3520D01*
Y3229D01*
X3510D01*
Y3239D01*
X3490D01*
Y3229D01*
X3480D01*
Y3209D01*
X3490D01*
X3551Y3252D02*
Y3242D01*
X3571D01*
Y3252D01*
X3581D01*
Y3272D01*
X3571D01*
Y3282D01*
X3551D01*
Y3272D01*
X3541D01*
Y3252D01*
X3551D01*
X3112Y3074D02*
Y3064D01*
X3132D01*
Y3074D01*
X3142D01*
Y3094D01*
X3132D01*
Y3104D01*
X3112D01*
Y3094D01*
X3102D01*
Y3074D01*
X3112D01*
X2759Y3762D02*
Y3752D01*
X2779D01*
Y3762D01*
X2789D01*
Y3782D01*
X2779D01*
Y3792D01*
X2759D01*
Y3782D01*
X2749D01*
Y3762D01*
X2759D01*
X2307Y3429D02*
Y3419D01*
X2327D01*
Y3429D01*
X2337D01*
Y3449D01*
X2327D01*
Y3459D01*
X2307D01*
Y3449D01*
X2297D01*
Y3429D01*
X2307D01*
X4223Y2775D02*
Y2765D01*
X4243D01*
Y2775D01*
X4253D01*
Y2795D01*
X4243D01*
Y2805D01*
X4223D01*
Y2795D01*
X4213D01*
Y2775D01*
X4223D01*
X3494Y2752D02*
Y2742D01*
X3514D01*
Y2752D01*
X3524D01*
Y2772D01*
X3514D01*
Y2782D01*
X3494D01*
Y2772D01*
X3484D01*
Y2752D01*
X3494D01*
X2668Y2778D02*
Y2768D01*
X2688D01*
Y2778D01*
X2698D01*
Y2798D01*
X2688D01*
Y2808D01*
X2668D01*
Y2798D01*
X2658D01*
Y2778D01*
X2668D01*
X3547Y3177D02*
Y3167D01*
X3567D01*
Y3177D01*
X3577D01*
Y3197D01*
X3567D01*
Y3207D01*
X3547D01*
Y3197D01*
X3537D01*
Y3177D01*
X3547D01*
X3924Y3281D02*
X3934Y3301D01*
X3924Y3321D01*
X3944Y3311D01*
X3964Y3321D01*
X3954Y3301D01*
X3964Y3281D01*
X3944Y3291D01*
X3924Y3281D01*
X2952Y2983D02*
Y2973D01*
X2972D01*
Y2983D01*
X2982D01*
Y3003D01*
X2972D01*
Y3013D01*
X2952D01*
Y3003D01*
X2942D01*
Y2983D01*
X2952D01*
X3600Y3222D02*
Y3212D01*
X3620D01*
Y3222D01*
X3630D01*
Y3242D01*
X3620D01*
Y3252D01*
X3600D01*
Y3242D01*
X3590D01*
Y3222D01*
X3600D01*
X2344Y3329D02*
Y3319D01*
X2364D01*
Y3329D01*
X2374D01*
Y3349D01*
X2364D01*
Y3359D01*
X2344D01*
Y3349D01*
X2334D01*
Y3329D01*
X2344D01*
X3845Y3131D02*
Y3121D01*
X3865D01*
Y3131D01*
X3875D01*
Y3151D01*
X3865D01*
Y3161D01*
X3845D01*
Y3151D01*
X3835D01*
Y3131D01*
X3845D01*
X2332Y3452D02*
Y3442D01*
X2352D01*
Y3452D01*
X2362D01*
Y3472D01*
X2352D01*
Y3482D01*
X2332D01*
Y3472D01*
X2322D01*
Y3452D01*
X2332D01*
X3541Y3303D02*
Y3293D01*
X3561D01*
Y3303D01*
X3571D01*
Y3323D01*
X3561D01*
Y3333D01*
X3541D01*
Y3323D01*
X3531D01*
Y3303D01*
X3541D01*
X2248Y3261D02*
Y3251D01*
X2268D01*
Y3261D01*
X2278D01*
Y3281D01*
X2268D01*
Y3291D01*
X2248D01*
Y3281D01*
X2238D01*
Y3261D01*
X2248D01*
X3521Y3236D02*
Y3226D01*
X3541D01*
Y3236D01*
X3551D01*
Y3256D01*
X3541D01*
Y3266D01*
X3521D01*
Y3256D01*
X3511D01*
Y3236D01*
X3521D01*
X3083Y3062D02*
Y3052D01*
X3103D01*
Y3062D01*
X3113D01*
Y3082D01*
X3103D01*
Y3092D01*
X3083D01*
Y3082D01*
X3073D01*
Y3062D01*
X3083D01*
X3495Y3718D02*
X3505Y3738D01*
X3495Y3758D01*
X3515Y3748D01*
X3535Y3758D01*
X3525Y3738D01*
X3535Y3718D01*
X3515Y3728D01*
X3495Y3718D01*
X3635Y3305D02*
Y3295D01*
X3655D01*
Y3305D01*
X3665D01*
Y3325D01*
X3655D01*
Y3335D01*
X3635D01*
Y3325D01*
X3625D01*
Y3305D01*
X3635D01*
X2345Y2970D02*
Y2960D01*
X2365D01*
Y2970D01*
X2375D01*
Y2990D01*
X2365D01*
Y3000D01*
X2345D01*
Y2990D01*
X2335D01*
Y2970D01*
X2345D01*
X2375Y2950D02*
Y2940D01*
X2395D01*
Y2950D01*
X2405D01*
Y2970D01*
X2395D01*
Y2980D01*
X2375D01*
Y2970D01*
X2365D01*
Y2950D01*
X2375D01*
X2430Y2935D02*
Y2925D01*
X2450D01*
Y2935D01*
X2460D01*
Y2955D01*
X2450D01*
Y2965D01*
X2430D01*
Y2955D01*
X2420D01*
Y2935D01*
X2430D01*
X2545D02*
Y2925D01*
X2565D01*
Y2935D01*
X2575D01*
Y2955D01*
X2565D01*
Y2965D01*
X2545D01*
Y2955D01*
X2535D01*
Y2935D01*
X2545D01*
X2675Y2980D02*
Y2970D01*
X2695D01*
Y2980D01*
X2705D01*
Y3000D01*
X2695D01*
Y3010D01*
X2675D01*
Y3000D01*
X2665D01*
Y2980D01*
X2675D01*
X2980Y2869D02*
Y2859D01*
X3000D01*
Y2869D01*
X3010D01*
Y2889D01*
X3000D01*
Y2899D01*
X2980D01*
Y2889D01*
X2970D01*
Y2869D01*
X2980D01*
X3055Y2805D02*
Y2795D01*
X3075D01*
Y2805D01*
X3085D01*
Y2825D01*
X3075D01*
Y2835D01*
X3055D01*
Y2825D01*
X3045D01*
Y2805D01*
X3055D01*
X2795Y2780D02*
Y2770D01*
X2815D01*
Y2780D01*
X2825D01*
Y2800D01*
X2815D01*
Y2810D01*
X2795D01*
Y2800D01*
X2785D01*
Y2780D01*
X2795D01*
X2715Y3325D02*
X2725Y3345D01*
X2715Y3365D01*
X2735Y3355D01*
X2755Y3365D01*
X2745Y3345D01*
X2755Y3325D01*
X2735Y3335D01*
X2715Y3325D01*
X2600Y3705D02*
X2610Y3725D01*
X2600Y3745D01*
X2620Y3735D01*
X2640Y3745D01*
X2630Y3725D01*
X2640Y3705D01*
X2620Y3715D01*
X2600Y3705D01*
X2710Y3890D02*
X2720Y3910D01*
X2710Y3930D01*
X2730Y3920D01*
X2750Y3930D01*
X2740Y3910D01*
X2750Y3890D01*
X2730Y3900D01*
X2710Y3890D01*
D59*
X3815Y3026D02*
X3813Y3035D01*
X3806Y3042D01*
X3798Y3046D01*
X3788Y3045D01*
X3780Y3039D01*
X3776Y3031D01*
Y3021D01*
X3780Y3013D01*
X3788Y3007D01*
X3798Y3006D01*
X3806Y3010D01*
X3813Y3017D01*
X3815Y3026D01*
Y2926D02*
X3813Y2935D01*
X3806Y2942D01*
X3798Y2946D01*
X3788Y2945D01*
X3780Y2939D01*
X3776Y2931D01*
Y2921D01*
X3780Y2913D01*
X3788Y2907D01*
X3798Y2906D01*
X3806Y2910D01*
X3813Y2917D01*
X3815Y2926D01*
X3715Y3026D02*
X3713Y3035D01*
X3706Y3042D01*
X3698Y3046D01*
X3688Y3045D01*
X3680Y3039D01*
X3676Y3031D01*
Y3021D01*
X3680Y3013D01*
X3688Y3007D01*
X3698Y3006D01*
X3706Y3010D01*
X3713Y3017D01*
X3715Y3026D01*
Y2926D02*
X3713Y2935D01*
X3706Y2942D01*
X3698Y2946D01*
X3688Y2945D01*
X3680Y2939D01*
X3676Y2931D01*
Y2921D01*
X3680Y2913D01*
X3688Y2907D01*
X3698Y2906D01*
X3706Y2910D01*
X3713Y2917D01*
X3715Y2926D01*
X3615Y3026D02*
X3613Y3035D01*
X3606Y3042D01*
X3598Y3046D01*
X3588Y3045D01*
X3580Y3039D01*
X3576Y3031D01*
Y3021D01*
X3580Y3013D01*
X3588Y3007D01*
X3598Y3006D01*
X3606Y3010D01*
X3613Y3017D01*
X3615Y3026D01*
Y2926D02*
X3613Y2935D01*
X3606Y2942D01*
X3598Y2946D01*
X3588Y2945D01*
X3580Y2939D01*
X3576Y2931D01*
Y2921D01*
X3580Y2913D01*
X3588Y2907D01*
X3598Y2906D01*
X3606Y2910D01*
X3613Y2917D01*
X3615Y2926D01*
X3515Y3026D02*
X3513Y3035D01*
X3506Y3042D01*
X3498Y3046D01*
X3488Y3045D01*
X3480Y3039D01*
X3476Y3031D01*
Y3021D01*
X3480Y3013D01*
X3488Y3007D01*
X3498Y3006D01*
X3506Y3010D01*
X3513Y3017D01*
X3515Y3026D01*
Y2926D02*
X3513Y2935D01*
X3506Y2942D01*
X3498Y2946D01*
X3488Y2945D01*
X3480Y2939D01*
X3476Y2931D01*
Y2921D01*
X3480Y2913D01*
X3488Y2907D01*
X3498Y2906D01*
X3506Y2910D01*
X3513Y2917D01*
X3515Y2926D01*
X3415Y3026D02*
X3413Y3035D01*
X3406Y3042D01*
X3398Y3046D01*
X3388Y3045D01*
X3380Y3039D01*
X3376Y3031D01*
Y3021D01*
X3380Y3013D01*
X3388Y3007D01*
X3398Y3006D01*
X3406Y3010D01*
X3413Y3017D01*
X3415Y3026D01*
Y2926D02*
X3413Y2935D01*
X3406Y2942D01*
X3398Y2946D01*
X3388Y2945D01*
X3380Y2939D01*
X3376Y2931D01*
Y2921D01*
X3380Y2913D01*
X3388Y2907D01*
X3398Y2906D01*
X3406Y2910D01*
X3413Y2917D01*
X3415Y2926D01*
X3820Y3969D02*
X3818Y3978D01*
X3811Y3986D01*
X3803Y3989D01*
X3793Y3988D01*
X3785Y3982D01*
X3781Y3974D01*
Y3964D01*
X3785Y3956D01*
X3793Y3950D01*
X3803Y3949D01*
X3811Y3953D01*
X3818Y3960D01*
X3820Y3969D01*
Y4069D02*
X3818Y4078D01*
X3811Y4086D01*
X3803Y4089D01*
X3793Y4088D01*
X3785Y4082D01*
X3781Y4074D01*
Y4064D01*
X3785Y4056D01*
X3793Y4050D01*
X3803Y4049D01*
X3811Y4053D01*
X3818Y4060D01*
X3820Y4069D01*
X3720Y3969D02*
X3718Y3978D01*
X3711Y3986D01*
X3703Y3989D01*
X3693Y3988D01*
X3685Y3982D01*
X3681Y3974D01*
Y3964D01*
X3685Y3956D01*
X3693Y3950D01*
X3703Y3949D01*
X3711Y3953D01*
X3718Y3960D01*
X3720Y3969D01*
Y4069D02*
X3718Y4078D01*
X3711Y4086D01*
X3703Y4089D01*
X3693Y4088D01*
X3685Y4082D01*
X3681Y4074D01*
Y4064D01*
X3685Y4056D01*
X3693Y4050D01*
X3703Y4049D01*
X3711Y4053D01*
X3718Y4060D01*
X3720Y4069D01*
X3620Y3969D02*
X3618Y3978D01*
X3611Y3986D01*
X3603Y3989D01*
X3593Y3988D01*
X3585Y3982D01*
X3581Y3974D01*
Y3964D01*
X3585Y3956D01*
X3593Y3950D01*
X3603Y3949D01*
X3611Y3953D01*
X3618Y3960D01*
X3620Y3969D01*
Y4069D02*
X3618Y4078D01*
X3611Y4086D01*
X3603Y4089D01*
X3593Y4088D01*
X3585Y4082D01*
X3581Y4074D01*
Y4064D01*
X3585Y4056D01*
X3593Y4050D01*
X3603Y4049D01*
X3611Y4053D01*
X3618Y4060D01*
X3620Y4069D01*
X3520Y3969D02*
X3518Y3978D01*
X3511Y3986D01*
X3503Y3989D01*
X3493Y3988D01*
X3485Y3982D01*
X3481Y3974D01*
Y3964D01*
X3485Y3956D01*
X3493Y3950D01*
X3503Y3949D01*
X3511Y3953D01*
X3518Y3960D01*
X3520Y3969D01*
Y4069D02*
X3518Y4078D01*
X3511Y4086D01*
X3503Y4089D01*
X3493Y4088D01*
X3485Y4082D01*
X3481Y4074D01*
Y4064D01*
X3485Y4056D01*
X3493Y4050D01*
X3503Y4049D01*
X3511Y4053D01*
X3518Y4060D01*
X3520Y4069D01*
X3420Y3969D02*
X3418Y3978D01*
X3411Y3986D01*
X3403Y3989D01*
X3393Y3988D01*
X3385Y3982D01*
X3381Y3974D01*
Y3964D01*
X3385Y3956D01*
X3393Y3950D01*
X3403Y3949D01*
X3411Y3953D01*
X3418Y3960D01*
X3420Y3969D01*
Y4069D02*
X3418Y4078D01*
X3411Y4086D01*
X3403Y4089D01*
X3393Y4088D01*
X3385Y4082D01*
X3381Y4074D01*
Y4064D01*
X3385Y4056D01*
X3393Y4050D01*
X3403Y4049D01*
X3411Y4053D01*
X3418Y4060D01*
X3420Y4069D01*
M02*
