G04 Layer_Color=16711935*
%FSLAX23Y23*%
%MOIN*%
G70*
G01*
G75*
%ADD30C,0.004*%
D30*
X3393Y3420D02*
X3430D01*
X3393Y3486D02*
X3430D01*
X3393Y3420D02*
Y3486D01*
X3430Y3420D02*
Y3486D01*
X3371Y3420D02*
Y3486D01*
X3334Y3420D02*
Y3486D01*
X3371D01*
X3334Y3420D02*
X3371D01*
X3048Y3395D02*
Y3461D01*
X3011Y3395D02*
Y3461D01*
X3048D01*
X3011Y3395D02*
X3048D01*
X3011Y3521D02*
X3049D01*
X3011Y3588D02*
X3049D01*
X3011Y3521D02*
Y3588D01*
X3049Y3521D02*
Y3588D01*
X3125Y3395D02*
X3162D01*
X3125Y3461D02*
X3162D01*
X3125Y3395D02*
Y3461D01*
X3162Y3395D02*
Y3461D01*
Y3521D02*
Y3588D01*
X3125Y3521D02*
Y3588D01*
X3162D01*
X3125Y3521D02*
X3162D01*
X3068Y3395D02*
X3105D01*
X3068Y3461D02*
X3105D01*
X3068Y3395D02*
Y3461D01*
X3105Y3395D02*
Y3461D01*
X3106Y3521D02*
Y3588D01*
X3068Y3521D02*
Y3588D01*
X3106D01*
X3068Y3521D02*
X3106D01*
X2953Y3395D02*
X2991D01*
X2953Y3461D02*
X2991D01*
X2953Y3395D02*
Y3461D01*
X2991Y3395D02*
Y3461D01*
Y3521D02*
Y3588D01*
X2953Y3521D02*
Y3588D01*
X2991D01*
X2953Y3521D02*
X2991D01*
X2567Y4185D02*
X2783D01*
X2567Y3835D02*
X2783D01*
X2693Y3988D02*
Y4057D01*
X2655Y3988D02*
Y4057D01*
X2693D01*
X2655Y3988D02*
X2693D01*
X3570Y3662D02*
X3607D01*
X3570Y3731D02*
X3607D01*
X3570Y3662D02*
Y3731D01*
X3607Y3662D02*
Y3731D01*
X2309Y2832D02*
Y2899D01*
X2347Y2832D02*
Y2899D01*
X2309Y2832D02*
X2347D01*
X2309Y2899D02*
X2347D01*
X2366D02*
X2404D01*
X2366Y2832D02*
X2404D01*
Y2899D01*
X2366Y2832D02*
Y2899D01*
X2423D02*
X2461D01*
X2423Y2832D02*
X2461D01*
Y2899D01*
X2423Y2832D02*
Y2899D01*
X2480Y2832D02*
Y2899D01*
X2518Y2832D02*
Y2899D01*
X2480Y2832D02*
X2518D01*
X2480Y2899D02*
X2518D01*
X2537Y2832D02*
Y2899D01*
X2575Y2832D02*
Y2899D01*
X2537Y2832D02*
X2575D01*
X2537Y2899D02*
X2575D01*
X2594D02*
X2632D01*
X2594Y2832D02*
X2632D01*
Y2899D01*
X2594Y2832D02*
Y2899D01*
X2709Y4056D02*
X2747D01*
X2709Y3989D02*
X2747D01*
Y4056D01*
X2709Y3989D02*
Y4056D01*
X3047Y3110D02*
Y3176D01*
X3010Y3110D02*
Y3176D01*
X3047D01*
X3010Y3110D02*
X3047D01*
X3162D02*
Y3176D01*
X3125Y3110D02*
Y3176D01*
X3162D01*
X3125Y3110D02*
X3162D01*
X3067D02*
X3105D01*
X3067Y3176D02*
X3105D01*
X3067Y3110D02*
Y3176D01*
X3105Y3110D02*
Y3176D01*
X2952Y3110D02*
X2990D01*
X2952Y3176D02*
X2990D01*
X2952Y3110D02*
Y3176D01*
X2990Y3110D02*
Y3176D01*
X3886Y3661D02*
X3924D01*
X3886Y3729D02*
X3924D01*
X3886Y3661D02*
Y3729D01*
X3924Y3661D02*
Y3729D01*
X2697Y3218D02*
Y3287D01*
X2660Y3218D02*
Y3287D01*
X2697D01*
X2660Y3218D02*
X2697D01*
X3726Y3662D02*
X3764D01*
X3726Y3731D02*
X3764D01*
X3726Y3662D02*
Y3731D01*
X3764Y3662D02*
Y3731D01*
X2692Y3603D02*
Y3672D01*
X2655Y3603D02*
Y3672D01*
X2692D01*
X2655Y3603D02*
X2692D01*
X2990Y3815D02*
Y3881D01*
X2952Y3815D02*
Y3881D01*
X2990D01*
X2952Y3815D02*
X2990D01*
X2953Y3690D02*
X2991D01*
X2953Y3756D02*
X2991D01*
X2953Y3690D02*
Y3756D01*
X2991Y3690D02*
Y3756D01*
X3105Y3815D02*
Y3881D01*
X3067Y3815D02*
Y3881D01*
X3105D01*
X3067Y3815D02*
X3105D01*
X3068Y3690D02*
X3105D01*
X3068Y3756D02*
X3105D01*
X3068Y3690D02*
Y3756D01*
X3105Y3690D02*
Y3756D01*
X3162Y3815D02*
Y3881D01*
X3125Y3815D02*
Y3881D01*
X3162D01*
X3125Y3815D02*
X3162D01*
X3125Y3690D02*
X3162D01*
X3125Y3756D02*
X3162D01*
X3125Y3690D02*
Y3756D01*
X3162Y3690D02*
Y3756D01*
X2645Y3219D02*
Y3286D01*
X2607Y3219D02*
Y3286D01*
X2645D01*
X2607Y3219D02*
X2645D01*
X3010Y3815D02*
X3047D01*
X3010Y3881D02*
X3047D01*
X3010Y3815D02*
Y3881D01*
X3047Y3815D02*
Y3881D01*
X3048Y3690D02*
Y3756D01*
X3011Y3690D02*
Y3756D01*
X3048D01*
X3011Y3690D02*
X3048D01*
X2713Y3219D02*
X2751D01*
X2713Y3286D02*
X2751D01*
X2713Y3219D02*
Y3286D01*
X2751Y3219D02*
Y3286D01*
X2640Y3604D02*
Y3671D01*
X2602Y3604D02*
Y3671D01*
X2640D01*
X2602Y3604D02*
X2640D01*
X2709Y3671D02*
X2747D01*
X2709Y3604D02*
X2747D01*
Y3671D01*
X2709Y3604D02*
Y3671D01*
X2990Y3240D02*
Y3306D01*
X2952Y3240D02*
Y3306D01*
X2990D01*
X2952Y3240D02*
X2990D01*
X3105D02*
Y3306D01*
X3067Y3240D02*
Y3306D01*
X3105D01*
X3067Y3240D02*
X3105D01*
X3125D02*
X3162D01*
X3125Y3306D02*
X3162D01*
X3125Y3240D02*
Y3306D01*
X3162Y3240D02*
Y3306D01*
X2641Y3989D02*
Y4056D01*
X2603Y3989D02*
Y4056D01*
X2641D01*
X2603Y3989D02*
X2641D01*
X3010Y3240D02*
X3047D01*
X3010Y3306D02*
X3047D01*
X3010Y3240D02*
Y3306D01*
X3047Y3240D02*
Y3306D01*
X2441Y3135D02*
Y3201D01*
X2403Y3135D02*
Y3201D01*
X2441D01*
X2403Y3135D02*
X2441D01*
X2338Y3134D02*
X2376D01*
X2338Y3200D02*
X2376D01*
X2338Y3134D02*
Y3200D01*
X2376Y3134D02*
Y3200D01*
X2311Y3134D02*
Y3200D01*
X2273Y3134D02*
Y3200D01*
X2311D01*
X2273Y3134D02*
X2311D01*
X2208D02*
X2246D01*
X2208Y3200D02*
X2246D01*
X2208Y3134D02*
Y3200D01*
X2246Y3134D02*
Y3200D01*
X2567Y3807D02*
X2783D01*
X2567Y3457D02*
X2783D01*
X2567Y3430D02*
X2783D01*
X2567Y3080D02*
X2783D01*
M02*
